M48
INCH,LZ
;FILE_FORMAT=2:4
;TYPE=PLATED
;Layer: PTH_Through
;EasyEDA v6.5.42, 2024-04-08 08:38:15
;e5b43dc0649c40c7af9ec927a61642e9,25835901624346e3b29966769a4e042a,10
;Gerber Generator version 0.2
;Holesize 1 = 0.0120 inch
T01C0.0120
;Holesize 2 = 0.0120 inch
T02C0.0120
;Holesize 3 = 0.0280 inch
T03C0.0280
;Holesize 4 = 0.0300 inch
T04C0.0300
;Holesize 5 = 0.0350 inch
T05C0.0350
;Holesize 6 = 0.0410 inch
T06C0.0410
%
G05
G90
T01
X021650Y006250
X026300Y006350
X026000Y006350
X022450Y003900
X025300Y006100
X025950Y006000
X026300Y006000
X019350Y004610
X031250Y006030
X020644Y006097
X020545Y005745
X021370Y005470
X021420Y006480
X022040Y005550
X018673Y005575
X019109Y005577
X019527Y005568
X022695Y005654
T02
X028044Y003100
X028544Y003100
X029044Y003100
X029544Y003100
X030044Y003100
X030544Y003100
X031044Y003100
X032044Y003100
X032544Y003100
X033044Y003100
X033544Y003100
X034044Y003100
X034544Y003100
X034544Y008800
X034044Y008800
X033544Y008800
X033044Y008800
X032544Y008800
X032044Y008800
X031544Y008800
X031044Y008800
X030544Y008800
X030044Y008800
X029544Y008800
X029044Y008800
X028544Y008800
X028044Y008800
X027070Y009100
X023500Y007900
X024050Y007850
X018673Y007350
X019310Y007410
X027100Y002800
X025200Y003050
X024104Y004200
X019810Y004720
X022750Y006500
X015800Y004000
X015150Y004000
X031520Y006039
X032060Y006310
X032050Y006860
X031800Y006570
X031800Y006020
X031520Y006310
X027250Y009450
X012820Y005780
X012860Y006140
X016100Y005574
X014704Y006630
X012680Y007150
X012410Y005020
X010830Y008540
X012020Y007830
X012550Y008439
X011940Y005490
X011430Y003410
X011890Y003400
X010550Y005180
X010550Y006810
X013037Y005070
X013770Y007239
X014490Y004860
X014940Y004880
X012130Y004790
X016370Y005240
X017800Y007420
X017950Y008280
X010222Y003846
X011740Y004210
X011807Y009002
T03
X021522Y008480
X022022Y008480
X022522Y008480
X010381Y004622G85X010656Y004622
X010381Y007378G85X010656Y007378
T04
X012231Y004257
X012731Y004257
T05
X011581Y006984
X011581Y005016
T06
X010550Y009500
X011550Y009500
X012550Y009500
X013550Y009500
X014550Y009500
X015550Y009500
X016550Y009500
X017550Y009500
X018550Y009500
X019550Y009500
X020550Y009500
X021550Y009500
X022550Y009500
X023550Y009500
X024550Y009500
X025550Y009500
X026550Y009500
X010550Y002500
X011550Y002500
X012550Y002500
X013550Y002500
X014550Y002500
X015550Y002500
X016550Y002500
X017550Y002500
X018550Y002500
X019550Y002500
X020550Y002500
X021550Y002500
X022550Y002500
X023550Y002500
X024550Y002500
X025550Y002500
X026550Y002500
M30
