G04 Layer: TopLayer*
G04 EasyEDA v6.5.42, 2024-04-08 08:38:15*
G04 e5b43dc0649c40c7af9ec927a61642e9,25835901624346e3b29966769a4e042a,10*
G04 Gerber Generator version 0.2*
G04 Scale: 100 percent, Rotated: No, Reflected: No *
G04 Dimensions in inches *
G04 leading zeros omitted , absolute positions ,3 integer and 6 decimal *
%FSLAX36Y36*%
%MOIN*%

%AMMACRO1*21,1,$1,$2,0,0,$3*%
%ADD10C,0.0060*%
%ADD11C,0.0210*%
%ADD12R,0.0207X0.0362*%
%ADD13MACRO1,0.0213X0.0311X-90.0000*%
%ADD14MACRO1,0.0213X0.0311X0.0000*%
%ADD15R,0.0213X0.0311*%
%ADD16MACRO1,0.0213X0.0311X90.0000*%
%ADD17MACRO1,0.0532X0.0555X-90.0000*%
%ADD18R,0.0157X0.0236*%
%ADD19MACRO1,0.0158X0.0512X-90.0000*%
%ADD20R,0.0512X0.0157*%
%ADD21MACRO1,0.0157X0.0512X-90.0000*%
%ADD22R,0.0748X0.0591*%
%ADD23MACRO1,0.0394X0.0551X0.0000*%
%ADD24R,0.0394X0.0551*%
%ADD25MACRO1,0.0213X0.0223X0.0000*%
%ADD26R,0.0213X0.0223*%
%ADD27MACRO1,0.0213X0.0223X-90.0000*%
%ADD28MACRO1,0.0213X0.0223X90.0000*%
%ADD29R,0.0386X0.0972*%
%ADD30MACRO1,0.1417X0.0972X0.0000*%
%ADD31R,0.0356X0.0110*%
%ADD32R,0.0110X0.0356*%
%ADD33R,0.1319X0.1319*%
%ADD34R,0.0374X0.0827*%
%ADD35R,0.0827X0.0374*%
%ADD36R,0.0354X0.0354*%
%ADD37R,0.0748X0.0512*%
%ADD38MACRO1,0.063X0.063X0.0000*%
%ADD39C,0.0630*%
%ADD40C,0.0394*%
%ADD41C,0.0532*%
%ADD42O,0.074803X0.047240000000000004*%
%ADD43R,0.0394X0.0394*%
%ADD44C,0.0244*%
%ADD45C,0.0200*%
%ADD46C,0.0240*%
%ADD47C,0.0113*%

%LPD*%
G36*
X2228900Y819300D02*
G01*
X2227360Y819599D01*
X2226080Y820480D01*
X2225200Y821760D01*
X2224900Y823300D01*
X2224900Y827200D01*
X2225140Y828560D01*
X2225820Y829760D01*
X2226660Y830780D01*
X2229000Y834720D01*
X2230720Y838960D01*
X2231760Y843420D01*
X2232100Y847980D01*
X2231760Y852540D01*
X2230720Y856979D01*
X2229000Y861240D01*
X2226660Y865160D01*
X2225820Y866200D01*
X2225140Y867400D01*
X2224900Y868740D01*
X2224900Y877400D01*
X2225200Y878940D01*
X2226080Y880220D01*
X2227360Y881100D01*
X2228900Y881400D01*
X2591000Y881400D01*
X2591680Y881680D01*
X2613220Y903220D01*
X2613500Y903900D01*
X2613500Y979740D01*
X2613800Y981280D01*
X2614680Y982580D01*
X2618820Y986720D01*
X2620120Y987600D01*
X2621660Y987900D01*
X2686139Y987900D01*
X2687679Y987600D01*
X2688980Y986720D01*
X2692320Y983379D01*
X2693200Y982080D01*
X2693500Y980540D01*
X2693500Y929640D01*
X2693140Y928000D01*
X2692140Y926640D01*
X2690840Y925500D01*
X2689600Y924000D01*
X2663080Y897480D01*
X2662799Y896800D01*
X2662799Y839560D01*
X2662500Y838020D01*
X2661620Y836720D01*
X2649380Y824479D01*
X2648159Y823660D01*
X2646720Y823319D01*
X2645240Y823540D01*
X2643900Y824020D01*
X2641400Y824300D01*
X2620600Y824300D01*
X2618100Y824020D01*
X2615960Y823259D01*
X2614020Y822039D01*
X2613140Y821180D01*
X2611860Y820300D01*
X2610320Y820000D01*
X2599460Y820000D01*
X2597919Y820300D01*
X2596620Y821180D01*
X2584680Y833120D01*
X2583800Y834419D01*
X2583500Y835960D01*
X2583500Y850300D01*
X2583220Y850980D01*
X2580179Y854020D01*
X2579500Y854300D01*
X2338200Y854300D01*
X2337520Y854020D01*
X2303980Y820480D01*
X2302680Y819599D01*
X2301140Y819300D01*
G37*

%LPD*%
G36*
X2377500Y613400D02*
G01*
X2375960Y613700D01*
X2374680Y614580D01*
X2373800Y615860D01*
X2373500Y617400D01*
X2373500Y629600D01*
X2373820Y631160D01*
X2374720Y632460D01*
X2376060Y633320D01*
X2377620Y633580D01*
X2379180Y633220D01*
X2380460Y632280D01*
X2381280Y630920D01*
X2382100Y628580D01*
X2383300Y626640D01*
X2384920Y625040D01*
X2386840Y623820D01*
X2389000Y623080D01*
X2391480Y622800D01*
X2398400Y622800D01*
X2398400Y654800D01*
X2377500Y654800D01*
X2375960Y655100D01*
X2374680Y655980D01*
X2373800Y657280D01*
X2373500Y658800D01*
X2373500Y698300D01*
X2373220Y699080D01*
X2350660Y721640D01*
X2349800Y722940D01*
X2349500Y724460D01*
X2349500Y730020D01*
X2349220Y732500D01*
X2348460Y734659D01*
X2347240Y736580D01*
X2345640Y738199D01*
X2343700Y739400D01*
X2341560Y740160D01*
X2339060Y740440D01*
X2300940Y740440D01*
X2298440Y740160D01*
X2296300Y739400D01*
X2294380Y738199D01*
X2292360Y736120D01*
X2291040Y735220D01*
X2289480Y734900D01*
X2259960Y734900D01*
X2258400Y735220D01*
X2257100Y736120D01*
X2255060Y738199D01*
X2253160Y739400D01*
X2251000Y740160D01*
X2248520Y740440D01*
X2210380Y740440D01*
X2207900Y740160D01*
X2205740Y739400D01*
X2203820Y738199D01*
X2202540Y736919D01*
X2201240Y736040D01*
X2199720Y735740D01*
X2198180Y736040D01*
X2196880Y736919D01*
X2185280Y748520D01*
X2184400Y749820D01*
X2184100Y751360D01*
X2184100Y817200D01*
X2184440Y818820D01*
X2185400Y820140D01*
X2186800Y820980D01*
X2188440Y821180D01*
X2189900Y820759D01*
X2189900Y835639D01*
X2188100Y835639D01*
X2186560Y835939D01*
X2185280Y836800D01*
X2184400Y838100D01*
X2184100Y839640D01*
X2184100Y856320D01*
X2184400Y857840D01*
X2185280Y859140D01*
X2186560Y860020D01*
X2188100Y860320D01*
X2189900Y860320D01*
X2189900Y866000D01*
X2190200Y867540D01*
X2191060Y868820D01*
X2192360Y869700D01*
X2193900Y870000D01*
X2210580Y870000D01*
X2212100Y869700D01*
X2213400Y868820D01*
X2214280Y867540D01*
X2214580Y866000D01*
X2214580Y857300D01*
X2214700Y856320D01*
X2214700Y839640D01*
X2214580Y838660D01*
X2214580Y817720D01*
X2215380Y815900D01*
X2215600Y814580D01*
X2215600Y803700D01*
X2215880Y803020D01*
X2217100Y801700D01*
X2217800Y801500D01*
X2227780Y801500D01*
X2229320Y801200D01*
X2230600Y800320D01*
X2231480Y799040D01*
X2231780Y797500D01*
X2231780Y782159D01*
X2234660Y782159D01*
X2236200Y781860D01*
X2237500Y781000D01*
X2238360Y779700D01*
X2238660Y778160D01*
X2238660Y770540D01*
X2238360Y769000D01*
X2237500Y767700D01*
X2236200Y766840D01*
X2234660Y766540D01*
X2231780Y766540D01*
X2231780Y753520D01*
X2236840Y753520D01*
X2239320Y753800D01*
X2241640Y754620D01*
X2242960Y754840D01*
X2244280Y754620D01*
X2246600Y753800D01*
X2249100Y753520D01*
X2279740Y753520D01*
X2282240Y753800D01*
X2284380Y754560D01*
X2286320Y755759D01*
X2288820Y758340D01*
X2289980Y758940D01*
X2291260Y759160D01*
X2334160Y759160D01*
X2337320Y759460D01*
X2340160Y760320D01*
X2342780Y761740D01*
X2345520Y764020D01*
X2346820Y764900D01*
X2348360Y765200D01*
X2351640Y765200D01*
X2353180Y764900D01*
X2354480Y764020D01*
X2379120Y739400D01*
X2380560Y738199D01*
X2381580Y736960D01*
X2382000Y735400D01*
X2381800Y733800D01*
X2381340Y732500D01*
X2381060Y730020D01*
X2381060Y708420D01*
X2398400Y708420D01*
X2398400Y730800D01*
X2398700Y732340D01*
X2399580Y733620D01*
X2400880Y734500D01*
X2402400Y734800D01*
X2418700Y734800D01*
X2420220Y734500D01*
X2421520Y733620D01*
X2422400Y732340D01*
X2422700Y730800D01*
X2422700Y708420D01*
X2439300Y708420D01*
X2440840Y708120D01*
X2442120Y707260D01*
X2443000Y705960D01*
X2443300Y704419D01*
X2443300Y658800D01*
X2443000Y657280D01*
X2442120Y655980D01*
X2440840Y655100D01*
X2439300Y654800D01*
X2422700Y654800D01*
X2422700Y622800D01*
X2429620Y622800D01*
X2432100Y623080D01*
X2434260Y623820D01*
X2436180Y625040D01*
X2437760Y626180D01*
X2439300Y626500D01*
X2440840Y626180D01*
X2442120Y625320D01*
X2443000Y624020D01*
X2443300Y622500D01*
X2443300Y617400D01*
X2443000Y615860D01*
X2442120Y614580D01*
X2440840Y613700D01*
X2439300Y613400D01*
G37*

%LPC*%
G36*
X2206180Y753520D02*
G01*
X2211220Y753520D01*
X2211220Y766540D01*
X2195760Y766540D01*
X2195760Y763940D01*
X2196040Y761460D01*
X2196780Y759300D01*
X2198000Y757380D01*
X2199600Y755759D01*
X2201540Y754560D01*
X2203680Y753800D01*
G37*
G36*
X2195760Y782159D02*
G01*
X2211220Y782159D01*
X2211220Y795180D01*
X2206180Y795180D01*
X2203680Y794900D01*
X2201540Y794140D01*
X2199600Y792940D01*
X2198000Y791320D01*
X2196780Y789400D01*
X2196040Y787240D01*
X2195760Y784760D01*
G37*

%LPD*%
G36*
X3069400Y578200D02*
G01*
X3067860Y578500D01*
X3066580Y579380D01*
X3065700Y580660D01*
X3065400Y582200D01*
X3065400Y750400D01*
X3065700Y751940D01*
X3066580Y753220D01*
X3067860Y754100D01*
X3069400Y754400D01*
X3235200Y754400D01*
X3236740Y754100D01*
X3238020Y753220D01*
X3238900Y751940D01*
X3239200Y750400D01*
X3239200Y582200D01*
X3238900Y580660D01*
X3238020Y579380D01*
X3236740Y578500D01*
X3235200Y578200D01*
G37*

%LPD*%
G36*
X2664600Y478900D02*
G01*
X2662940Y479260D01*
X2661560Y480300D01*
X2660760Y481820D01*
X2660659Y483519D01*
X2661280Y485120D01*
X2662520Y486320D01*
X2664960Y487819D01*
X2666560Y489400D01*
X2667780Y491340D01*
X2668519Y493480D01*
X2668800Y495980D01*
X2668800Y548680D01*
X2668519Y551160D01*
X2667780Y553320D01*
X2666560Y555240D01*
X2664940Y556860D01*
X2663020Y558060D01*
X2660880Y558820D01*
X2658380Y559100D01*
X2629060Y559100D01*
X2627520Y559400D01*
X2626220Y560280D01*
X2611380Y575120D01*
X2610500Y576420D01*
X2610200Y577960D01*
X2610200Y585420D01*
X2610400Y586660D01*
X2610960Y587780D01*
X2612320Y589640D01*
X2613900Y592900D01*
X2614860Y596400D01*
X2615179Y600000D01*
X2614860Y603600D01*
X2613900Y607100D01*
X2612900Y609160D01*
X2612500Y610720D01*
X2612760Y612300D01*
X2613620Y613660D01*
X2614940Y614580D01*
X2616500Y614900D01*
X2636400Y614900D01*
X2637080Y615180D01*
X2638260Y616360D01*
X2642660Y619300D01*
X2645200Y621720D01*
X2646420Y623060D01*
X2647520Y623620D01*
X2648759Y623820D01*
X2662180Y623820D01*
X2662180Y626700D01*
X2662480Y628240D01*
X2663360Y629540D01*
X2664660Y630400D01*
X2666180Y630700D01*
X2673820Y630700D01*
X2675340Y630400D01*
X2676640Y629540D01*
X2677520Y628240D01*
X2677820Y626700D01*
X2677820Y623820D01*
X2690040Y623820D01*
X2691560Y623520D01*
X2692860Y622640D01*
X2693740Y621340D01*
X2694040Y619820D01*
X2694040Y607260D01*
X2693740Y605740D01*
X2692860Y604440D01*
X2691560Y603560D01*
X2690040Y603260D01*
X2677820Y603260D01*
X2677820Y587780D01*
X2680400Y587780D01*
X2682900Y588060D01*
X2685040Y588820D01*
X2688500Y591140D01*
X2690040Y591440D01*
X2691560Y591140D01*
X2692860Y590260D01*
X2693740Y588960D01*
X2694040Y587440D01*
X2694040Y556520D01*
X2694320Y554040D01*
X2695280Y551360D01*
X2695520Y550000D01*
X2695280Y548640D01*
X2694320Y545940D01*
X2694040Y543460D01*
X2694040Y506520D01*
X2694320Y504040D01*
X2695280Y501360D01*
X2695520Y500000D01*
X2695280Y498640D01*
X2694320Y495940D01*
X2694040Y493459D01*
X2694040Y484799D01*
X2693740Y483260D01*
X2692860Y481960D01*
X2690980Y480080D01*
X2689680Y479200D01*
X2688140Y478900D01*
G37*

%LPC*%
G36*
X2659600Y587780D02*
G01*
X2662180Y587780D01*
X2662180Y603260D01*
X2649180Y603260D01*
X2649180Y598220D01*
X2649460Y595720D01*
X2650200Y593580D01*
X2651420Y591640D01*
X2653020Y590040D01*
X2654960Y588820D01*
X2657100Y588060D01*
G37*

%LPD*%
G36*
X2286060Y405900D02*
G01*
X2284540Y406200D01*
X2283240Y407080D01*
X2282380Y408360D01*
X2282060Y409900D01*
X2282060Y431580D01*
X2237600Y431580D01*
X2236060Y431880D01*
X2234780Y432740D01*
X2233900Y434040D01*
X2233600Y435580D01*
X2233600Y481200D01*
X2233900Y482720D01*
X2234780Y484020D01*
X2236060Y484900D01*
X2237600Y485200D01*
X2282060Y485200D01*
X2282060Y510220D01*
X2282280Y511520D01*
X2282900Y512660D01*
X2283840Y513560D01*
X2284780Y514180D01*
X2301520Y530920D01*
X2301800Y531600D01*
X2301800Y609500D01*
X2301520Y610180D01*
X2295460Y616240D01*
X2294560Y617600D01*
X2294300Y619220D01*
X2294680Y620800D01*
X2295680Y622100D01*
X2297120Y622880D01*
X2298740Y623040D01*
X2300940Y622800D01*
X2307860Y622800D01*
X2307860Y654800D01*
X2297520Y654800D01*
X2296060Y655080D01*
X2294800Y655879D01*
X2293900Y657060D01*
X2292900Y659160D01*
X2292500Y660900D01*
X2292500Y704419D01*
X2292800Y705960D01*
X2293680Y707260D01*
X2294960Y708120D01*
X2296500Y708420D01*
X2307860Y708420D01*
X2307860Y720699D01*
X2308160Y722240D01*
X2309020Y723520D01*
X2310320Y724400D01*
X2311860Y724700D01*
X2328140Y724700D01*
X2329680Y724400D01*
X2330980Y723520D01*
X2331840Y722240D01*
X2332140Y720699D01*
X2332140Y708420D01*
X2342800Y708420D01*
X2344340Y708120D01*
X2345620Y707260D01*
X2346500Y705960D01*
X2346800Y704419D01*
X2346800Y658800D01*
X2346500Y657280D01*
X2345620Y655980D01*
X2344340Y655100D01*
X2342800Y654800D01*
X2332140Y654800D01*
X2332140Y622800D01*
X2339060Y622800D01*
X2343040Y623260D01*
X2344500Y622900D01*
X2345720Y622000D01*
X2346520Y620740D01*
X2346800Y619260D01*
X2346800Y616300D01*
X2347080Y615620D01*
X2361520Y601180D01*
X2362200Y600900D01*
X2454140Y600900D01*
X2455680Y600600D01*
X2456980Y599720D01*
X2457740Y599020D01*
X2457800Y599300D01*
X2457800Y612240D01*
X2458100Y613780D01*
X2458980Y615080D01*
X2460520Y616620D01*
X2460840Y617080D01*
X2462100Y618280D01*
X2463740Y618840D01*
X2465480Y618640D01*
X2467100Y618060D01*
X2469600Y617780D01*
X2472180Y617780D01*
X2472180Y633260D01*
X2464800Y633260D01*
X2463260Y633560D01*
X2461980Y634440D01*
X2461100Y635740D01*
X2460800Y637260D01*
X2460800Y643500D01*
X2460520Y644180D01*
X2457720Y646979D01*
X2456840Y648280D01*
X2456540Y649820D01*
X2456840Y651340D01*
X2457720Y652640D01*
X2459000Y653520D01*
X2460540Y653820D01*
X2472180Y653820D01*
X2472180Y656700D01*
X2472480Y658240D01*
X2473360Y659539D01*
X2474660Y660400D01*
X2476180Y660699D01*
X2483820Y660699D01*
X2485340Y660400D01*
X2486640Y659539D01*
X2487520Y658240D01*
X2487820Y656700D01*
X2487820Y653820D01*
X2500840Y653820D01*
X2500840Y658900D01*
X2501140Y660440D01*
X2502000Y661720D01*
X2503300Y662600D01*
X2504840Y662900D01*
X2525180Y662900D01*
X2526700Y662600D01*
X2528000Y661720D01*
X2528860Y660440D01*
X2529180Y658900D01*
X2529180Y656020D01*
X2542180Y656020D01*
X2542180Y656700D01*
X2542480Y658240D01*
X2543360Y659539D01*
X2544660Y660400D01*
X2546180Y660699D01*
X2553820Y660699D01*
X2555340Y660400D01*
X2556640Y659539D01*
X2557520Y658240D01*
X2557820Y656700D01*
X2557820Y656020D01*
X2570840Y656020D01*
X2570840Y658900D01*
X2571139Y660440D01*
X2572000Y661720D01*
X2573300Y662600D01*
X2574840Y662900D01*
X2575800Y662900D01*
X2577340Y662600D01*
X2578620Y661720D01*
X2579500Y660440D01*
X2579800Y658900D01*
X2579800Y626300D01*
X2580080Y625620D01*
X2583480Y622220D01*
X2584400Y620820D01*
X2584640Y619160D01*
X2584200Y617560D01*
X2583140Y616260D01*
X2581060Y614580D01*
X2578680Y611860D01*
X2576820Y608760D01*
X2575539Y605360D01*
X2574900Y601800D01*
X2574900Y598200D01*
X2575539Y594640D01*
X2576820Y591240D01*
X2579540Y586740D01*
X2579800Y585340D01*
X2579800Y570200D01*
X2580120Y567040D01*
X2580960Y564260D01*
X2581120Y562780D01*
X2580720Y561360D01*
X2579840Y560160D01*
X2578580Y559380D01*
X2577120Y559100D01*
X2568480Y559100D01*
X2568480Y538120D01*
X2588900Y538120D01*
X2590419Y537800D01*
X2591720Y536940D01*
X2592580Y535640D01*
X2592900Y534120D01*
X2592900Y510540D01*
X2592580Y509000D01*
X2591720Y507700D01*
X2590419Y506840D01*
X2588900Y506540D01*
X2568480Y506540D01*
X2568480Y482900D01*
X2568180Y481360D01*
X2567320Y480080D01*
X2566019Y479200D01*
X2564480Y478900D01*
X2539740Y478900D01*
X2538200Y479200D01*
X2536900Y480080D01*
X2536040Y481360D01*
X2535740Y482900D01*
X2535740Y506540D01*
X2514160Y506540D01*
X2514160Y495980D01*
X2514440Y493480D01*
X2515180Y491340D01*
X2516400Y489400D01*
X2518000Y487819D01*
X2520440Y486320D01*
X2521680Y485120D01*
X2522300Y483519D01*
X2522200Y481820D01*
X2521400Y480300D01*
X2520020Y479260D01*
X2518360Y478900D01*
X2514260Y478900D01*
X2512720Y479200D01*
X2511420Y480080D01*
X2503420Y488080D01*
X2502640Y489180D01*
X2502260Y490460D01*
X2502340Y491800D01*
X2503080Y493400D01*
X2503840Y495560D01*
X2504120Y498040D01*
X2504120Y519860D01*
X2503840Y522360D01*
X2503020Y524680D01*
X2502800Y526000D01*
X2503020Y527320D01*
X2503840Y529640D01*
X2504120Y532120D01*
X2504120Y534960D01*
X2491100Y534960D01*
X2491100Y534300D01*
X2490800Y532760D01*
X2489920Y531460D01*
X2488640Y530600D01*
X2487100Y530300D01*
X2479480Y530300D01*
X2477940Y530600D01*
X2476640Y531460D01*
X2475780Y532760D01*
X2475480Y534300D01*
X2475480Y534960D01*
X2462460Y534960D01*
X2462460Y532120D01*
X2462740Y529640D01*
X2463540Y527320D01*
X2463780Y526000D01*
X2463540Y524680D01*
X2462740Y522360D01*
X2462460Y519860D01*
X2462460Y498040D01*
X2462740Y495560D01*
X2463480Y493400D01*
X2464700Y491480D01*
X2467540Y488600D01*
X2468100Y486920D01*
X2468460Y483300D01*
X2468280Y481659D01*
X2467460Y480220D01*
X2466100Y479240D01*
X2464480Y478900D01*
X2408200Y478900D01*
X2407260Y478360D01*
X2403080Y474180D01*
X2402800Y473500D01*
X2402800Y441100D01*
X2402540Y439700D01*
X2401820Y438480D01*
X2400700Y437580D01*
X2399320Y436840D01*
X2396480Y434580D01*
X2395060Y432939D01*
X2393700Y431940D01*
X2392040Y431580D01*
X2357940Y431580D01*
X2357940Y409900D01*
X2357620Y408360D01*
X2356760Y407080D01*
X2355460Y406200D01*
X2353940Y405900D01*
G37*

%LPC*%
G36*
X2357940Y485200D02*
G01*
X2401060Y485200D01*
X2401060Y506780D01*
X2400780Y509280D01*
X2400040Y511420D01*
X2398820Y513360D01*
X2397200Y514960D01*
X2395280Y516180D01*
X2393140Y516920D01*
X2390640Y517200D01*
X2357940Y517200D01*
G37*
G36*
X2514160Y538120D02*
G01*
X2535740Y538120D01*
X2535740Y559100D01*
X2524580Y559100D01*
X2522080Y558820D01*
X2519940Y558060D01*
X2518000Y556860D01*
X2516400Y555240D01*
X2515180Y553320D01*
X2514440Y551160D01*
X2514160Y548680D01*
G37*
G36*
X2491100Y551100D02*
G01*
X2504120Y551100D01*
X2504120Y553940D01*
X2503840Y556440D01*
X2503080Y558580D01*
X2501860Y560520D01*
X2500260Y562120D01*
X2498320Y563340D01*
X2496180Y564100D01*
X2493700Y564380D01*
X2491100Y564380D01*
G37*
G36*
X2462460Y551100D02*
G01*
X2475480Y551100D01*
X2475480Y564380D01*
X2472880Y564380D01*
X2470400Y564100D01*
X2468240Y563340D01*
X2466320Y562120D01*
X2464700Y560520D01*
X2463480Y558580D01*
X2462740Y556440D01*
X2462460Y553940D01*
G37*
G36*
X2487820Y617780D02*
G01*
X2490400Y617780D01*
X2492900Y618060D01*
X2495040Y618820D01*
X2496980Y620040D01*
X2498580Y621640D01*
X2499800Y623580D01*
X2500540Y625720D01*
X2500840Y628220D01*
X2500840Y633260D01*
X2487820Y633260D01*
G37*
G36*
X2557820Y626620D02*
G01*
X2560400Y626620D01*
X2562900Y626900D01*
X2565040Y627660D01*
X2566980Y628880D01*
X2568580Y630480D01*
X2569800Y632420D01*
X2570539Y634560D01*
X2570840Y637040D01*
X2570840Y639900D01*
X2557820Y639900D01*
G37*
G36*
X2539600Y626620D02*
G01*
X2542180Y626620D01*
X2542180Y639900D01*
X2529180Y639900D01*
X2529180Y637040D01*
X2529460Y634560D01*
X2530200Y632420D01*
X2531420Y630480D01*
X2533020Y628880D01*
X2534960Y627660D01*
X2537100Y626900D01*
G37*

%LPD*%
D10*
X2804430Y245664D02*
G01*
X2804430Y310000D01*
X2854430Y245664D02*
G01*
X2854430Y310000D01*
X2904430Y245664D02*
G01*
X2904430Y310000D01*
X2954430Y245664D02*
G01*
X2954430Y310000D01*
X3004430Y245664D02*
G01*
X3004430Y310000D01*
X3054430Y245664D02*
G01*
X3054430Y310000D01*
X3104430Y245664D02*
G01*
X3104430Y310000D01*
X3204430Y245664D02*
G01*
X3204430Y310000D01*
X3254430Y245664D02*
G01*
X3254430Y310000D01*
X3304430Y245664D02*
G01*
X3304430Y310000D01*
X3354430Y245664D02*
G01*
X3354430Y310000D01*
X3404430Y245664D02*
G01*
X3404430Y310000D01*
X3454430Y245664D02*
G01*
X3454430Y310000D01*
X3354430Y954335D02*
G01*
X3354430Y880000D01*
X3304430Y954335D02*
G01*
X3304430Y880000D01*
X3254430Y954335D02*
G01*
X3254430Y880000D01*
X3204430Y954335D02*
G01*
X3204430Y880000D01*
X3154430Y954335D02*
G01*
X3154430Y880000D01*
X3104430Y954335D02*
G01*
X3104430Y880000D01*
X3054430Y954335D02*
G01*
X3054430Y880000D01*
X3004430Y954335D02*
G01*
X3004430Y880000D01*
X2954430Y954335D02*
G01*
X2954430Y880000D01*
X2904430Y954335D02*
G01*
X2904430Y880000D01*
X2854430Y954335D02*
G01*
X2854430Y880000D01*
X2804430Y954335D02*
G01*
X2804430Y880000D01*
X2745569Y774994D02*
G01*
X2696004Y774994D01*
X2683000Y788000D01*
X2683000Y871999D01*
X2683000Y885999D01*
X2706999Y910000D01*
X2264423Y774353D02*
G01*
X2334353Y774353D01*
X2350000Y790000D01*
X2466665Y800913D02*
G01*
X2420913Y800913D01*
X2405000Y785000D01*
X2102201Y697343D02*
G01*
X2127655Y697343D01*
X2165000Y660000D01*
X2165000Y625000D01*
X1867264Y774935D02*
G01*
X1867264Y735000D01*
X1945228Y774380D02*
G01*
X1931000Y760149D01*
X1931000Y740999D01*
X2670000Y656460D02*
G01*
X2651459Y656460D01*
X2630000Y635000D01*
X2631000Y798539D02*
G01*
X2631000Y725999D01*
X2600000Y695000D01*
X2600000Y635000D01*
X2745569Y424994D02*
G01*
X2679994Y424994D01*
X2655000Y400000D01*
X2655000Y250000D01*
X2745569Y374994D02*
G01*
X2709994Y374994D01*
X2690000Y355000D01*
X2690000Y300000D01*
X2710000Y280000D01*
X2520000Y305000D02*
G01*
X2450000Y305000D01*
X2383765Y371235D01*
X2357452Y371235D01*
X2357500Y371199D02*
G01*
X2311499Y371599D01*
X2357452Y337154D02*
G01*
X2367844Y337154D01*
X2455000Y250000D01*
X2190555Y381439D02*
G01*
X2236439Y381439D01*
X2245000Y390000D01*
X2472959Y399618D02*
G01*
X2430819Y399618D01*
X2410437Y420000D01*
X1556894Y331232D02*
G01*
X1556894Y251894D01*
X1555000Y250000D01*
X1455200Y329200D02*
G01*
X1455000Y250000D01*
X1590972Y331233D02*
G01*
X1580000Y342204D01*
X1580000Y400000D01*
X1489306Y329194D02*
G01*
X1515000Y354888D01*
X1515000Y400000D01*
X2229449Y681610D02*
G01*
X2243389Y681610D01*
X2275000Y650000D01*
X2480000Y643539D02*
G01*
X2481459Y643539D01*
X2515000Y610000D01*
X2530000Y610000D01*
X2550000Y647959D02*
G01*
X2550000Y630000D01*
X2530000Y610000D01*
X2630848Y522325D02*
G01*
X2630848Y534151D01*
X2595000Y570000D01*
X2595000Y600000D01*
X2670000Y613539D02*
G01*
X2656459Y600000D01*
X2630000Y600000D01*
X2199493Y476417D02*
G01*
X2190555Y467478D01*
X2190555Y424358D01*
X2070736Y361035D02*
G01*
X2067565Y361035D01*
X2066999Y361599D01*
X2141599Y361599D01*
X2150000Y370000D01*
X2150000Y415000D01*
X2159359Y424358D01*
X2190556Y424358D01*
X2555699Y399600D02*
G01*
X2556000Y441999D01*
X2536999Y460999D01*
X2508999Y460999D01*
X2483299Y486700D01*
X2483299Y509000D01*
X1969049Y511399D02*
G01*
X1981660Y524009D01*
X2070968Y524009D01*
X2105048Y524009D02*
G01*
X2092590Y511550D01*
X2092590Y436399D01*
X1950000Y401999D02*
G01*
X1988000Y439800D01*
X2033299Y439800D01*
X1910000Y511399D02*
G01*
X1910000Y485999D01*
X1935000Y460999D01*
X2549399Y800900D02*
G01*
X2550000Y681999D01*
X2320000Y681610D02*
G01*
X2328999Y672609D01*
X2328999Y605999D01*
X2320000Y596999D01*
X2320000Y458389D01*
X2552100Y522300D02*
G01*
X2548999Y525399D01*
X2548999Y573000D01*
X2540000Y581999D01*
X2320000Y581999D01*
X2483299Y543000D02*
G01*
X2483500Y581999D01*
X2530000Y610000D02*
G01*
X2530100Y581999D01*
X3096909Y714175D02*
G01*
X3096909Y659054D01*
X3096909Y659054D02*
G01*
X3096909Y603935D01*
X3152030Y714175D02*
G01*
X3152030Y659065D01*
X2745569Y824994D02*
G01*
X2721999Y848564D01*
X2721999Y884000D01*
X2733000Y895000D01*
X2741999Y895000D01*
X2748999Y901999D01*
X2748999Y928000D01*
X2731999Y945000D01*
X2725000Y945000D01*
X2655000Y950000D02*
G01*
X2631000Y925999D01*
X2631000Y841460D01*
X2631000Y841460D02*
G01*
X2607460Y865000D01*
X2301999Y865000D01*
X2284975Y847975D01*
X2252235Y847975D01*
X2410550Y681610D02*
G01*
X2343159Y749000D01*
X2240000Y749000D01*
X2221502Y767498D01*
X2221502Y774351D01*
X2221502Y774351D02*
G01*
X2202235Y793618D01*
X2202235Y847975D01*
X2152235Y847975D02*
G01*
X2140259Y835999D01*
X2053999Y835999D01*
X2022635Y804634D01*
X2022635Y773454D01*
X1969049Y698600D02*
G01*
X2000450Y730000D01*
X2051999Y730000D01*
X2056715Y734715D01*
X2056715Y773454D01*
X2102600Y774000D02*
G01*
X2056700Y773499D01*
X2102200Y697343D02*
G01*
X2136715Y731858D01*
X2136715Y774009D01*
X1949399Y698600D02*
G01*
X1949399Y718299D01*
X1979300Y748200D01*
X1979300Y774400D01*
X1910000Y698600D02*
G01*
X1910000Y721999D01*
X1901300Y730700D01*
X1901300Y774899D01*
X1275555Y768661D02*
G01*
X1280893Y774000D01*
X1783999Y774000D01*
X1840000Y830000D01*
X1840000Y830999D01*
X1845000Y835999D01*
X2053999Y835999D01*
X1226984Y737764D02*
G01*
X1257879Y768661D01*
X1275555Y768661D01*
X1157357Y651179D02*
G01*
X1160177Y654000D01*
X1205000Y654000D01*
X1226984Y675983D01*
X1226984Y737764D01*
X1157358Y625601D02*
G01*
X1249879Y625601D01*
X1256999Y618479D01*
X1157358Y600000D02*
G01*
X1224520Y600000D01*
X1241000Y583519D01*
X1389650Y838580D02*
G01*
X1720349Y838580D01*
X2059279Y697343D02*
G01*
X2025996Y664059D01*
X2003599Y664059D01*
X2003599Y644369D02*
G01*
X2003599Y664059D01*
X2122997Y580540D02*
G01*
X2136999Y566538D01*
X2136999Y546999D01*
X2122997Y623458D02*
G01*
X2141999Y642460D01*
X2141999Y648000D01*
X2165412Y476417D02*
G01*
X2165412Y516412D01*
X2203999Y555000D01*
X2141999Y648000D02*
G01*
X2128999Y661001D01*
X2067002Y661001D01*
X2059282Y668721D01*
X2059282Y697343D01*
X1241000Y583524D02*
G01*
X1246525Y578000D01*
X1281999Y578000D01*
X1256999Y618474D02*
G01*
X1261475Y614000D01*
X1286000Y614000D01*
X2003599Y624699D02*
G01*
X2049399Y624699D01*
X2064399Y609699D01*
X1720352Y578578D02*
G01*
X1699171Y557399D01*
X1610000Y557399D01*
X1389647Y661421D02*
G01*
X1391228Y663000D01*
X1470399Y663000D01*
X1241000Y524475D02*
G01*
X1241000Y501999D01*
X1256999Y677525D02*
G01*
X1256999Y704000D01*
X1268000Y715000D01*
X1275559Y811579D02*
G01*
X1255000Y832139D01*
X1255000Y843899D01*
X1226984Y796815D02*
G01*
X1213168Y783000D01*
X1201999Y783000D01*
X1114700Y854200D02*
G01*
X1083000Y854000D01*
X1389600Y838600D02*
G01*
X1358199Y870000D01*
X1236000Y870000D01*
X1116000Y750000D01*
X1116000Y405999D01*
X1143000Y379000D01*
X1250000Y379000D01*
X1264200Y364800D01*
X1264200Y339899D01*
X1157399Y548800D02*
G01*
X1193999Y549000D01*
X1105900Y341199D02*
G01*
X1143000Y340999D01*
X1221300Y339899D02*
G01*
X1188999Y340000D01*
X1054600Y639400D02*
G01*
X1055000Y680999D01*
X1054600Y560599D02*
G01*
X1055000Y518000D01*
X1389650Y401419D02*
G01*
X1321069Y470000D01*
X1265000Y470000D01*
X1389650Y401419D02*
G01*
X1321069Y470000D01*
X1221999Y470000D01*
X1213000Y479000D01*
X1213000Y479000D01*
X1389650Y401419D02*
G01*
X1445230Y456999D01*
X1648000Y456999D01*
X1703580Y401419D01*
X1720349Y401419D01*
X1795000Y828000D02*
G01*
X1855000Y888000D01*
X1855000Y950000D01*
X1062983Y341233D02*
G01*
X1022200Y382015D01*
X1022200Y384600D01*
X1055000Y250000D02*
G01*
X1062983Y257984D01*
X1062983Y341232D01*
X1223055Y425715D02*
G01*
X1218341Y420999D01*
X1173999Y420999D01*
X1157573Y854194D02*
G01*
X1180699Y877321D01*
X1180699Y900199D01*
X1890299Y511399D02*
G01*
X1888999Y510100D01*
X1888999Y478000D01*
X1906000Y460999D01*
X1906000Y450999D01*
X1950000Y406999D01*
X1950000Y401999D01*
X1636999Y524000D02*
G01*
X1646999Y534000D01*
X1701000Y534000D01*
X1746999Y534000D01*
X1766000Y534000D01*
X1780000Y548000D01*
X1780000Y741999D01*
X1841846Y357701D02*
G01*
X1829144Y345000D01*
X1675000Y345000D01*
X1630000Y390000D01*
X1630000Y400000D01*
X1595000Y435000D01*
X1495000Y435000D01*
X1475000Y415000D01*
X1475000Y380000D01*
X1460000Y365000D01*
X1434340Y365000D01*
X1409275Y339935D01*
X1264237Y339935D01*
X1840303Y372271D02*
G01*
X1920576Y291999D01*
X2290000Y291999D01*
X2311526Y313526D01*
X2311526Y337525D01*
X1865900Y447100D02*
G01*
X1865900Y439099D01*
X1936999Y368000D01*
X1950000Y368000D01*
X1814700Y447100D02*
G01*
X1814700Y435300D01*
X1833999Y415999D01*
X1858999Y415999D01*
X1935000Y340000D01*
X1970000Y340000D01*
X1975000Y345000D01*
X1975000Y380000D01*
X1995000Y400000D01*
X2055000Y400000D01*
X2065000Y410000D01*
X2065000Y518000D01*
X2071000Y524000D01*
X2066999Y361599D02*
G01*
X2014399Y309000D01*
X1945000Y309000D01*
X1852600Y401399D01*
X1720399Y401399D01*
X2003599Y585320D02*
G01*
X1929679Y585320D01*
X1910000Y605000D01*
X1929700Y511399D02*
G01*
X1929700Y494600D01*
X1943299Y480999D01*
X1971999Y480999D01*
X1981000Y471999D01*
X2003599Y605000D02*
G01*
X2030900Y605000D01*
X2054499Y581399D01*
X2054499Y574499D01*
X1389647Y578578D02*
G01*
X1389650Y578580D01*
X1470399Y663000D01*
X1720349Y578580D02*
G01*
X1720349Y661419D01*
X2199493Y476417D02*
G01*
X2215600Y492523D01*
X2215600Y511500D01*
X2269499Y565399D01*
X2269700Y565399D01*
D11*
X3454430Y954335D02*
G01*
X3454430Y880000D01*
X3404430Y954335D02*
G01*
X3404430Y880000D01*
D10*
X1155000Y950000D02*
G01*
X1180699Y924299D01*
X1180699Y900199D01*
X2480000Y686500D02*
G01*
X2480000Y693699D01*
X2423699Y750000D01*
X2390000Y750000D01*
X2350000Y790000D01*
D12*
G01*
X2092590Y436399D03*
G01*
X2041409Y436399D03*
G01*
X2066999Y361599D03*
G01*
X1865889Y447069D03*
G01*
X1814709Y447069D03*
G01*
X1840299Y372269D03*
D13*
G01*
X2221503Y774351D03*
G01*
X2264421Y774351D03*
D14*
G01*
X2480000Y643541D03*
D15*
G01*
X2480000Y686460D03*
D13*
G01*
X2059281Y697343D03*
G01*
X2102199Y697343D03*
D14*
G01*
X2123000Y580540D03*
D15*
G01*
X2123000Y623460D03*
D14*
G01*
X1275554Y768661D03*
D15*
G01*
X1275559Y811579D03*
D13*
G01*
X1062984Y341232D03*
G01*
X1105902Y341232D03*
D16*
G01*
X1157569Y854194D03*
G01*
X1114651Y854194D03*
D14*
G01*
X2670000Y613541D03*
D15*
G01*
X2670000Y656460D03*
D14*
G01*
X2190554Y424358D03*
D15*
G01*
X2190559Y381439D03*
D14*
G01*
X2630999Y841458D03*
D15*
G01*
X2631000Y798539D03*
D16*
G01*
X1264236Y339936D03*
G01*
X1221318Y339936D03*
D17*
G01*
X2552107Y522324D03*
G01*
X2630850Y522324D03*
D18*
G01*
X1226980Y796810D03*
G01*
X1226980Y737759D03*
G01*
X1256999Y677519D03*
G01*
X1256999Y618470D03*
G01*
X1241000Y524470D03*
G01*
X1241000Y583519D03*
D19*
G01*
X1157356Y548800D03*
G01*
X1157356Y574400D03*
D20*
G01*
X1157359Y600000D03*
D19*
G01*
X1157356Y625599D03*
D21*
G01*
X1157356Y651180D03*
D22*
G01*
X1054600Y560630D03*
G01*
X1054610Y639369D03*
D23*
G01*
X2466662Y800914D03*
D24*
G01*
X2549359Y800909D03*
D23*
G01*
X2472959Y399618D03*
D24*
G01*
X2555659Y399619D03*
D25*
G01*
X2550000Y647959D03*
D26*
G01*
X2550000Y682040D03*
D25*
G01*
X2483285Y543038D03*
D26*
G01*
X2483289Y508960D03*
D27*
G01*
X1945227Y774380D03*
G01*
X1979308Y774380D03*
D28*
G01*
X1489308Y329194D03*
G01*
X1455227Y329194D03*
G01*
X1590974Y331232D03*
G01*
X1556893Y331232D03*
G01*
X2105048Y524010D03*
G01*
X2070967Y524010D03*
D27*
G01*
X2022634Y773453D03*
G01*
X2056715Y773453D03*
D28*
G01*
X1901345Y774936D03*
G01*
X1867264Y774936D03*
D25*
G01*
X1950000Y367959D03*
D26*
G01*
X1950000Y402040D03*
D27*
G01*
X2102634Y774010D03*
G01*
X2136715Y774010D03*
G01*
X2165412Y476416D03*
G01*
X2199493Y476416D03*
D25*
G01*
X2357453Y337154D03*
D26*
G01*
X2357449Y371239D03*
D25*
G01*
X2311527Y337524D03*
D26*
G01*
X2311530Y371610D03*
D29*
G01*
X2410550Y681610D03*
G01*
X2320000Y681610D03*
G01*
X2229449Y681610D03*
D30*
G01*
X2320000Y458386D03*
D31*
G01*
X2003599Y545949D03*
G01*
X2003599Y565630D03*
G01*
X2003599Y585320D03*
G01*
X2003599Y605000D03*
G01*
X2003599Y624690D03*
G01*
X2003599Y644369D03*
G01*
X2003599Y664059D03*
D32*
G01*
X1969049Y698600D03*
G01*
X1949369Y698600D03*
G01*
X1929679Y698600D03*
G01*
X1910000Y698600D03*
G01*
X1890309Y698600D03*
G01*
X1870630Y698600D03*
G01*
X1850940Y698600D03*
D31*
G01*
X1816400Y664059D03*
G01*
X1816400Y644369D03*
G01*
X1816400Y624690D03*
G01*
X1816400Y605000D03*
G01*
X1816400Y585320D03*
G01*
X1816400Y565630D03*
G01*
X1816400Y545949D03*
D32*
G01*
X1850940Y511399D03*
G01*
X1870630Y511399D03*
G01*
X1890309Y511399D03*
G01*
X1910000Y511399D03*
G01*
X1929679Y511399D03*
G01*
X1949369Y511399D03*
G01*
X1969049Y511399D03*
D33*
G01*
X1910000Y605000D03*
D34*
G01*
X3454430Y954329D03*
G01*
X3404430Y954329D03*
G01*
X3354430Y954329D03*
G01*
X3304430Y954329D03*
G01*
X3254430Y954329D03*
G01*
X3204430Y954329D03*
G01*
X3154430Y954329D03*
G01*
X3104430Y954329D03*
G01*
X3054430Y954329D03*
G01*
X3004430Y954329D03*
G01*
X2954430Y954329D03*
G01*
X2904430Y954329D03*
G01*
X2854430Y954329D03*
G01*
X2804430Y954329D03*
D35*
G01*
X2745569Y824989D03*
G01*
X2745569Y774989D03*
G01*
X2745569Y724989D03*
G01*
X2745569Y674989D03*
G01*
X2745569Y624989D03*
G01*
X2745569Y574989D03*
G01*
X2745569Y524989D03*
G01*
X2745569Y474989D03*
G01*
X2745569Y424989D03*
G01*
X2745569Y374989D03*
D34*
G01*
X2804430Y245670D03*
G01*
X2854430Y245670D03*
G01*
X2904430Y245670D03*
G01*
X2954430Y245670D03*
G01*
X3004430Y245670D03*
G01*
X3054430Y245670D03*
G01*
X3104430Y245670D03*
G01*
X3154430Y245670D03*
G01*
X3204430Y245670D03*
G01*
X3254430Y245670D03*
G01*
X3304430Y245670D03*
G01*
X3354430Y245670D03*
G01*
X3404430Y245670D03*
G01*
X3454430Y245670D03*
D36*
G01*
X3152030Y659059D03*
G01*
X3152030Y714169D03*
G01*
X3152030Y603939D03*
G01*
X3207150Y603939D03*
G01*
X3207150Y659050D03*
G01*
X3207150Y714169D03*
G01*
X3096909Y714169D03*
G01*
X3096909Y659050D03*
G01*
X3096909Y603939D03*
D37*
G01*
X1720349Y401419D03*
G01*
X1389650Y401419D03*
G01*
X1720349Y578580D03*
G01*
X1389650Y578580D03*
G01*
X1389650Y838580D03*
G01*
X1720349Y838580D03*
G01*
X1389650Y661419D03*
G01*
X1720349Y661419D03*
D38*
G01*
X1055000Y950000D03*
D39*
G01*
X1155000Y950000D03*
G01*
X1255000Y950000D03*
G01*
X1355000Y950000D03*
G01*
X1455000Y950000D03*
G01*
X1555000Y950000D03*
G01*
X1655000Y950000D03*
G01*
X1755000Y950000D03*
G01*
X1855000Y950000D03*
G01*
X1955000Y950000D03*
G01*
X2055000Y950000D03*
G01*
X2155000Y950000D03*
G01*
X2255000Y950000D03*
G01*
X2355000Y950000D03*
G01*
X2455000Y950000D03*
G01*
X2555000Y950000D03*
G01*
X2655000Y950000D03*
D38*
G01*
X1055000Y250000D03*
D39*
G01*
X1155000Y250000D03*
G01*
X1255000Y250000D03*
G01*
X1355000Y250000D03*
G01*
X1455000Y250000D03*
G01*
X1555000Y250000D03*
G01*
X1655000Y250000D03*
G01*
X1755000Y250000D03*
G01*
X1855000Y250000D03*
G01*
X1955000Y250000D03*
G01*
X2055000Y250000D03*
G01*
X2155000Y250000D03*
G01*
X2255000Y250000D03*
G01*
X2355000Y250000D03*
G01*
X2455000Y250000D03*
G01*
X2555000Y250000D03*
G01*
X2655000Y250000D03*
D40*
G01*
X2152240Y847970D03*
G01*
X2202240Y847970D03*
G01*
X2252240Y847970D03*
D41*
G01*
X1158149Y698420D03*
G01*
X1158149Y501570D03*
D42*
G01*
X1051859Y462199D03*
G01*
X1051859Y737800D03*
D43*
G01*
X1223059Y425709D03*
D40*
G01*
X1273059Y425709D03*
D44*
G01*
X2804430Y310000D03*
G01*
X2854430Y310000D03*
G01*
X2904430Y310000D03*
G01*
X2954430Y310000D03*
G01*
X3004430Y310000D03*
G01*
X3054430Y310000D03*
G01*
X3104430Y310000D03*
G01*
X3204430Y310000D03*
G01*
X3254430Y310000D03*
G01*
X3304430Y310000D03*
G01*
X3354430Y310000D03*
G01*
X3404430Y310000D03*
G01*
X3454430Y310000D03*
G01*
X3454430Y880000D03*
G01*
X3404430Y880000D03*
G01*
X3354430Y880000D03*
G01*
X3304430Y880000D03*
G01*
X3254430Y880000D03*
G01*
X3204430Y880000D03*
G01*
X3154430Y880000D03*
G01*
X3104430Y880000D03*
G01*
X3054430Y880000D03*
G01*
X3004430Y880000D03*
G01*
X2954430Y880000D03*
G01*
X2904430Y880000D03*
G01*
X2854430Y880000D03*
G01*
X2804430Y880000D03*
G01*
X2706999Y910000D03*
G01*
X2350000Y790000D03*
G01*
X2405000Y785000D03*
D45*
G01*
X2165000Y625000D03*
G01*
X1867269Y735000D03*
D44*
G01*
X1931000Y740999D03*
D45*
G01*
X2630000Y635000D03*
G01*
X2600000Y635000D03*
D44*
G01*
X2710000Y280000D03*
G01*
X2520000Y305000D03*
D45*
G01*
X2245000Y390000D03*
G01*
X2410439Y420000D03*
D44*
G01*
X1981000Y471999D03*
D45*
G01*
X2275000Y650000D03*
G01*
X2530000Y610000D03*
G01*
X2595000Y600000D03*
G01*
X2630000Y600000D03*
D44*
G01*
X1580000Y400000D03*
G01*
X1515000Y400000D03*
D46*
G01*
X1935000Y460999D03*
G01*
X3125000Y603000D03*
D44*
G01*
X3152030Y603930D03*
G01*
X3206000Y630999D03*
G01*
X3205000Y685999D03*
G01*
X3180000Y656999D03*
G01*
X3180000Y601999D03*
G01*
X3151999Y630999D03*
G01*
X2725000Y945000D03*
D45*
G01*
X2064399Y609699D03*
G01*
X2054499Y574499D03*
G01*
X2136999Y546999D03*
G01*
X2141999Y648000D03*
G01*
X2203999Y555000D03*
D44*
G01*
X1281999Y578000D03*
G01*
X1286000Y614000D03*
D45*
G01*
X1867299Y557500D03*
G01*
X1910900Y557699D03*
D44*
G01*
X1610000Y557399D03*
D45*
G01*
X1952700Y556799D03*
D44*
G01*
X1470399Y663000D03*
G01*
X1268000Y715000D03*
G01*
X1241000Y501999D03*
G01*
X1083000Y854000D03*
G01*
X1201999Y783000D03*
G01*
X1255000Y843899D03*
G01*
X1193999Y549000D03*
G01*
X1143000Y340999D03*
G01*
X1188999Y340000D03*
G01*
X1055000Y518000D03*
G01*
X1055000Y680999D03*
G01*
X1303729Y506999D03*
G01*
X1376999Y723899D03*
G01*
X1448999Y485999D03*
G01*
X1493999Y488000D03*
G01*
X1213000Y479000D03*
G01*
X1636999Y524000D03*
G01*
X1780000Y741999D03*
G01*
X1795000Y828000D03*
G01*
X1022200Y384600D03*
G01*
X1173999Y420999D03*
G01*
X1180699Y900199D03*
D45*
G01*
X2269499Y565399D03*
M02*
