G04 Layer: InnerLayer2*
G04 EasyEDA v6.5.42, 2024-04-08 08:38:15*
G04 e5b43dc0649c40c7af9ec927a61642e9,25835901624346e3b29966769a4e042a,10*
G04 Gerber Generator version 0.2*
G04 Scale: 100 percent, Rotated: No, Reflected: No *
G04 Dimensions in inches *
G04 leading zeros omitted , absolute positions ,3 integer and 6 decimal *
%FSLAX36Y36*%
%MOIN*%

%AMMACRO1*21,1,$1,$2,0,0,$3*%
%ADD10MACRO1,0.063X0.063X0.0000*%
%ADD11C,0.0630*%
%ADD12C,0.0394*%
%ADD13C,0.0532*%
%ADD14O,0.074803X0.047240000000000004*%
%ADD15R,0.0394X0.0394*%
%ADD16C,0.0244*%
%ADD17C,0.0200*%
%ADD18C,0.0240*%
%ADD19C,0.0117*%

%LPD*%
G36*
X1000000Y200000D02*
G01*
X1000000Y1000000D01*
X3500000Y1000000D01*
X3500000Y200000D01*
G37*

%LPC*%
G36*
X2655000Y214403D02*
G01*
X2656693Y214443D01*
X2658383Y214564D01*
X2660065Y214765D01*
X2661737Y215046D01*
X2663392Y215407D01*
X2665029Y215846D01*
X2666642Y216361D01*
X2668230Y216954D01*
X2669786Y217620D01*
X2671310Y218360D01*
X2672798Y219173D01*
X2674245Y220055D01*
X2675648Y221003D01*
X2677003Y222020D01*
X2678310Y223097D01*
X2679564Y224238D01*
X2680762Y225435D01*
X2681902Y226689D01*
X2682979Y227995D01*
X2683995Y229351D01*
X2684944Y230754D01*
X2685826Y232202D01*
X2686638Y233688D01*
X2687379Y235212D01*
X2688046Y236770D01*
X2688638Y238357D01*
X2689153Y239971D01*
X2689593Y241608D01*
X2689952Y243263D01*
X2690234Y244933D01*
X2690434Y246615D01*
X2690555Y248305D01*
X2690595Y250000D01*
X2690555Y251694D01*
X2690434Y253384D01*
X2690234Y255066D01*
X2689952Y256736D01*
X2689593Y258391D01*
X2689153Y260028D01*
X2688638Y261642D01*
X2688046Y263229D01*
X2687379Y264787D01*
X2686638Y266311D01*
X2685826Y267797D01*
X2684944Y269245D01*
X2683995Y270648D01*
X2682979Y272004D01*
X2681902Y273310D01*
X2680762Y274564D01*
X2679564Y275761D01*
X2678310Y276902D01*
X2677003Y277979D01*
X2675648Y278996D01*
X2674245Y279944D01*
X2672798Y280826D01*
X2671310Y281639D01*
X2669786Y282379D01*
X2668230Y283045D01*
X2666642Y283638D01*
X2665029Y284153D01*
X2663392Y284592D01*
X2661737Y284953D01*
X2660065Y285234D01*
X2658383Y285435D01*
X2656693Y285556D01*
X2655000Y285596D01*
X2653306Y285556D01*
X2651616Y285435D01*
X2649934Y285234D01*
X2648262Y284953D01*
X2646607Y284592D01*
X2644970Y284153D01*
X2643357Y283638D01*
X2641769Y283045D01*
X2640213Y282379D01*
X2638689Y281639D01*
X2637201Y280826D01*
X2635754Y279944D01*
X2634351Y278996D01*
X2632996Y277979D01*
X2631689Y276902D01*
X2630435Y275761D01*
X2629237Y274564D01*
X2628098Y273310D01*
X2627020Y272004D01*
X2626004Y270648D01*
X2625055Y269245D01*
X2624173Y267797D01*
X2623361Y266311D01*
X2622620Y264787D01*
X2621953Y263229D01*
X2621361Y261642D01*
X2620846Y260028D01*
X2620406Y258391D01*
X2620047Y256736D01*
X2619765Y255066D01*
X2619565Y253384D01*
X2619444Y251694D01*
X2619404Y250000D01*
X2619444Y248305D01*
X2619565Y246615D01*
X2619765Y244933D01*
X2620047Y243263D01*
X2620406Y241608D01*
X2620846Y239971D01*
X2621361Y238357D01*
X2621953Y236770D01*
X2622620Y235212D01*
X2623361Y233688D01*
X2624173Y232202D01*
X2625055Y230754D01*
X2626004Y229351D01*
X2627020Y227995D01*
X2628098Y226689D01*
X2629237Y225435D01*
X2630435Y224238D01*
X2631689Y223097D01*
X2632996Y222020D01*
X2634351Y221003D01*
X2635754Y220055D01*
X2637201Y219173D01*
X2638689Y218360D01*
X2640213Y217620D01*
X2641769Y216954D01*
X2643357Y216361D01*
X2644970Y215846D01*
X2646607Y215407D01*
X2648262Y215046D01*
X2649934Y214765D01*
X2651616Y214564D01*
X2653306Y214443D01*
G37*
G36*
X2555000Y214403D02*
G01*
X2556693Y214443D01*
X2558383Y214564D01*
X2560065Y214765D01*
X2561737Y215046D01*
X2563392Y215407D01*
X2565029Y215846D01*
X2566642Y216361D01*
X2568230Y216954D01*
X2569786Y217620D01*
X2571310Y218360D01*
X2572798Y219173D01*
X2574245Y220055D01*
X2575648Y221003D01*
X2577003Y222020D01*
X2578310Y223097D01*
X2579564Y224238D01*
X2580762Y225435D01*
X2581902Y226689D01*
X2582979Y227995D01*
X2583995Y229351D01*
X2584944Y230754D01*
X2585826Y232202D01*
X2586638Y233688D01*
X2587379Y235212D01*
X2588046Y236770D01*
X2588638Y238357D01*
X2589153Y239971D01*
X2589593Y241608D01*
X2589952Y243263D01*
X2590234Y244933D01*
X2590434Y246615D01*
X2590555Y248305D01*
X2590595Y250000D01*
X2590555Y251694D01*
X2590434Y253384D01*
X2590234Y255066D01*
X2589952Y256736D01*
X2589593Y258391D01*
X2589153Y260028D01*
X2588638Y261642D01*
X2588046Y263229D01*
X2587379Y264787D01*
X2586638Y266311D01*
X2585826Y267797D01*
X2584944Y269245D01*
X2583995Y270648D01*
X2582979Y272004D01*
X2581902Y273310D01*
X2580762Y274564D01*
X2579564Y275761D01*
X2578310Y276902D01*
X2577003Y277979D01*
X2575648Y278996D01*
X2574245Y279944D01*
X2572798Y280826D01*
X2571310Y281639D01*
X2569786Y282379D01*
X2568230Y283045D01*
X2566642Y283638D01*
X2565029Y284153D01*
X2563392Y284592D01*
X2561737Y284953D01*
X2560065Y285234D01*
X2558383Y285435D01*
X2556693Y285556D01*
X2555000Y285596D01*
X2553306Y285556D01*
X2551616Y285435D01*
X2549934Y285234D01*
X2548262Y284953D01*
X2546607Y284592D01*
X2544970Y284153D01*
X2543357Y283638D01*
X2541769Y283045D01*
X2540213Y282379D01*
X2538689Y281639D01*
X2537201Y280826D01*
X2535754Y279944D01*
X2534351Y278996D01*
X2532996Y277979D01*
X2531689Y276902D01*
X2530435Y275761D01*
X2529237Y274564D01*
X2528098Y273310D01*
X2527020Y272004D01*
X2526004Y270648D01*
X2525055Y269245D01*
X2524173Y267797D01*
X2523361Y266311D01*
X2522620Y264787D01*
X2521953Y263229D01*
X2521361Y261642D01*
X2520846Y260028D01*
X2520406Y258391D01*
X2520047Y256736D01*
X2519765Y255066D01*
X2519565Y253384D01*
X2519444Y251694D01*
X2519404Y250000D01*
X2519444Y248305D01*
X2519565Y246615D01*
X2519765Y244933D01*
X2520047Y243263D01*
X2520406Y241608D01*
X2520846Y239971D01*
X2521361Y238357D01*
X2521953Y236770D01*
X2522620Y235212D01*
X2523361Y233688D01*
X2524173Y232202D01*
X2525055Y230754D01*
X2526004Y229351D01*
X2527020Y227995D01*
X2528098Y226689D01*
X2529237Y225435D01*
X2530435Y224238D01*
X2531689Y223097D01*
X2532996Y222020D01*
X2534351Y221003D01*
X2535754Y220055D01*
X2537201Y219173D01*
X2538689Y218360D01*
X2540213Y217620D01*
X2541769Y216954D01*
X2543357Y216361D01*
X2544970Y215846D01*
X2546607Y215407D01*
X2548262Y215046D01*
X2549934Y214765D01*
X2551616Y214564D01*
X2553306Y214443D01*
G37*
G36*
X2455000Y214403D02*
G01*
X2456693Y214443D01*
X2458383Y214564D01*
X2460065Y214765D01*
X2461737Y215046D01*
X2463392Y215407D01*
X2465029Y215846D01*
X2466642Y216361D01*
X2468230Y216954D01*
X2469786Y217620D01*
X2471310Y218360D01*
X2472798Y219173D01*
X2474245Y220055D01*
X2475648Y221003D01*
X2477003Y222020D01*
X2478310Y223097D01*
X2479564Y224238D01*
X2480762Y225435D01*
X2481902Y226689D01*
X2482979Y227995D01*
X2483995Y229351D01*
X2484944Y230754D01*
X2485826Y232202D01*
X2486638Y233688D01*
X2487379Y235212D01*
X2488046Y236770D01*
X2488638Y238357D01*
X2489153Y239971D01*
X2489593Y241608D01*
X2489952Y243263D01*
X2490234Y244933D01*
X2490434Y246615D01*
X2490555Y248305D01*
X2490595Y250000D01*
X2490555Y251694D01*
X2490434Y253384D01*
X2490234Y255066D01*
X2489952Y256736D01*
X2489593Y258391D01*
X2489153Y260028D01*
X2488638Y261642D01*
X2488046Y263229D01*
X2487379Y264787D01*
X2486638Y266311D01*
X2485826Y267797D01*
X2484944Y269245D01*
X2483995Y270648D01*
X2482979Y272004D01*
X2481902Y273310D01*
X2480762Y274564D01*
X2479564Y275761D01*
X2478310Y276902D01*
X2477003Y277979D01*
X2475648Y278996D01*
X2474245Y279944D01*
X2472798Y280826D01*
X2471310Y281639D01*
X2469786Y282379D01*
X2468230Y283045D01*
X2466642Y283638D01*
X2465029Y284153D01*
X2463392Y284592D01*
X2461737Y284953D01*
X2460065Y285234D01*
X2458383Y285435D01*
X2456693Y285556D01*
X2455000Y285596D01*
X2453306Y285556D01*
X2451616Y285435D01*
X2449934Y285234D01*
X2448262Y284953D01*
X2446607Y284592D01*
X2444970Y284153D01*
X2443357Y283638D01*
X2441769Y283045D01*
X2440213Y282379D01*
X2438689Y281639D01*
X2437201Y280826D01*
X2435754Y279944D01*
X2434351Y278996D01*
X2432996Y277979D01*
X2431689Y276902D01*
X2430435Y275761D01*
X2429237Y274564D01*
X2428098Y273310D01*
X2427020Y272004D01*
X2426004Y270648D01*
X2425055Y269245D01*
X2424173Y267797D01*
X2423361Y266311D01*
X2422620Y264787D01*
X2421953Y263229D01*
X2421361Y261642D01*
X2420846Y260028D01*
X2420406Y258391D01*
X2420047Y256736D01*
X2419765Y255066D01*
X2419565Y253384D01*
X2419444Y251694D01*
X2419404Y250000D01*
X2419444Y248305D01*
X2419565Y246615D01*
X2419765Y244933D01*
X2420047Y243263D01*
X2420406Y241608D01*
X2420846Y239971D01*
X2421361Y238357D01*
X2421953Y236770D01*
X2422620Y235212D01*
X2423361Y233688D01*
X2424173Y232202D01*
X2425055Y230754D01*
X2426004Y229351D01*
X2427020Y227995D01*
X2428098Y226689D01*
X2429237Y225435D01*
X2430435Y224238D01*
X2431689Y223097D01*
X2432996Y222020D01*
X2434351Y221003D01*
X2435754Y220055D01*
X2437201Y219173D01*
X2438689Y218360D01*
X2440213Y217620D01*
X2441769Y216954D01*
X2443357Y216361D01*
X2444970Y215846D01*
X2446607Y215407D01*
X2448262Y215046D01*
X2449934Y214765D01*
X2451616Y214564D01*
X2453306Y214443D01*
G37*
G36*
X2355000Y214403D02*
G01*
X2356693Y214443D01*
X2358383Y214564D01*
X2360065Y214765D01*
X2361737Y215046D01*
X2363392Y215407D01*
X2365029Y215846D01*
X2366642Y216361D01*
X2368230Y216954D01*
X2369786Y217620D01*
X2371310Y218360D01*
X2372798Y219173D01*
X2374245Y220055D01*
X2375648Y221003D01*
X2377003Y222020D01*
X2378310Y223097D01*
X2379564Y224238D01*
X2380762Y225435D01*
X2381902Y226689D01*
X2382979Y227995D01*
X2383995Y229351D01*
X2384944Y230754D01*
X2385826Y232202D01*
X2386638Y233688D01*
X2387379Y235212D01*
X2388046Y236770D01*
X2388638Y238357D01*
X2389153Y239971D01*
X2389593Y241608D01*
X2389952Y243263D01*
X2390234Y244933D01*
X2390434Y246615D01*
X2390555Y248305D01*
X2390595Y250000D01*
X2390555Y251694D01*
X2390434Y253384D01*
X2390234Y255066D01*
X2389952Y256736D01*
X2389593Y258391D01*
X2389153Y260028D01*
X2388638Y261642D01*
X2388046Y263229D01*
X2387379Y264787D01*
X2386638Y266311D01*
X2385826Y267797D01*
X2384944Y269245D01*
X2383995Y270648D01*
X2382979Y272004D01*
X2381902Y273310D01*
X2380762Y274564D01*
X2379564Y275761D01*
X2378310Y276902D01*
X2377003Y277979D01*
X2375648Y278996D01*
X2374245Y279944D01*
X2372798Y280826D01*
X2371310Y281639D01*
X2369786Y282379D01*
X2368230Y283045D01*
X2366642Y283638D01*
X2365029Y284153D01*
X2363392Y284592D01*
X2361737Y284953D01*
X2360065Y285234D01*
X2358383Y285435D01*
X2356693Y285556D01*
X2355000Y285596D01*
X2353306Y285556D01*
X2351616Y285435D01*
X2349934Y285234D01*
X2348262Y284953D01*
X2346607Y284592D01*
X2344970Y284153D01*
X2343357Y283638D01*
X2341769Y283045D01*
X2340213Y282379D01*
X2338689Y281639D01*
X2337201Y280826D01*
X2335754Y279944D01*
X2334351Y278996D01*
X2332996Y277979D01*
X2331689Y276902D01*
X2330435Y275761D01*
X2329237Y274564D01*
X2328098Y273310D01*
X2327020Y272004D01*
X2326004Y270648D01*
X2325055Y269245D01*
X2324173Y267797D01*
X2323361Y266311D01*
X2322620Y264787D01*
X2321953Y263229D01*
X2321361Y261642D01*
X2320846Y260028D01*
X2320406Y258391D01*
X2320047Y256736D01*
X2319765Y255066D01*
X2319565Y253384D01*
X2319444Y251694D01*
X2319404Y250000D01*
X2319444Y248305D01*
X2319565Y246615D01*
X2319765Y244933D01*
X2320047Y243263D01*
X2320406Y241608D01*
X2320846Y239971D01*
X2321361Y238357D01*
X2321953Y236770D01*
X2322620Y235212D01*
X2323361Y233688D01*
X2324173Y232202D01*
X2325055Y230754D01*
X2326004Y229351D01*
X2327020Y227995D01*
X2328098Y226689D01*
X2329237Y225435D01*
X2330435Y224238D01*
X2331689Y223097D01*
X2332996Y222020D01*
X2334351Y221003D01*
X2335754Y220055D01*
X2337201Y219173D01*
X2338689Y218360D01*
X2340213Y217620D01*
X2341769Y216954D01*
X2343357Y216361D01*
X2344970Y215846D01*
X2346607Y215407D01*
X2348262Y215046D01*
X2349934Y214765D01*
X2351616Y214564D01*
X2353306Y214443D01*
G37*
G36*
X2255000Y214403D02*
G01*
X2256693Y214443D01*
X2258383Y214564D01*
X2260065Y214765D01*
X2261737Y215046D01*
X2263392Y215407D01*
X2265029Y215846D01*
X2266642Y216361D01*
X2268230Y216954D01*
X2269786Y217620D01*
X2271310Y218360D01*
X2272798Y219173D01*
X2274245Y220055D01*
X2275648Y221003D01*
X2277003Y222020D01*
X2278310Y223097D01*
X2279564Y224238D01*
X2280762Y225435D01*
X2281902Y226689D01*
X2282979Y227995D01*
X2283995Y229351D01*
X2284944Y230754D01*
X2285826Y232202D01*
X2286638Y233688D01*
X2287379Y235212D01*
X2288046Y236770D01*
X2288638Y238357D01*
X2289153Y239971D01*
X2289593Y241608D01*
X2289952Y243263D01*
X2290234Y244933D01*
X2290434Y246615D01*
X2290555Y248305D01*
X2290595Y250000D01*
X2290555Y251694D01*
X2290434Y253384D01*
X2290234Y255066D01*
X2289952Y256736D01*
X2289593Y258391D01*
X2289153Y260028D01*
X2288638Y261642D01*
X2288046Y263229D01*
X2287379Y264787D01*
X2286638Y266311D01*
X2285826Y267797D01*
X2284944Y269245D01*
X2283995Y270648D01*
X2282979Y272004D01*
X2281902Y273310D01*
X2280762Y274564D01*
X2279564Y275761D01*
X2278310Y276902D01*
X2277003Y277979D01*
X2275648Y278996D01*
X2274245Y279944D01*
X2272798Y280826D01*
X2271310Y281639D01*
X2269786Y282379D01*
X2268230Y283045D01*
X2266642Y283638D01*
X2265029Y284153D01*
X2263392Y284592D01*
X2261737Y284953D01*
X2260065Y285234D01*
X2258383Y285435D01*
X2256693Y285556D01*
X2255000Y285596D01*
X2253306Y285556D01*
X2251616Y285435D01*
X2249934Y285234D01*
X2248262Y284953D01*
X2246607Y284592D01*
X2244970Y284153D01*
X2243357Y283638D01*
X2241769Y283045D01*
X2240213Y282379D01*
X2238689Y281639D01*
X2237201Y280826D01*
X2235754Y279944D01*
X2234351Y278996D01*
X2232996Y277979D01*
X2231689Y276902D01*
X2230435Y275761D01*
X2229237Y274564D01*
X2228098Y273310D01*
X2227020Y272004D01*
X2226004Y270648D01*
X2225055Y269245D01*
X2224173Y267797D01*
X2223361Y266311D01*
X2222620Y264787D01*
X2221953Y263229D01*
X2221361Y261642D01*
X2220846Y260028D01*
X2220406Y258391D01*
X2220047Y256736D01*
X2219765Y255066D01*
X2219565Y253384D01*
X2219444Y251694D01*
X2219404Y250000D01*
X2219444Y248305D01*
X2219565Y246615D01*
X2219765Y244933D01*
X2220047Y243263D01*
X2220406Y241608D01*
X2220846Y239971D01*
X2221361Y238357D01*
X2221953Y236770D01*
X2222620Y235212D01*
X2223361Y233688D01*
X2224173Y232202D01*
X2225055Y230754D01*
X2226004Y229351D01*
X2227020Y227995D01*
X2228098Y226689D01*
X2229237Y225435D01*
X2230435Y224238D01*
X2231689Y223097D01*
X2232996Y222020D01*
X2234351Y221003D01*
X2235754Y220055D01*
X2237201Y219173D01*
X2238689Y218360D01*
X2240213Y217620D01*
X2241769Y216954D01*
X2243357Y216361D01*
X2244970Y215846D01*
X2246607Y215407D01*
X2248262Y215046D01*
X2249934Y214765D01*
X2251616Y214564D01*
X2253306Y214443D01*
G37*
G36*
X2155000Y214403D02*
G01*
X2156693Y214443D01*
X2158383Y214564D01*
X2160065Y214765D01*
X2161737Y215046D01*
X2163392Y215407D01*
X2165029Y215846D01*
X2166642Y216361D01*
X2168230Y216954D01*
X2169786Y217620D01*
X2171310Y218360D01*
X2172798Y219173D01*
X2174245Y220055D01*
X2175648Y221003D01*
X2177003Y222020D01*
X2178310Y223097D01*
X2179564Y224238D01*
X2180762Y225435D01*
X2181902Y226689D01*
X2182979Y227995D01*
X2183995Y229351D01*
X2184944Y230754D01*
X2185826Y232202D01*
X2186638Y233688D01*
X2187379Y235212D01*
X2188046Y236770D01*
X2188638Y238357D01*
X2189153Y239971D01*
X2189593Y241608D01*
X2189952Y243263D01*
X2190234Y244933D01*
X2190434Y246615D01*
X2190555Y248305D01*
X2190595Y250000D01*
X2190555Y251694D01*
X2190434Y253384D01*
X2190234Y255066D01*
X2189952Y256736D01*
X2189593Y258391D01*
X2189153Y260028D01*
X2188638Y261642D01*
X2188046Y263229D01*
X2187379Y264787D01*
X2186638Y266311D01*
X2185826Y267797D01*
X2184944Y269245D01*
X2183995Y270648D01*
X2182979Y272004D01*
X2181902Y273310D01*
X2180762Y274564D01*
X2179564Y275761D01*
X2178310Y276902D01*
X2177003Y277979D01*
X2175648Y278996D01*
X2174245Y279944D01*
X2172798Y280826D01*
X2171310Y281639D01*
X2169786Y282379D01*
X2168230Y283045D01*
X2166642Y283638D01*
X2165029Y284153D01*
X2163392Y284592D01*
X2161737Y284953D01*
X2160065Y285234D01*
X2158383Y285435D01*
X2156693Y285556D01*
X2155000Y285596D01*
X2153306Y285556D01*
X2151616Y285435D01*
X2149934Y285234D01*
X2148262Y284953D01*
X2146607Y284592D01*
X2144970Y284153D01*
X2143357Y283638D01*
X2141769Y283045D01*
X2140213Y282379D01*
X2138689Y281639D01*
X2137201Y280826D01*
X2135754Y279944D01*
X2134351Y278996D01*
X2132996Y277979D01*
X2131689Y276902D01*
X2130435Y275761D01*
X2129237Y274564D01*
X2128098Y273310D01*
X2127020Y272004D01*
X2126004Y270648D01*
X2125055Y269245D01*
X2124173Y267797D01*
X2123361Y266311D01*
X2122620Y264787D01*
X2121953Y263229D01*
X2121361Y261642D01*
X2120846Y260028D01*
X2120406Y258391D01*
X2120047Y256736D01*
X2119765Y255066D01*
X2119565Y253384D01*
X2119444Y251694D01*
X2119404Y250000D01*
X2119444Y248305D01*
X2119565Y246615D01*
X2119765Y244933D01*
X2120047Y243263D01*
X2120406Y241608D01*
X2120846Y239971D01*
X2121361Y238357D01*
X2121953Y236770D01*
X2122620Y235212D01*
X2123361Y233688D01*
X2124173Y232202D01*
X2125055Y230754D01*
X2126004Y229351D01*
X2127020Y227995D01*
X2128098Y226689D01*
X2129237Y225435D01*
X2130435Y224238D01*
X2131689Y223097D01*
X2132996Y222020D01*
X2134351Y221003D01*
X2135754Y220055D01*
X2137201Y219173D01*
X2138689Y218360D01*
X2140213Y217620D01*
X2141769Y216954D01*
X2143357Y216361D01*
X2144970Y215846D01*
X2146607Y215407D01*
X2148262Y215046D01*
X2149934Y214765D01*
X2151616Y214564D01*
X2153306Y214443D01*
G37*
G36*
X2055000Y214403D02*
G01*
X2056693Y214443D01*
X2058383Y214564D01*
X2060065Y214765D01*
X2061737Y215046D01*
X2063392Y215407D01*
X2065029Y215846D01*
X2066642Y216361D01*
X2068230Y216954D01*
X2069786Y217620D01*
X2071310Y218360D01*
X2072798Y219173D01*
X2074245Y220055D01*
X2075648Y221003D01*
X2077003Y222020D01*
X2078310Y223097D01*
X2079564Y224238D01*
X2080762Y225435D01*
X2081902Y226689D01*
X2082979Y227995D01*
X2083995Y229351D01*
X2084944Y230754D01*
X2085826Y232202D01*
X2086638Y233688D01*
X2087379Y235212D01*
X2088046Y236770D01*
X2088638Y238357D01*
X2089153Y239971D01*
X2089593Y241608D01*
X2089952Y243263D01*
X2090234Y244933D01*
X2090434Y246615D01*
X2090555Y248305D01*
X2090595Y250000D01*
X2090555Y251694D01*
X2090434Y253384D01*
X2090234Y255066D01*
X2089952Y256736D01*
X2089593Y258391D01*
X2089153Y260028D01*
X2088638Y261642D01*
X2088046Y263229D01*
X2087379Y264787D01*
X2086638Y266311D01*
X2085826Y267797D01*
X2084944Y269245D01*
X2083995Y270648D01*
X2082979Y272004D01*
X2081902Y273310D01*
X2080762Y274564D01*
X2079564Y275761D01*
X2078310Y276902D01*
X2077003Y277979D01*
X2075648Y278996D01*
X2074245Y279944D01*
X2072798Y280826D01*
X2071310Y281639D01*
X2069786Y282379D01*
X2068230Y283045D01*
X2066642Y283638D01*
X2065029Y284153D01*
X2063392Y284592D01*
X2061737Y284953D01*
X2060065Y285234D01*
X2058383Y285435D01*
X2056693Y285556D01*
X2055000Y285596D01*
X2053306Y285556D01*
X2051616Y285435D01*
X2049934Y285234D01*
X2048262Y284953D01*
X2046607Y284592D01*
X2044970Y284153D01*
X2043357Y283638D01*
X2041769Y283045D01*
X2040213Y282379D01*
X2038689Y281639D01*
X2037201Y280826D01*
X2035754Y279944D01*
X2034351Y278996D01*
X2032996Y277979D01*
X2031689Y276902D01*
X2030435Y275761D01*
X2029237Y274564D01*
X2028098Y273310D01*
X2027020Y272004D01*
X2026004Y270648D01*
X2025055Y269245D01*
X2024173Y267797D01*
X2023361Y266311D01*
X2022620Y264787D01*
X2021953Y263229D01*
X2021361Y261642D01*
X2020846Y260028D01*
X2020406Y258391D01*
X2020047Y256736D01*
X2019765Y255066D01*
X2019565Y253384D01*
X2019444Y251694D01*
X2019404Y250000D01*
X2019444Y248305D01*
X2019565Y246615D01*
X2019765Y244933D01*
X2020047Y243263D01*
X2020406Y241608D01*
X2020846Y239971D01*
X2021361Y238357D01*
X2021953Y236770D01*
X2022620Y235212D01*
X2023361Y233688D01*
X2024173Y232202D01*
X2025055Y230754D01*
X2026004Y229351D01*
X2027020Y227995D01*
X2028098Y226689D01*
X2029237Y225435D01*
X2030435Y224238D01*
X2031689Y223097D01*
X2032996Y222020D01*
X2034351Y221003D01*
X2035754Y220055D01*
X2037201Y219173D01*
X2038689Y218360D01*
X2040213Y217620D01*
X2041769Y216954D01*
X2043357Y216361D01*
X2044970Y215846D01*
X2046607Y215407D01*
X2048262Y215046D01*
X2049934Y214765D01*
X2051616Y214564D01*
X2053306Y214443D01*
G37*
G36*
X1955000Y214403D02*
G01*
X1956693Y214443D01*
X1958383Y214564D01*
X1960065Y214765D01*
X1961737Y215046D01*
X1963392Y215407D01*
X1965029Y215846D01*
X1966642Y216361D01*
X1968230Y216954D01*
X1969786Y217620D01*
X1971310Y218360D01*
X1972798Y219173D01*
X1974245Y220055D01*
X1975648Y221003D01*
X1977003Y222020D01*
X1978310Y223097D01*
X1979564Y224238D01*
X1980762Y225435D01*
X1981902Y226689D01*
X1982979Y227995D01*
X1983995Y229351D01*
X1984944Y230754D01*
X1985826Y232202D01*
X1986638Y233688D01*
X1987379Y235212D01*
X1988046Y236770D01*
X1988638Y238357D01*
X1989153Y239971D01*
X1989593Y241608D01*
X1989952Y243263D01*
X1990234Y244933D01*
X1990434Y246615D01*
X1990555Y248305D01*
X1990595Y250000D01*
X1990555Y251694D01*
X1990434Y253384D01*
X1990234Y255066D01*
X1989952Y256736D01*
X1989593Y258391D01*
X1989153Y260028D01*
X1988638Y261642D01*
X1988046Y263229D01*
X1987379Y264787D01*
X1986638Y266311D01*
X1985826Y267797D01*
X1984944Y269245D01*
X1983995Y270648D01*
X1982979Y272004D01*
X1981902Y273310D01*
X1980762Y274564D01*
X1979564Y275761D01*
X1978310Y276902D01*
X1977003Y277979D01*
X1975648Y278996D01*
X1974245Y279944D01*
X1972798Y280826D01*
X1971310Y281639D01*
X1969786Y282379D01*
X1968230Y283045D01*
X1966642Y283638D01*
X1965029Y284153D01*
X1963392Y284592D01*
X1961737Y284953D01*
X1960065Y285234D01*
X1958383Y285435D01*
X1956693Y285556D01*
X1955000Y285596D01*
X1953306Y285556D01*
X1951616Y285435D01*
X1949934Y285234D01*
X1948262Y284953D01*
X1946607Y284592D01*
X1944970Y284153D01*
X1943357Y283638D01*
X1941769Y283045D01*
X1940213Y282379D01*
X1938689Y281639D01*
X1937201Y280826D01*
X1935754Y279944D01*
X1934351Y278996D01*
X1932996Y277979D01*
X1931689Y276902D01*
X1930435Y275761D01*
X1929237Y274564D01*
X1928098Y273310D01*
X1927020Y272004D01*
X1926004Y270648D01*
X1925055Y269245D01*
X1924173Y267797D01*
X1923361Y266311D01*
X1922620Y264787D01*
X1921953Y263229D01*
X1921361Y261642D01*
X1920846Y260028D01*
X1920406Y258391D01*
X1920047Y256736D01*
X1919765Y255066D01*
X1919565Y253384D01*
X1919444Y251694D01*
X1919404Y250000D01*
X1919444Y248305D01*
X1919565Y246615D01*
X1919765Y244933D01*
X1920047Y243263D01*
X1920406Y241608D01*
X1920846Y239971D01*
X1921361Y238357D01*
X1921953Y236770D01*
X1922620Y235212D01*
X1923361Y233688D01*
X1924173Y232202D01*
X1925055Y230754D01*
X1926004Y229351D01*
X1927020Y227995D01*
X1928098Y226689D01*
X1929237Y225435D01*
X1930435Y224238D01*
X1931689Y223097D01*
X1932996Y222020D01*
X1934351Y221003D01*
X1935754Y220055D01*
X1937201Y219173D01*
X1938689Y218360D01*
X1940213Y217620D01*
X1941769Y216954D01*
X1943357Y216361D01*
X1944970Y215846D01*
X1946607Y215407D01*
X1948262Y215046D01*
X1949934Y214765D01*
X1951616Y214564D01*
X1953306Y214443D01*
G37*
G36*
X1855000Y214403D02*
G01*
X1856693Y214443D01*
X1858383Y214564D01*
X1860065Y214765D01*
X1861737Y215046D01*
X1863392Y215407D01*
X1865029Y215846D01*
X1866642Y216361D01*
X1868230Y216954D01*
X1869786Y217620D01*
X1871310Y218360D01*
X1872798Y219173D01*
X1874245Y220055D01*
X1875648Y221003D01*
X1877003Y222020D01*
X1878310Y223097D01*
X1879564Y224238D01*
X1880762Y225435D01*
X1881902Y226689D01*
X1882979Y227995D01*
X1883995Y229351D01*
X1884944Y230754D01*
X1885826Y232202D01*
X1886638Y233688D01*
X1887379Y235212D01*
X1888046Y236770D01*
X1888638Y238357D01*
X1889153Y239971D01*
X1889593Y241608D01*
X1889952Y243263D01*
X1890234Y244933D01*
X1890434Y246615D01*
X1890555Y248305D01*
X1890595Y250000D01*
X1890555Y251694D01*
X1890434Y253384D01*
X1890234Y255066D01*
X1889952Y256736D01*
X1889593Y258391D01*
X1889153Y260028D01*
X1888638Y261642D01*
X1888046Y263229D01*
X1887379Y264787D01*
X1886638Y266311D01*
X1885826Y267797D01*
X1884944Y269245D01*
X1883995Y270648D01*
X1882979Y272004D01*
X1881902Y273310D01*
X1880762Y274564D01*
X1879564Y275761D01*
X1878310Y276902D01*
X1877003Y277979D01*
X1875648Y278996D01*
X1874245Y279944D01*
X1872798Y280826D01*
X1871310Y281639D01*
X1869786Y282379D01*
X1868230Y283045D01*
X1866642Y283638D01*
X1865029Y284153D01*
X1863392Y284592D01*
X1861737Y284953D01*
X1860065Y285234D01*
X1858383Y285435D01*
X1856693Y285556D01*
X1855000Y285596D01*
X1853306Y285556D01*
X1851616Y285435D01*
X1849934Y285234D01*
X1848262Y284953D01*
X1846607Y284592D01*
X1844970Y284153D01*
X1843357Y283638D01*
X1841769Y283045D01*
X1840213Y282379D01*
X1838689Y281639D01*
X1837201Y280826D01*
X1835754Y279944D01*
X1834351Y278996D01*
X1832996Y277979D01*
X1831689Y276902D01*
X1830435Y275761D01*
X1829237Y274564D01*
X1828098Y273310D01*
X1827020Y272004D01*
X1826004Y270648D01*
X1825055Y269245D01*
X1824173Y267797D01*
X1823361Y266311D01*
X1822620Y264787D01*
X1821953Y263229D01*
X1821361Y261642D01*
X1820846Y260028D01*
X1820406Y258391D01*
X1820047Y256736D01*
X1819765Y255066D01*
X1819565Y253384D01*
X1819444Y251694D01*
X1819404Y250000D01*
X1819444Y248305D01*
X1819565Y246615D01*
X1819765Y244933D01*
X1820047Y243263D01*
X1820406Y241608D01*
X1820846Y239971D01*
X1821361Y238357D01*
X1821953Y236770D01*
X1822620Y235212D01*
X1823361Y233688D01*
X1824173Y232202D01*
X1825055Y230754D01*
X1826004Y229351D01*
X1827020Y227995D01*
X1828098Y226689D01*
X1829237Y225435D01*
X1830435Y224238D01*
X1831689Y223097D01*
X1832996Y222020D01*
X1834351Y221003D01*
X1835754Y220055D01*
X1837201Y219173D01*
X1838689Y218360D01*
X1840213Y217620D01*
X1841769Y216954D01*
X1843357Y216361D01*
X1844970Y215846D01*
X1846607Y215407D01*
X1848262Y215046D01*
X1849934Y214765D01*
X1851616Y214564D01*
X1853306Y214443D01*
G37*
G36*
X1655000Y214403D02*
G01*
X1656693Y214443D01*
X1658383Y214564D01*
X1660065Y214765D01*
X1661737Y215046D01*
X1663392Y215407D01*
X1665029Y215846D01*
X1666642Y216361D01*
X1668230Y216954D01*
X1669786Y217620D01*
X1671310Y218360D01*
X1672798Y219173D01*
X1674245Y220055D01*
X1675648Y221003D01*
X1677003Y222020D01*
X1678310Y223097D01*
X1679564Y224238D01*
X1680762Y225435D01*
X1681902Y226689D01*
X1682979Y227995D01*
X1683995Y229351D01*
X1684944Y230754D01*
X1685826Y232202D01*
X1686638Y233688D01*
X1687379Y235212D01*
X1688046Y236770D01*
X1688638Y238357D01*
X1689153Y239971D01*
X1689593Y241608D01*
X1689952Y243263D01*
X1690234Y244933D01*
X1690434Y246615D01*
X1690555Y248305D01*
X1690595Y250000D01*
X1690555Y251694D01*
X1690434Y253384D01*
X1690234Y255066D01*
X1689952Y256736D01*
X1689593Y258391D01*
X1689153Y260028D01*
X1688638Y261642D01*
X1688046Y263229D01*
X1687379Y264787D01*
X1686638Y266311D01*
X1685826Y267797D01*
X1684944Y269245D01*
X1683995Y270648D01*
X1682979Y272004D01*
X1681902Y273310D01*
X1680762Y274564D01*
X1679564Y275761D01*
X1678310Y276902D01*
X1677003Y277979D01*
X1675648Y278996D01*
X1674245Y279944D01*
X1672798Y280826D01*
X1671310Y281639D01*
X1669786Y282379D01*
X1668230Y283045D01*
X1666642Y283638D01*
X1665029Y284153D01*
X1663392Y284592D01*
X1661737Y284953D01*
X1660065Y285234D01*
X1658383Y285435D01*
X1656693Y285556D01*
X1655000Y285596D01*
X1653306Y285556D01*
X1651616Y285435D01*
X1649934Y285234D01*
X1648262Y284953D01*
X1646607Y284592D01*
X1644970Y284153D01*
X1643357Y283638D01*
X1641769Y283045D01*
X1640213Y282379D01*
X1638689Y281639D01*
X1637201Y280826D01*
X1635754Y279944D01*
X1634351Y278996D01*
X1632996Y277979D01*
X1631689Y276902D01*
X1630435Y275761D01*
X1629237Y274564D01*
X1628098Y273310D01*
X1627020Y272004D01*
X1626004Y270648D01*
X1625055Y269245D01*
X1624173Y267797D01*
X1623361Y266311D01*
X1622620Y264787D01*
X1621953Y263229D01*
X1621361Y261642D01*
X1620846Y260028D01*
X1620406Y258391D01*
X1620047Y256736D01*
X1619765Y255066D01*
X1619565Y253384D01*
X1619444Y251694D01*
X1619404Y250000D01*
X1619444Y248305D01*
X1619565Y246615D01*
X1619765Y244933D01*
X1620047Y243263D01*
X1620406Y241608D01*
X1620846Y239971D01*
X1621361Y238357D01*
X1621953Y236770D01*
X1622620Y235212D01*
X1623361Y233688D01*
X1624173Y232202D01*
X1625055Y230754D01*
X1626004Y229351D01*
X1627020Y227995D01*
X1628098Y226689D01*
X1629237Y225435D01*
X1630435Y224238D01*
X1631689Y223097D01*
X1632996Y222020D01*
X1634351Y221003D01*
X1635754Y220055D01*
X1637201Y219173D01*
X1638689Y218360D01*
X1640213Y217620D01*
X1641769Y216954D01*
X1643357Y216361D01*
X1644970Y215846D01*
X1646607Y215407D01*
X1648262Y215046D01*
X1649934Y214765D01*
X1651616Y214564D01*
X1653306Y214443D01*
G37*
G36*
X1555000Y214403D02*
G01*
X1556693Y214443D01*
X1558383Y214564D01*
X1560065Y214765D01*
X1561737Y215046D01*
X1563392Y215407D01*
X1565029Y215846D01*
X1566642Y216361D01*
X1568230Y216954D01*
X1569786Y217620D01*
X1571310Y218360D01*
X1572798Y219173D01*
X1574245Y220055D01*
X1575648Y221003D01*
X1577003Y222020D01*
X1578310Y223097D01*
X1579564Y224238D01*
X1580762Y225435D01*
X1581902Y226689D01*
X1582979Y227995D01*
X1583995Y229351D01*
X1584944Y230754D01*
X1585826Y232202D01*
X1586638Y233688D01*
X1587379Y235212D01*
X1588046Y236770D01*
X1588638Y238357D01*
X1589153Y239971D01*
X1589593Y241608D01*
X1589952Y243263D01*
X1590234Y244933D01*
X1590434Y246615D01*
X1590555Y248305D01*
X1590595Y250000D01*
X1590555Y251694D01*
X1590434Y253384D01*
X1590234Y255066D01*
X1589952Y256736D01*
X1589593Y258391D01*
X1589153Y260028D01*
X1588638Y261642D01*
X1588046Y263229D01*
X1587379Y264787D01*
X1586638Y266311D01*
X1585826Y267797D01*
X1584944Y269245D01*
X1583995Y270648D01*
X1582979Y272004D01*
X1581902Y273310D01*
X1580762Y274564D01*
X1579564Y275761D01*
X1578310Y276902D01*
X1577003Y277979D01*
X1575648Y278996D01*
X1574245Y279944D01*
X1572798Y280826D01*
X1571310Y281639D01*
X1569786Y282379D01*
X1568230Y283045D01*
X1566642Y283638D01*
X1565029Y284153D01*
X1563392Y284592D01*
X1561737Y284953D01*
X1560065Y285234D01*
X1558383Y285435D01*
X1556693Y285556D01*
X1555000Y285596D01*
X1553306Y285556D01*
X1551616Y285435D01*
X1549934Y285234D01*
X1548262Y284953D01*
X1546607Y284592D01*
X1544970Y284153D01*
X1543357Y283638D01*
X1541769Y283045D01*
X1540213Y282379D01*
X1538689Y281639D01*
X1537201Y280826D01*
X1535754Y279944D01*
X1534351Y278996D01*
X1532996Y277979D01*
X1531689Y276902D01*
X1530435Y275761D01*
X1529237Y274564D01*
X1528098Y273310D01*
X1527020Y272004D01*
X1526004Y270648D01*
X1525055Y269245D01*
X1524173Y267797D01*
X1523361Y266311D01*
X1522620Y264787D01*
X1521953Y263229D01*
X1521361Y261642D01*
X1520846Y260028D01*
X1520406Y258391D01*
X1520047Y256736D01*
X1519765Y255066D01*
X1519565Y253384D01*
X1519444Y251694D01*
X1519404Y250000D01*
X1519444Y248305D01*
X1519565Y246615D01*
X1519765Y244933D01*
X1520047Y243263D01*
X1520406Y241608D01*
X1520846Y239971D01*
X1521361Y238357D01*
X1521953Y236770D01*
X1522620Y235212D01*
X1523361Y233688D01*
X1524173Y232202D01*
X1525055Y230754D01*
X1526004Y229351D01*
X1527020Y227995D01*
X1528098Y226689D01*
X1529237Y225435D01*
X1530435Y224238D01*
X1531689Y223097D01*
X1532996Y222020D01*
X1534351Y221003D01*
X1535754Y220055D01*
X1537201Y219173D01*
X1538689Y218360D01*
X1540213Y217620D01*
X1541769Y216954D01*
X1543357Y216361D01*
X1544970Y215846D01*
X1546607Y215407D01*
X1548262Y215046D01*
X1549934Y214765D01*
X1551616Y214564D01*
X1553306Y214443D01*
G37*
G36*
X1455000Y214403D02*
G01*
X1456693Y214443D01*
X1458383Y214564D01*
X1460065Y214765D01*
X1461737Y215046D01*
X1463392Y215407D01*
X1465029Y215846D01*
X1466642Y216361D01*
X1468230Y216954D01*
X1469786Y217620D01*
X1471310Y218360D01*
X1472798Y219173D01*
X1474245Y220055D01*
X1475648Y221003D01*
X1477003Y222020D01*
X1478310Y223097D01*
X1479564Y224238D01*
X1480762Y225435D01*
X1481902Y226689D01*
X1482979Y227995D01*
X1483995Y229351D01*
X1484944Y230754D01*
X1485826Y232202D01*
X1486638Y233688D01*
X1487379Y235212D01*
X1488046Y236770D01*
X1488638Y238357D01*
X1489153Y239971D01*
X1489593Y241608D01*
X1489952Y243263D01*
X1490234Y244933D01*
X1490434Y246615D01*
X1490555Y248305D01*
X1490595Y250000D01*
X1490555Y251694D01*
X1490434Y253384D01*
X1490234Y255066D01*
X1489952Y256736D01*
X1489593Y258391D01*
X1489153Y260028D01*
X1488638Y261642D01*
X1488046Y263229D01*
X1487379Y264787D01*
X1486638Y266311D01*
X1485826Y267797D01*
X1484944Y269245D01*
X1483995Y270648D01*
X1482979Y272004D01*
X1481902Y273310D01*
X1480762Y274564D01*
X1479564Y275761D01*
X1478310Y276902D01*
X1477003Y277979D01*
X1475648Y278996D01*
X1474245Y279944D01*
X1472798Y280826D01*
X1471310Y281639D01*
X1469786Y282379D01*
X1468230Y283045D01*
X1466642Y283638D01*
X1465029Y284153D01*
X1463392Y284592D01*
X1461737Y284953D01*
X1460065Y285234D01*
X1458383Y285435D01*
X1456693Y285556D01*
X1455000Y285596D01*
X1453306Y285556D01*
X1451616Y285435D01*
X1449934Y285234D01*
X1448262Y284953D01*
X1446607Y284592D01*
X1444970Y284153D01*
X1443357Y283638D01*
X1441769Y283045D01*
X1440213Y282379D01*
X1438689Y281639D01*
X1437201Y280826D01*
X1435754Y279944D01*
X1434351Y278996D01*
X1432996Y277979D01*
X1431689Y276902D01*
X1430435Y275761D01*
X1429237Y274564D01*
X1428098Y273310D01*
X1427020Y272004D01*
X1426004Y270648D01*
X1425055Y269245D01*
X1424173Y267797D01*
X1423361Y266311D01*
X1422620Y264787D01*
X1421953Y263229D01*
X1421361Y261642D01*
X1420846Y260028D01*
X1420406Y258391D01*
X1420047Y256736D01*
X1419765Y255066D01*
X1419565Y253384D01*
X1419444Y251694D01*
X1419404Y250000D01*
X1419444Y248305D01*
X1419565Y246615D01*
X1419765Y244933D01*
X1420047Y243263D01*
X1420406Y241608D01*
X1420846Y239971D01*
X1421361Y238357D01*
X1421953Y236770D01*
X1422620Y235212D01*
X1423361Y233688D01*
X1424173Y232202D01*
X1425055Y230754D01*
X1426004Y229351D01*
X1427020Y227995D01*
X1428098Y226689D01*
X1429237Y225435D01*
X1430435Y224238D01*
X1431689Y223097D01*
X1432996Y222020D01*
X1434351Y221003D01*
X1435754Y220055D01*
X1437201Y219173D01*
X1438689Y218360D01*
X1440213Y217620D01*
X1441769Y216954D01*
X1443357Y216361D01*
X1444970Y215846D01*
X1446607Y215407D01*
X1448262Y215046D01*
X1449934Y214765D01*
X1451616Y214564D01*
X1453306Y214443D01*
G37*
G36*
X1355000Y214403D02*
G01*
X1356693Y214443D01*
X1358383Y214564D01*
X1360065Y214765D01*
X1361737Y215046D01*
X1363392Y215407D01*
X1365029Y215846D01*
X1366642Y216361D01*
X1368230Y216954D01*
X1369786Y217620D01*
X1371310Y218360D01*
X1372798Y219173D01*
X1374245Y220055D01*
X1375648Y221003D01*
X1377003Y222020D01*
X1378310Y223097D01*
X1379564Y224238D01*
X1380762Y225435D01*
X1381902Y226689D01*
X1382979Y227995D01*
X1383995Y229351D01*
X1384944Y230754D01*
X1385826Y232202D01*
X1386638Y233688D01*
X1387379Y235212D01*
X1388046Y236770D01*
X1388638Y238357D01*
X1389153Y239971D01*
X1389593Y241608D01*
X1389952Y243263D01*
X1390234Y244933D01*
X1390434Y246615D01*
X1390555Y248305D01*
X1390595Y250000D01*
X1390555Y251694D01*
X1390434Y253384D01*
X1390234Y255066D01*
X1389952Y256736D01*
X1389593Y258391D01*
X1389153Y260028D01*
X1388638Y261642D01*
X1388046Y263229D01*
X1387379Y264787D01*
X1386638Y266311D01*
X1385826Y267797D01*
X1384944Y269245D01*
X1383995Y270648D01*
X1382979Y272004D01*
X1381902Y273310D01*
X1380762Y274564D01*
X1379564Y275761D01*
X1378310Y276902D01*
X1377003Y277979D01*
X1375648Y278996D01*
X1374245Y279944D01*
X1372798Y280826D01*
X1371310Y281639D01*
X1369786Y282379D01*
X1368230Y283045D01*
X1366642Y283638D01*
X1365029Y284153D01*
X1363392Y284592D01*
X1361737Y284953D01*
X1360065Y285234D01*
X1358383Y285435D01*
X1356693Y285556D01*
X1355000Y285596D01*
X1353306Y285556D01*
X1351616Y285435D01*
X1349934Y285234D01*
X1348262Y284953D01*
X1346607Y284592D01*
X1344970Y284153D01*
X1343357Y283638D01*
X1341769Y283045D01*
X1340213Y282379D01*
X1338689Y281639D01*
X1337201Y280826D01*
X1335754Y279944D01*
X1334351Y278996D01*
X1332996Y277979D01*
X1331689Y276902D01*
X1330435Y275761D01*
X1329237Y274564D01*
X1328098Y273310D01*
X1327020Y272004D01*
X1326004Y270648D01*
X1325055Y269245D01*
X1324173Y267797D01*
X1323361Y266311D01*
X1322620Y264787D01*
X1321953Y263229D01*
X1321361Y261642D01*
X1320846Y260028D01*
X1320406Y258391D01*
X1320047Y256736D01*
X1319765Y255066D01*
X1319565Y253384D01*
X1319444Y251694D01*
X1319404Y250000D01*
X1319444Y248305D01*
X1319565Y246615D01*
X1319765Y244933D01*
X1320047Y243263D01*
X1320406Y241608D01*
X1320846Y239971D01*
X1321361Y238357D01*
X1321953Y236770D01*
X1322620Y235212D01*
X1323361Y233688D01*
X1324173Y232202D01*
X1325055Y230754D01*
X1326004Y229351D01*
X1327020Y227995D01*
X1328098Y226689D01*
X1329237Y225435D01*
X1330435Y224238D01*
X1331689Y223097D01*
X1332996Y222020D01*
X1334351Y221003D01*
X1335754Y220055D01*
X1337201Y219173D01*
X1338689Y218360D01*
X1340213Y217620D01*
X1341769Y216954D01*
X1343357Y216361D01*
X1344970Y215846D01*
X1346607Y215407D01*
X1348262Y215046D01*
X1349934Y214765D01*
X1351616Y214564D01*
X1353306Y214443D01*
G37*
G36*
X1255000Y214403D02*
G01*
X1256693Y214443D01*
X1258383Y214564D01*
X1260065Y214765D01*
X1261737Y215046D01*
X1263392Y215407D01*
X1265029Y215846D01*
X1266642Y216361D01*
X1268230Y216954D01*
X1269786Y217620D01*
X1271310Y218360D01*
X1272798Y219173D01*
X1274245Y220055D01*
X1275648Y221003D01*
X1277003Y222020D01*
X1278310Y223097D01*
X1279564Y224238D01*
X1280762Y225435D01*
X1281902Y226689D01*
X1282979Y227995D01*
X1283995Y229351D01*
X1284944Y230754D01*
X1285826Y232202D01*
X1286638Y233688D01*
X1287379Y235212D01*
X1288046Y236770D01*
X1288638Y238357D01*
X1289153Y239971D01*
X1289593Y241608D01*
X1289952Y243263D01*
X1290234Y244933D01*
X1290434Y246615D01*
X1290555Y248305D01*
X1290595Y250000D01*
X1290555Y251694D01*
X1290434Y253384D01*
X1290234Y255066D01*
X1289952Y256736D01*
X1289593Y258391D01*
X1289153Y260028D01*
X1288638Y261642D01*
X1288046Y263229D01*
X1287379Y264787D01*
X1286638Y266311D01*
X1285826Y267797D01*
X1284944Y269245D01*
X1283995Y270648D01*
X1282979Y272004D01*
X1281902Y273310D01*
X1280762Y274564D01*
X1279564Y275761D01*
X1278310Y276902D01*
X1277003Y277979D01*
X1275648Y278996D01*
X1274245Y279944D01*
X1272798Y280826D01*
X1271310Y281639D01*
X1269786Y282379D01*
X1268230Y283045D01*
X1266642Y283638D01*
X1265029Y284153D01*
X1263392Y284592D01*
X1261737Y284953D01*
X1260065Y285234D01*
X1258383Y285435D01*
X1256693Y285556D01*
X1255000Y285596D01*
X1253306Y285556D01*
X1251616Y285435D01*
X1249934Y285234D01*
X1248262Y284953D01*
X1246607Y284592D01*
X1244970Y284153D01*
X1243357Y283638D01*
X1241769Y283045D01*
X1240213Y282379D01*
X1238689Y281639D01*
X1237201Y280826D01*
X1235754Y279944D01*
X1234351Y278996D01*
X1232996Y277979D01*
X1231689Y276902D01*
X1230435Y275761D01*
X1229237Y274564D01*
X1228098Y273310D01*
X1227020Y272004D01*
X1226004Y270648D01*
X1225055Y269245D01*
X1224173Y267797D01*
X1223361Y266311D01*
X1222620Y264787D01*
X1221953Y263229D01*
X1221361Y261642D01*
X1220846Y260028D01*
X1220406Y258391D01*
X1220047Y256736D01*
X1219765Y255066D01*
X1219565Y253384D01*
X1219444Y251694D01*
X1219404Y250000D01*
X1219444Y248305D01*
X1219565Y246615D01*
X1219765Y244933D01*
X1220047Y243263D01*
X1220406Y241608D01*
X1220846Y239971D01*
X1221361Y238357D01*
X1221953Y236770D01*
X1222620Y235212D01*
X1223361Y233688D01*
X1224173Y232202D01*
X1225055Y230754D01*
X1226004Y229351D01*
X1227020Y227995D01*
X1228098Y226689D01*
X1229237Y225435D01*
X1230435Y224238D01*
X1231689Y223097D01*
X1232996Y222020D01*
X1234351Y221003D01*
X1235754Y220055D01*
X1237201Y219173D01*
X1238689Y218360D01*
X1240213Y217620D01*
X1241769Y216954D01*
X1243357Y216361D01*
X1244970Y215846D01*
X1246607Y215407D01*
X1248262Y215046D01*
X1249934Y214765D01*
X1251616Y214564D01*
X1253306Y214443D01*
G37*
G36*
X1023504Y214504D02*
G01*
X1086495Y214504D01*
X1086769Y214513D01*
X1087040Y214540D01*
X1087309Y214587D01*
X1087574Y214652D01*
X1087835Y214735D01*
X1088090Y214834D01*
X1088335Y214951D01*
X1088573Y215086D01*
X1088802Y215235D01*
X1089020Y215401D01*
X1089225Y215581D01*
X1089418Y215774D01*
X1089598Y215979D01*
X1089763Y216197D01*
X1089913Y216426D01*
X1090047Y216664D01*
X1090164Y216909D01*
X1090264Y217163D01*
X1090348Y217424D01*
X1090411Y217689D01*
X1090459Y217959D01*
X1090487Y218231D01*
X1090496Y218503D01*
X1090496Y281496D01*
X1090487Y281768D01*
X1090459Y282040D01*
X1090411Y282310D01*
X1090348Y282575D01*
X1090264Y282836D01*
X1090164Y283090D01*
X1090047Y283335D01*
X1089913Y283573D01*
X1089763Y283802D01*
X1089598Y284020D01*
X1089418Y284225D01*
X1089225Y284418D01*
X1089020Y284598D01*
X1088802Y284764D01*
X1088573Y284913D01*
X1088335Y285048D01*
X1088090Y285165D01*
X1087835Y285264D01*
X1087574Y285347D01*
X1087309Y285412D01*
X1087040Y285459D01*
X1086769Y285486D01*
X1086495Y285495D01*
X1023504Y285495D01*
X1023230Y285486D01*
X1022959Y285459D01*
X1022690Y285412D01*
X1022425Y285347D01*
X1022164Y285264D01*
X1021909Y285165D01*
X1021664Y285048D01*
X1021426Y284913D01*
X1021197Y284764D01*
X1020979Y284598D01*
X1020774Y284418D01*
X1020581Y284225D01*
X1020401Y284020D01*
X1020236Y283802D01*
X1020086Y283573D01*
X1019952Y283335D01*
X1019835Y283090D01*
X1019735Y282836D01*
X1019651Y282575D01*
X1019588Y282310D01*
X1019540Y282040D01*
X1019512Y281768D01*
X1019503Y281496D01*
X1019503Y218503D01*
X1019512Y218231D01*
X1019540Y217959D01*
X1019588Y217689D01*
X1019651Y217424D01*
X1019735Y217163D01*
X1019835Y216909D01*
X1019952Y216664D01*
X1020086Y216426D01*
X1020236Y216197D01*
X1020401Y215979D01*
X1020581Y215774D01*
X1020774Y215581D01*
X1020979Y215401D01*
X1021197Y215235D01*
X1021426Y215086D01*
X1021664Y214951D01*
X1021909Y214834D01*
X1022164Y214735D01*
X1022425Y214652D01*
X1022690Y214587D01*
X1022959Y214540D01*
X1023230Y214513D01*
G37*
G36*
X1770748Y218087D02*
G01*
X1771310Y218360D01*
X1772798Y219173D01*
X1774245Y220055D01*
X1775648Y221003D01*
X1777003Y222020D01*
X1778310Y223097D01*
X1779564Y224238D01*
X1780762Y225435D01*
X1781902Y226689D01*
X1782979Y227995D01*
X1783995Y229351D01*
X1784944Y230754D01*
X1785826Y232202D01*
X1786638Y233688D01*
X1786912Y234252D01*
X1770748Y234252D01*
G37*
G36*
X1739251Y218087D02*
G01*
X1739251Y234252D01*
X1723087Y234252D01*
X1723361Y233688D01*
X1724173Y232202D01*
X1725055Y230754D01*
X1726004Y229351D01*
X1727020Y227995D01*
X1728098Y226689D01*
X1729237Y225435D01*
X1730435Y224238D01*
X1731689Y223097D01*
X1732996Y222020D01*
X1734351Y221003D01*
X1735754Y220055D01*
X1737201Y219173D01*
X1738689Y218360D01*
G37*
G36*
X1170748Y218087D02*
G01*
X1171310Y218360D01*
X1172798Y219173D01*
X1174245Y220055D01*
X1175648Y221003D01*
X1177003Y222020D01*
X1178310Y223097D01*
X1179564Y224238D01*
X1180762Y225435D01*
X1181902Y226689D01*
X1182979Y227995D01*
X1183995Y229351D01*
X1184944Y230754D01*
X1185826Y232202D01*
X1186638Y233688D01*
X1186912Y234252D01*
X1170748Y234252D01*
G37*
G36*
X1139251Y218087D02*
G01*
X1139251Y234252D01*
X1123087Y234252D01*
X1123361Y233688D01*
X1124173Y232202D01*
X1125055Y230754D01*
X1126004Y229351D01*
X1127020Y227995D01*
X1128098Y226689D01*
X1129237Y225435D01*
X1130435Y224238D01*
X1131689Y223097D01*
X1132996Y222020D01*
X1134351Y221003D01*
X1135754Y220055D01*
X1137201Y219173D01*
X1138689Y218360D01*
G37*
G36*
X2710288Y263697D02*
G01*
X2711436Y263757D01*
X2712578Y263899D01*
X2713707Y264122D01*
X2714818Y264423D01*
X2715906Y264801D01*
X2716962Y265257D01*
X2717986Y265785D01*
X2718968Y266383D01*
X2719907Y267049D01*
X2720796Y267780D01*
X2721630Y268573D01*
X2722407Y269421D01*
X2723122Y270322D01*
X2723773Y271273D01*
X2724354Y272265D01*
X2724863Y273297D01*
X2725299Y274362D01*
X2725658Y275457D01*
X2725941Y276572D01*
X2726143Y277705D01*
X2726264Y278850D01*
X2726305Y280000D01*
X2726264Y281149D01*
X2726143Y282294D01*
X2725941Y283427D01*
X2725658Y284542D01*
X2725299Y285637D01*
X2724863Y286702D01*
X2724354Y287734D01*
X2723773Y288726D01*
X2723122Y289677D01*
X2722407Y290578D01*
X2721630Y291426D01*
X2720796Y292219D01*
X2719907Y292950D01*
X2718968Y293616D01*
X2717986Y294214D01*
X2716962Y294742D01*
X2715906Y295198D01*
X2714818Y295576D01*
X2713707Y295877D01*
X2712578Y296100D01*
X2711436Y296242D01*
X2710288Y296302D01*
X2709137Y296282D01*
X2707991Y296181D01*
X2706854Y295999D01*
X2705734Y295736D01*
X2704633Y295396D01*
X2703560Y294980D01*
X2702520Y294488D01*
X2701517Y293924D01*
X2700555Y293292D01*
X2699642Y292593D01*
X2698779Y291831D01*
X2697973Y291010D01*
X2697227Y290133D01*
X2696544Y289207D01*
X2695928Y288234D01*
X2695381Y287222D01*
X2694908Y286172D01*
X2694511Y285093D01*
X2694189Y283987D01*
X2693948Y282863D01*
X2693786Y281723D01*
X2693705Y280574D01*
X2693705Y279425D01*
X2693786Y278276D01*
X2693948Y277136D01*
X2694189Y276012D01*
X2694511Y274906D01*
X2694908Y273827D01*
X2695381Y272777D01*
X2695928Y271765D01*
X2696544Y270792D01*
X2697227Y269866D01*
X2697973Y268989D01*
X2698779Y268168D01*
X2699642Y267406D01*
X2700555Y266707D01*
X2701517Y266075D01*
X2702520Y265511D01*
X2703560Y265019D01*
X2704633Y264603D01*
X2705734Y264263D01*
X2706854Y264000D01*
X2707991Y263818D01*
X2709137Y263717D01*
G37*
G36*
X1770748Y265747D02*
G01*
X1786912Y265747D01*
X1786638Y266311D01*
X1785826Y267797D01*
X1784944Y269245D01*
X1783995Y270648D01*
X1782979Y272004D01*
X1781902Y273310D01*
X1780762Y274564D01*
X1779564Y275761D01*
X1778310Y276902D01*
X1777003Y277979D01*
X1775648Y278996D01*
X1774245Y279944D01*
X1772798Y280826D01*
X1771310Y281639D01*
X1770748Y281912D01*
G37*
G36*
X1723087Y265747D02*
G01*
X1739251Y265747D01*
X1739251Y281912D01*
X1738689Y281639D01*
X1737201Y280826D01*
X1735754Y279944D01*
X1734351Y278996D01*
X1732996Y277979D01*
X1731689Y276902D01*
X1730435Y275761D01*
X1729237Y274564D01*
X1728098Y273310D01*
X1727020Y272004D01*
X1726004Y270648D01*
X1725055Y269245D01*
X1724173Y267797D01*
X1723361Y266311D01*
G37*
G36*
X1170748Y265747D02*
G01*
X1186912Y265747D01*
X1186638Y266311D01*
X1185826Y267797D01*
X1184944Y269245D01*
X1183995Y270648D01*
X1182979Y272004D01*
X1181902Y273310D01*
X1180762Y274564D01*
X1179564Y275761D01*
X1178310Y276902D01*
X1177003Y277979D01*
X1175648Y278996D01*
X1174245Y279944D01*
X1172798Y280826D01*
X1171310Y281639D01*
X1170748Y281912D01*
G37*
G36*
X1123087Y265747D02*
G01*
X1139251Y265747D01*
X1139251Y281912D01*
X1138689Y281639D01*
X1137201Y280826D01*
X1135754Y279944D01*
X1134351Y278996D01*
X1132996Y277979D01*
X1131689Y276902D01*
X1130435Y275761D01*
X1129237Y274564D01*
X1128098Y273310D01*
X1127020Y272004D01*
X1126004Y270648D01*
X1125055Y269245D01*
X1124173Y267797D01*
X1123361Y266311D01*
G37*
G36*
X2520288Y288697D02*
G01*
X2521436Y288757D01*
X2522578Y288899D01*
X2523707Y289122D01*
X2524818Y289423D01*
X2525906Y289801D01*
X2526962Y290257D01*
X2527986Y290785D01*
X2528968Y291383D01*
X2529907Y292049D01*
X2530796Y292780D01*
X2531630Y293573D01*
X2532407Y294421D01*
X2533122Y295322D01*
X2533773Y296273D01*
X2534354Y297265D01*
X2534863Y298297D01*
X2535299Y299362D01*
X2535658Y300457D01*
X2535941Y301572D01*
X2536143Y302705D01*
X2536264Y303850D01*
X2536305Y305000D01*
X2536264Y306149D01*
X2536143Y307294D01*
X2535941Y308427D01*
X2535658Y309542D01*
X2535299Y310637D01*
X2534863Y311702D01*
X2534354Y312734D01*
X2533773Y313726D01*
X2533122Y314677D01*
X2532407Y315578D01*
X2531630Y316426D01*
X2530796Y317219D01*
X2529907Y317950D01*
X2528968Y318616D01*
X2527986Y319214D01*
X2526962Y319742D01*
X2525906Y320198D01*
X2524818Y320576D01*
X2523707Y320877D01*
X2522578Y321100D01*
X2521436Y321242D01*
X2520288Y321302D01*
X2519137Y321282D01*
X2517991Y321181D01*
X2516854Y320999D01*
X2515734Y320736D01*
X2514633Y320396D01*
X2513560Y319980D01*
X2512520Y319488D01*
X2511517Y318924D01*
X2510555Y318292D01*
X2509642Y317593D01*
X2508779Y316831D01*
X2507973Y316010D01*
X2507227Y315133D01*
X2506544Y314207D01*
X2505928Y313234D01*
X2505381Y312222D01*
X2504908Y311172D01*
X2504511Y310093D01*
X2504189Y308987D01*
X2503948Y307863D01*
X2503786Y306723D01*
X2503705Y305574D01*
X2503705Y304425D01*
X2503786Y303276D01*
X2503948Y302136D01*
X2504189Y301012D01*
X2504511Y299906D01*
X2504908Y298827D01*
X2505381Y297777D01*
X2505928Y296765D01*
X2506544Y295792D01*
X2507227Y294866D01*
X2507973Y293989D01*
X2508779Y293168D01*
X2509642Y292406D01*
X2510555Y291707D01*
X2511517Y291075D01*
X2512520Y290511D01*
X2513560Y290019D01*
X2514633Y289603D01*
X2515734Y289263D01*
X2516854Y289000D01*
X2517991Y288818D01*
X2519137Y288717D01*
G37*
G36*
X3404718Y293697D02*
G01*
X3405866Y293757D01*
X3407008Y293899D01*
X3408137Y294122D01*
X3409249Y294423D01*
X3410335Y294801D01*
X3411392Y295257D01*
X3412416Y295785D01*
X3413398Y296383D01*
X3414336Y297049D01*
X3415226Y297780D01*
X3416060Y298573D01*
X3416837Y299421D01*
X3417552Y300322D01*
X3418203Y301273D01*
X3418783Y302265D01*
X3419294Y303297D01*
X3419729Y304362D01*
X3420088Y305457D01*
X3420370Y306572D01*
X3420573Y307705D01*
X3420694Y308850D01*
X3420735Y310000D01*
X3420694Y311149D01*
X3420573Y312294D01*
X3420370Y313427D01*
X3420088Y314542D01*
X3419729Y315637D01*
X3419294Y316702D01*
X3418783Y317734D01*
X3418203Y318726D01*
X3417552Y319677D01*
X3416837Y320578D01*
X3416060Y321426D01*
X3415226Y322219D01*
X3414336Y322950D01*
X3413398Y323616D01*
X3412416Y324214D01*
X3411392Y324742D01*
X3410335Y325198D01*
X3409249Y325576D01*
X3408137Y325877D01*
X3407008Y326100D01*
X3405866Y326242D01*
X3404718Y326302D01*
X3403567Y326282D01*
X3402421Y326181D01*
X3401283Y325999D01*
X3400164Y325736D01*
X3399063Y325396D01*
X3397991Y324980D01*
X3396950Y324488D01*
X3395946Y323924D01*
X3394985Y323292D01*
X3394071Y322593D01*
X3393209Y321831D01*
X3392403Y321010D01*
X3391656Y320133D01*
X3390973Y319207D01*
X3390357Y318234D01*
X3389812Y317222D01*
X3389339Y316172D01*
X3388941Y315093D01*
X3388620Y313987D01*
X3388378Y312863D01*
X3388216Y311723D01*
X3388135Y310574D01*
X3388135Y309425D01*
X3388216Y308276D01*
X3388378Y307136D01*
X3388620Y306012D01*
X3388941Y304906D01*
X3389339Y303827D01*
X3389812Y302777D01*
X3390357Y301765D01*
X3390973Y300792D01*
X3391656Y299866D01*
X3392403Y298989D01*
X3393209Y298168D01*
X3394071Y297406D01*
X3394985Y296707D01*
X3395946Y296075D01*
X3396950Y295511D01*
X3397991Y295019D01*
X3399063Y294603D01*
X3400164Y294263D01*
X3401283Y294000D01*
X3402421Y293818D01*
X3403567Y293717D01*
G37*
G36*
X3354718Y293697D02*
G01*
X3355866Y293757D01*
X3357008Y293899D01*
X3358137Y294122D01*
X3359249Y294423D01*
X3360335Y294801D01*
X3361392Y295257D01*
X3362416Y295785D01*
X3363398Y296383D01*
X3364336Y297049D01*
X3365226Y297780D01*
X3366060Y298573D01*
X3366837Y299421D01*
X3367552Y300322D01*
X3368203Y301273D01*
X3368783Y302265D01*
X3369294Y303297D01*
X3369729Y304362D01*
X3370088Y305457D01*
X3370370Y306572D01*
X3370573Y307705D01*
X3370694Y308850D01*
X3370735Y310000D01*
X3370694Y311149D01*
X3370573Y312294D01*
X3370370Y313427D01*
X3370088Y314542D01*
X3369729Y315637D01*
X3369294Y316702D01*
X3368783Y317734D01*
X3368203Y318726D01*
X3367552Y319677D01*
X3366837Y320578D01*
X3366060Y321426D01*
X3365226Y322219D01*
X3364336Y322950D01*
X3363398Y323616D01*
X3362416Y324214D01*
X3361392Y324742D01*
X3360335Y325198D01*
X3359249Y325576D01*
X3358137Y325877D01*
X3357008Y326100D01*
X3355866Y326242D01*
X3354718Y326302D01*
X3353567Y326282D01*
X3352421Y326181D01*
X3351283Y325999D01*
X3350164Y325736D01*
X3349063Y325396D01*
X3347991Y324980D01*
X3346950Y324488D01*
X3345946Y323924D01*
X3344985Y323292D01*
X3344071Y322593D01*
X3343209Y321831D01*
X3342403Y321010D01*
X3341656Y320133D01*
X3340973Y319207D01*
X3340357Y318234D01*
X3339812Y317222D01*
X3339339Y316172D01*
X3338941Y315093D01*
X3338620Y313987D01*
X3338378Y312863D01*
X3338216Y311723D01*
X3338135Y310574D01*
X3338135Y309425D01*
X3338216Y308276D01*
X3338378Y307136D01*
X3338620Y306012D01*
X3338941Y304906D01*
X3339339Y303827D01*
X3339812Y302777D01*
X3340357Y301765D01*
X3340973Y300792D01*
X3341656Y299866D01*
X3342403Y298989D01*
X3343209Y298168D01*
X3344071Y297406D01*
X3344985Y296707D01*
X3345946Y296075D01*
X3346950Y295511D01*
X3347991Y295019D01*
X3349063Y294603D01*
X3350164Y294263D01*
X3351283Y294000D01*
X3352421Y293818D01*
X3353567Y293717D01*
G37*
G36*
X3304718Y293697D02*
G01*
X3305866Y293757D01*
X3307008Y293899D01*
X3308137Y294122D01*
X3309249Y294423D01*
X3310335Y294801D01*
X3311392Y295257D01*
X3312416Y295785D01*
X3313398Y296383D01*
X3314336Y297049D01*
X3315226Y297780D01*
X3316060Y298573D01*
X3316837Y299421D01*
X3317552Y300322D01*
X3318203Y301273D01*
X3318783Y302265D01*
X3319294Y303297D01*
X3319729Y304362D01*
X3320088Y305457D01*
X3320370Y306572D01*
X3320573Y307705D01*
X3320694Y308850D01*
X3320735Y310000D01*
X3320694Y311149D01*
X3320573Y312294D01*
X3320370Y313427D01*
X3320088Y314542D01*
X3319729Y315637D01*
X3319294Y316702D01*
X3318783Y317734D01*
X3318203Y318726D01*
X3317552Y319677D01*
X3316837Y320578D01*
X3316060Y321426D01*
X3315226Y322219D01*
X3314336Y322950D01*
X3313398Y323616D01*
X3312416Y324214D01*
X3311392Y324742D01*
X3310335Y325198D01*
X3309249Y325576D01*
X3308137Y325877D01*
X3307008Y326100D01*
X3305866Y326242D01*
X3304718Y326302D01*
X3303567Y326282D01*
X3302421Y326181D01*
X3301283Y325999D01*
X3300164Y325736D01*
X3299063Y325396D01*
X3297991Y324980D01*
X3296950Y324488D01*
X3295946Y323924D01*
X3294985Y323292D01*
X3294071Y322593D01*
X3293209Y321831D01*
X3292403Y321010D01*
X3291656Y320133D01*
X3290973Y319207D01*
X3290357Y318234D01*
X3289812Y317222D01*
X3289339Y316172D01*
X3288941Y315093D01*
X3288620Y313987D01*
X3288378Y312863D01*
X3288216Y311723D01*
X3288135Y310574D01*
X3288135Y309425D01*
X3288216Y308276D01*
X3288378Y307136D01*
X3288620Y306012D01*
X3288941Y304906D01*
X3289339Y303827D01*
X3289812Y302777D01*
X3290357Y301765D01*
X3290973Y300792D01*
X3291656Y299866D01*
X3292403Y298989D01*
X3293209Y298168D01*
X3294071Y297406D01*
X3294985Y296707D01*
X3295946Y296075D01*
X3296950Y295511D01*
X3297991Y295019D01*
X3299063Y294603D01*
X3300164Y294263D01*
X3301283Y294000D01*
X3302421Y293818D01*
X3303567Y293717D01*
G37*
G36*
X3254718Y293697D02*
G01*
X3255866Y293757D01*
X3257008Y293899D01*
X3258137Y294122D01*
X3259249Y294423D01*
X3260335Y294801D01*
X3261392Y295257D01*
X3262416Y295785D01*
X3263398Y296383D01*
X3264336Y297049D01*
X3265226Y297780D01*
X3266060Y298573D01*
X3266837Y299421D01*
X3267552Y300322D01*
X3268203Y301273D01*
X3268783Y302265D01*
X3269294Y303297D01*
X3269729Y304362D01*
X3270088Y305457D01*
X3270370Y306572D01*
X3270573Y307705D01*
X3270694Y308850D01*
X3270735Y310000D01*
X3270694Y311149D01*
X3270573Y312294D01*
X3270370Y313427D01*
X3270088Y314542D01*
X3269729Y315637D01*
X3269294Y316702D01*
X3268783Y317734D01*
X3268203Y318726D01*
X3267552Y319677D01*
X3266837Y320578D01*
X3266060Y321426D01*
X3265226Y322219D01*
X3264336Y322950D01*
X3263398Y323616D01*
X3262416Y324214D01*
X3261392Y324742D01*
X3260335Y325198D01*
X3259249Y325576D01*
X3258137Y325877D01*
X3257008Y326100D01*
X3255866Y326242D01*
X3254718Y326302D01*
X3253567Y326282D01*
X3252421Y326181D01*
X3251283Y325999D01*
X3250164Y325736D01*
X3249063Y325396D01*
X3247991Y324980D01*
X3246950Y324488D01*
X3245946Y323924D01*
X3244985Y323292D01*
X3244071Y322593D01*
X3243209Y321831D01*
X3242403Y321010D01*
X3241656Y320133D01*
X3240973Y319207D01*
X3240357Y318234D01*
X3239812Y317222D01*
X3239339Y316172D01*
X3238941Y315093D01*
X3238620Y313987D01*
X3238378Y312863D01*
X3238216Y311723D01*
X3238135Y310574D01*
X3238135Y309425D01*
X3238216Y308276D01*
X3238378Y307136D01*
X3238620Y306012D01*
X3238941Y304906D01*
X3239339Y303827D01*
X3239812Y302777D01*
X3240357Y301765D01*
X3240973Y300792D01*
X3241656Y299866D01*
X3242403Y298989D01*
X3243209Y298168D01*
X3244071Y297406D01*
X3244985Y296707D01*
X3245946Y296075D01*
X3246950Y295511D01*
X3247991Y295019D01*
X3249063Y294603D01*
X3250164Y294263D01*
X3251283Y294000D01*
X3252421Y293818D01*
X3253567Y293717D01*
G37*
G36*
X3204718Y293697D02*
G01*
X3205866Y293757D01*
X3207008Y293899D01*
X3208137Y294122D01*
X3209249Y294423D01*
X3210335Y294801D01*
X3211392Y295257D01*
X3212416Y295785D01*
X3213398Y296383D01*
X3214336Y297049D01*
X3215226Y297780D01*
X3216060Y298573D01*
X3216837Y299421D01*
X3217552Y300322D01*
X3218203Y301273D01*
X3218783Y302265D01*
X3219294Y303297D01*
X3219729Y304362D01*
X3220088Y305457D01*
X3220370Y306572D01*
X3220573Y307705D01*
X3220694Y308850D01*
X3220735Y310000D01*
X3220694Y311149D01*
X3220573Y312294D01*
X3220370Y313427D01*
X3220088Y314542D01*
X3219729Y315637D01*
X3219294Y316702D01*
X3218783Y317734D01*
X3218203Y318726D01*
X3217552Y319677D01*
X3216837Y320578D01*
X3216060Y321426D01*
X3215226Y322219D01*
X3214336Y322950D01*
X3213398Y323616D01*
X3212416Y324214D01*
X3211392Y324742D01*
X3210335Y325198D01*
X3209249Y325576D01*
X3208137Y325877D01*
X3207008Y326100D01*
X3205866Y326242D01*
X3204718Y326302D01*
X3203567Y326282D01*
X3202421Y326181D01*
X3201283Y325999D01*
X3200164Y325736D01*
X3199063Y325396D01*
X3197991Y324980D01*
X3196950Y324488D01*
X3195946Y323924D01*
X3194985Y323292D01*
X3194071Y322593D01*
X3193209Y321831D01*
X3192403Y321010D01*
X3191656Y320133D01*
X3190973Y319207D01*
X3190357Y318234D01*
X3189812Y317222D01*
X3189339Y316172D01*
X3188941Y315093D01*
X3188620Y313987D01*
X3188378Y312863D01*
X3188216Y311723D01*
X3188135Y310574D01*
X3188135Y309425D01*
X3188216Y308276D01*
X3188378Y307136D01*
X3188620Y306012D01*
X3188941Y304906D01*
X3189339Y303827D01*
X3189812Y302777D01*
X3190357Y301765D01*
X3190973Y300792D01*
X3191656Y299866D01*
X3192403Y298989D01*
X3193209Y298168D01*
X3194071Y297406D01*
X3194985Y296707D01*
X3195946Y296075D01*
X3196950Y295511D01*
X3197991Y295019D01*
X3199063Y294603D01*
X3200164Y294263D01*
X3201283Y294000D01*
X3202421Y293818D01*
X3203567Y293717D01*
G37*
G36*
X3104718Y293697D02*
G01*
X3105866Y293757D01*
X3107008Y293899D01*
X3108137Y294122D01*
X3109249Y294423D01*
X3110335Y294801D01*
X3111392Y295257D01*
X3112416Y295785D01*
X3113398Y296383D01*
X3114336Y297049D01*
X3115226Y297780D01*
X3116060Y298573D01*
X3116837Y299421D01*
X3117552Y300322D01*
X3118203Y301273D01*
X3118783Y302265D01*
X3119294Y303297D01*
X3119729Y304362D01*
X3120088Y305457D01*
X3120370Y306572D01*
X3120573Y307705D01*
X3120694Y308850D01*
X3120735Y310000D01*
X3120694Y311149D01*
X3120573Y312294D01*
X3120370Y313427D01*
X3120088Y314542D01*
X3119729Y315637D01*
X3119294Y316702D01*
X3118783Y317734D01*
X3118203Y318726D01*
X3117552Y319677D01*
X3116837Y320578D01*
X3116060Y321426D01*
X3115226Y322219D01*
X3114336Y322950D01*
X3113398Y323616D01*
X3112416Y324214D01*
X3111392Y324742D01*
X3110335Y325198D01*
X3109249Y325576D01*
X3108137Y325877D01*
X3107008Y326100D01*
X3105866Y326242D01*
X3104718Y326302D01*
X3103567Y326282D01*
X3102421Y326181D01*
X3101283Y325999D01*
X3100164Y325736D01*
X3099063Y325396D01*
X3097991Y324980D01*
X3096950Y324488D01*
X3095946Y323924D01*
X3094985Y323292D01*
X3094071Y322593D01*
X3093209Y321831D01*
X3092403Y321010D01*
X3091656Y320133D01*
X3090973Y319207D01*
X3090357Y318234D01*
X3089812Y317222D01*
X3089339Y316172D01*
X3088941Y315093D01*
X3088620Y313987D01*
X3088378Y312863D01*
X3088216Y311723D01*
X3088135Y310574D01*
X3088135Y309425D01*
X3088216Y308276D01*
X3088378Y307136D01*
X3088620Y306012D01*
X3088941Y304906D01*
X3089339Y303827D01*
X3089812Y302777D01*
X3090357Y301765D01*
X3090973Y300792D01*
X3091656Y299866D01*
X3092403Y298989D01*
X3093209Y298168D01*
X3094071Y297406D01*
X3094985Y296707D01*
X3095946Y296075D01*
X3096950Y295511D01*
X3097991Y295019D01*
X3099063Y294603D01*
X3100164Y294263D01*
X3101283Y294000D01*
X3102421Y293818D01*
X3103567Y293717D01*
G37*
G36*
X3054718Y293697D02*
G01*
X3055866Y293757D01*
X3057008Y293899D01*
X3058137Y294122D01*
X3059249Y294423D01*
X3060335Y294801D01*
X3061392Y295257D01*
X3062416Y295785D01*
X3063398Y296383D01*
X3064336Y297049D01*
X3065226Y297780D01*
X3066060Y298573D01*
X3066837Y299421D01*
X3067552Y300322D01*
X3068203Y301273D01*
X3068783Y302265D01*
X3069294Y303297D01*
X3069729Y304362D01*
X3070088Y305457D01*
X3070370Y306572D01*
X3070573Y307705D01*
X3070694Y308850D01*
X3070735Y310000D01*
X3070694Y311149D01*
X3070573Y312294D01*
X3070370Y313427D01*
X3070088Y314542D01*
X3069729Y315637D01*
X3069294Y316702D01*
X3068783Y317734D01*
X3068203Y318726D01*
X3067552Y319677D01*
X3066837Y320578D01*
X3066060Y321426D01*
X3065226Y322219D01*
X3064336Y322950D01*
X3063398Y323616D01*
X3062416Y324214D01*
X3061392Y324742D01*
X3060335Y325198D01*
X3059249Y325576D01*
X3058137Y325877D01*
X3057008Y326100D01*
X3055866Y326242D01*
X3054718Y326302D01*
X3053567Y326282D01*
X3052421Y326181D01*
X3051283Y325999D01*
X3050164Y325736D01*
X3049063Y325396D01*
X3047991Y324980D01*
X3046950Y324488D01*
X3045946Y323924D01*
X3044985Y323292D01*
X3044071Y322593D01*
X3043209Y321831D01*
X3042403Y321010D01*
X3041656Y320133D01*
X3040973Y319207D01*
X3040357Y318234D01*
X3039812Y317222D01*
X3039339Y316172D01*
X3038941Y315093D01*
X3038620Y313987D01*
X3038378Y312863D01*
X3038216Y311723D01*
X3038135Y310574D01*
X3038135Y309425D01*
X3038216Y308276D01*
X3038378Y307136D01*
X3038620Y306012D01*
X3038941Y304906D01*
X3039339Y303827D01*
X3039812Y302777D01*
X3040357Y301765D01*
X3040973Y300792D01*
X3041656Y299866D01*
X3042403Y298989D01*
X3043209Y298168D01*
X3044071Y297406D01*
X3044985Y296707D01*
X3045946Y296075D01*
X3046950Y295511D01*
X3047991Y295019D01*
X3049063Y294603D01*
X3050164Y294263D01*
X3051283Y294000D01*
X3052421Y293818D01*
X3053567Y293717D01*
G37*
G36*
X3004718Y293697D02*
G01*
X3005866Y293757D01*
X3007008Y293899D01*
X3008137Y294122D01*
X3009249Y294423D01*
X3010335Y294801D01*
X3011392Y295257D01*
X3012416Y295785D01*
X3013398Y296383D01*
X3014336Y297049D01*
X3015226Y297780D01*
X3016060Y298573D01*
X3016837Y299421D01*
X3017552Y300322D01*
X3018203Y301273D01*
X3018783Y302265D01*
X3019294Y303297D01*
X3019729Y304362D01*
X3020088Y305457D01*
X3020370Y306572D01*
X3020573Y307705D01*
X3020694Y308850D01*
X3020735Y310000D01*
X3020694Y311149D01*
X3020573Y312294D01*
X3020370Y313427D01*
X3020088Y314542D01*
X3019729Y315637D01*
X3019294Y316702D01*
X3018783Y317734D01*
X3018203Y318726D01*
X3017552Y319677D01*
X3016837Y320578D01*
X3016060Y321426D01*
X3015226Y322219D01*
X3014336Y322950D01*
X3013398Y323616D01*
X3012416Y324214D01*
X3011392Y324742D01*
X3010335Y325198D01*
X3009249Y325576D01*
X3008137Y325877D01*
X3007008Y326100D01*
X3005866Y326242D01*
X3004718Y326302D01*
X3003567Y326282D01*
X3002421Y326181D01*
X3001283Y325999D01*
X3000164Y325736D01*
X2999063Y325396D01*
X2997991Y324980D01*
X2996950Y324488D01*
X2995946Y323924D01*
X2994985Y323292D01*
X2994071Y322593D01*
X2993209Y321831D01*
X2992403Y321010D01*
X2991656Y320133D01*
X2990973Y319207D01*
X2990357Y318234D01*
X2989812Y317222D01*
X2989339Y316172D01*
X2988941Y315093D01*
X2988620Y313987D01*
X2988378Y312863D01*
X2988216Y311723D01*
X2988135Y310574D01*
X2988135Y309425D01*
X2988216Y308276D01*
X2988378Y307136D01*
X2988620Y306012D01*
X2988941Y304906D01*
X2989339Y303827D01*
X2989812Y302777D01*
X2990357Y301765D01*
X2990973Y300792D01*
X2991656Y299866D01*
X2992403Y298989D01*
X2993209Y298168D01*
X2994071Y297406D01*
X2994985Y296707D01*
X2995946Y296075D01*
X2996950Y295511D01*
X2997991Y295019D01*
X2999063Y294603D01*
X3000164Y294263D01*
X3001283Y294000D01*
X3002421Y293818D01*
X3003567Y293717D01*
G37*
G36*
X2954718Y293697D02*
G01*
X2955866Y293757D01*
X2957008Y293899D01*
X2958137Y294122D01*
X2959249Y294423D01*
X2960335Y294801D01*
X2961392Y295257D01*
X2962416Y295785D01*
X2963398Y296383D01*
X2964336Y297049D01*
X2965226Y297780D01*
X2966060Y298573D01*
X2966837Y299421D01*
X2967552Y300322D01*
X2968203Y301273D01*
X2968783Y302265D01*
X2969294Y303297D01*
X2969729Y304362D01*
X2970088Y305457D01*
X2970370Y306572D01*
X2970573Y307705D01*
X2970694Y308850D01*
X2970735Y310000D01*
X2970694Y311149D01*
X2970573Y312294D01*
X2970370Y313427D01*
X2970088Y314542D01*
X2969729Y315637D01*
X2969294Y316702D01*
X2968783Y317734D01*
X2968203Y318726D01*
X2967552Y319677D01*
X2966837Y320578D01*
X2966060Y321426D01*
X2965226Y322219D01*
X2964336Y322950D01*
X2963398Y323616D01*
X2962416Y324214D01*
X2961392Y324742D01*
X2960335Y325198D01*
X2959249Y325576D01*
X2958137Y325877D01*
X2957008Y326100D01*
X2955866Y326242D01*
X2954718Y326302D01*
X2953567Y326282D01*
X2952421Y326181D01*
X2951283Y325999D01*
X2950164Y325736D01*
X2949063Y325396D01*
X2947991Y324980D01*
X2946950Y324488D01*
X2945946Y323924D01*
X2944985Y323292D01*
X2944071Y322593D01*
X2943209Y321831D01*
X2942403Y321010D01*
X2941656Y320133D01*
X2940973Y319207D01*
X2940357Y318234D01*
X2939812Y317222D01*
X2939339Y316172D01*
X2938941Y315093D01*
X2938620Y313987D01*
X2938378Y312863D01*
X2938216Y311723D01*
X2938135Y310574D01*
X2938135Y309425D01*
X2938216Y308276D01*
X2938378Y307136D01*
X2938620Y306012D01*
X2938941Y304906D01*
X2939339Y303827D01*
X2939812Y302777D01*
X2940357Y301765D01*
X2940973Y300792D01*
X2941656Y299866D01*
X2942403Y298989D01*
X2943209Y298168D01*
X2944071Y297406D01*
X2944985Y296707D01*
X2945946Y296075D01*
X2946950Y295511D01*
X2947991Y295019D01*
X2949063Y294603D01*
X2950164Y294263D01*
X2951283Y294000D01*
X2952421Y293818D01*
X2953567Y293717D01*
G37*
G36*
X2904718Y293697D02*
G01*
X2905866Y293757D01*
X2907008Y293899D01*
X2908137Y294122D01*
X2909249Y294423D01*
X2910335Y294801D01*
X2911392Y295257D01*
X2912416Y295785D01*
X2913398Y296383D01*
X2914336Y297049D01*
X2915226Y297780D01*
X2916060Y298573D01*
X2916837Y299421D01*
X2917552Y300322D01*
X2918203Y301273D01*
X2918783Y302265D01*
X2919294Y303297D01*
X2919729Y304362D01*
X2920088Y305457D01*
X2920370Y306572D01*
X2920573Y307705D01*
X2920694Y308850D01*
X2920735Y310000D01*
X2920694Y311149D01*
X2920573Y312294D01*
X2920370Y313427D01*
X2920088Y314542D01*
X2919729Y315637D01*
X2919294Y316702D01*
X2918783Y317734D01*
X2918203Y318726D01*
X2917552Y319677D01*
X2916837Y320578D01*
X2916060Y321426D01*
X2915226Y322219D01*
X2914336Y322950D01*
X2913398Y323616D01*
X2912416Y324214D01*
X2911392Y324742D01*
X2910335Y325198D01*
X2909249Y325576D01*
X2908137Y325877D01*
X2907008Y326100D01*
X2905866Y326242D01*
X2904718Y326302D01*
X2903567Y326282D01*
X2902421Y326181D01*
X2901283Y325999D01*
X2900164Y325736D01*
X2899063Y325396D01*
X2897991Y324980D01*
X2896950Y324488D01*
X2895946Y323924D01*
X2894985Y323292D01*
X2894071Y322593D01*
X2893209Y321831D01*
X2892403Y321010D01*
X2891656Y320133D01*
X2890973Y319207D01*
X2890357Y318234D01*
X2889812Y317222D01*
X2889339Y316172D01*
X2888941Y315093D01*
X2888620Y313987D01*
X2888378Y312863D01*
X2888216Y311723D01*
X2888135Y310574D01*
X2888135Y309425D01*
X2888216Y308276D01*
X2888378Y307136D01*
X2888620Y306012D01*
X2888941Y304906D01*
X2889339Y303827D01*
X2889812Y302777D01*
X2890357Y301765D01*
X2890973Y300792D01*
X2891656Y299866D01*
X2892403Y298989D01*
X2893209Y298168D01*
X2894071Y297406D01*
X2894985Y296707D01*
X2895946Y296075D01*
X2896950Y295511D01*
X2897991Y295019D01*
X2899063Y294603D01*
X2900164Y294263D01*
X2901283Y294000D01*
X2902421Y293818D01*
X2903567Y293717D01*
G37*
G36*
X2854718Y293697D02*
G01*
X2855866Y293757D01*
X2857008Y293899D01*
X2858137Y294122D01*
X2859249Y294423D01*
X2860335Y294801D01*
X2861392Y295257D01*
X2862416Y295785D01*
X2863398Y296383D01*
X2864336Y297049D01*
X2865226Y297780D01*
X2866060Y298573D01*
X2866837Y299421D01*
X2867552Y300322D01*
X2868203Y301273D01*
X2868783Y302265D01*
X2869294Y303297D01*
X2869729Y304362D01*
X2870088Y305457D01*
X2870370Y306572D01*
X2870573Y307705D01*
X2870694Y308850D01*
X2870735Y310000D01*
X2870694Y311149D01*
X2870573Y312294D01*
X2870370Y313427D01*
X2870088Y314542D01*
X2869729Y315637D01*
X2869294Y316702D01*
X2868783Y317734D01*
X2868203Y318726D01*
X2867552Y319677D01*
X2866837Y320578D01*
X2866060Y321426D01*
X2865226Y322219D01*
X2864336Y322950D01*
X2863398Y323616D01*
X2862416Y324214D01*
X2861392Y324742D01*
X2860335Y325198D01*
X2859249Y325576D01*
X2858137Y325877D01*
X2857008Y326100D01*
X2855866Y326242D01*
X2854718Y326302D01*
X2853567Y326282D01*
X2852421Y326181D01*
X2851283Y325999D01*
X2850164Y325736D01*
X2849063Y325396D01*
X2847991Y324980D01*
X2846950Y324488D01*
X2845946Y323924D01*
X2844985Y323292D01*
X2844071Y322593D01*
X2843209Y321831D01*
X2842403Y321010D01*
X2841656Y320133D01*
X2840973Y319207D01*
X2840357Y318234D01*
X2839812Y317222D01*
X2839339Y316172D01*
X2838941Y315093D01*
X2838620Y313987D01*
X2838378Y312863D01*
X2838216Y311723D01*
X2838135Y310574D01*
X2838135Y309425D01*
X2838216Y308276D01*
X2838378Y307136D01*
X2838620Y306012D01*
X2838941Y304906D01*
X2839339Y303827D01*
X2839812Y302777D01*
X2840357Y301765D01*
X2840973Y300792D01*
X2841656Y299866D01*
X2842403Y298989D01*
X2843209Y298168D01*
X2844071Y297406D01*
X2844985Y296707D01*
X2845946Y296075D01*
X2846950Y295511D01*
X2847991Y295019D01*
X2849063Y294603D01*
X2850164Y294263D01*
X2851283Y294000D01*
X2852421Y293818D01*
X2853567Y293717D01*
G37*
G36*
X2804718Y293697D02*
G01*
X2805866Y293757D01*
X2807008Y293899D01*
X2808137Y294122D01*
X2809249Y294423D01*
X2810335Y294801D01*
X2811392Y295257D01*
X2812416Y295785D01*
X2813398Y296383D01*
X2814336Y297049D01*
X2815226Y297780D01*
X2816060Y298573D01*
X2816837Y299421D01*
X2817552Y300322D01*
X2818203Y301273D01*
X2818783Y302265D01*
X2819294Y303297D01*
X2819729Y304362D01*
X2820088Y305457D01*
X2820370Y306572D01*
X2820573Y307705D01*
X2820694Y308850D01*
X2820735Y310000D01*
X2820694Y311149D01*
X2820573Y312294D01*
X2820370Y313427D01*
X2820088Y314542D01*
X2819729Y315637D01*
X2819294Y316702D01*
X2818783Y317734D01*
X2818203Y318726D01*
X2817552Y319677D01*
X2816837Y320578D01*
X2816060Y321426D01*
X2815226Y322219D01*
X2814336Y322950D01*
X2813398Y323616D01*
X2812416Y324214D01*
X2811392Y324742D01*
X2810335Y325198D01*
X2809249Y325576D01*
X2808137Y325877D01*
X2807008Y326100D01*
X2805866Y326242D01*
X2804718Y326302D01*
X2803567Y326282D01*
X2802421Y326181D01*
X2801283Y325999D01*
X2800164Y325736D01*
X2799063Y325396D01*
X2797991Y324980D01*
X2796950Y324488D01*
X2795946Y323924D01*
X2794985Y323292D01*
X2794071Y322593D01*
X2793209Y321831D01*
X2792403Y321010D01*
X2791656Y320133D01*
X2790973Y319207D01*
X2790357Y318234D01*
X2789812Y317222D01*
X2789339Y316172D01*
X2788941Y315093D01*
X2788620Y313987D01*
X2788378Y312863D01*
X2788216Y311723D01*
X2788135Y310574D01*
X2788135Y309425D01*
X2788216Y308276D01*
X2788378Y307136D01*
X2788620Y306012D01*
X2788941Y304906D01*
X2789339Y303827D01*
X2789812Y302777D01*
X2790357Y301765D01*
X2790973Y300792D01*
X2791656Y299866D01*
X2792403Y298989D01*
X2793209Y298168D01*
X2794071Y297406D01*
X2794985Y296707D01*
X2795946Y296075D01*
X2796950Y295511D01*
X2797991Y295019D01*
X2799063Y294603D01*
X2800164Y294263D01*
X2801283Y294000D01*
X2802421Y293818D01*
X2803567Y293717D01*
G37*
G36*
X1022488Y368297D02*
G01*
X1023636Y368357D01*
X1024778Y368499D01*
X1025907Y368721D01*
X1027019Y369023D01*
X1028105Y369402D01*
X1029162Y369857D01*
X1030186Y370385D01*
X1031168Y370983D01*
X1032106Y371649D01*
X1032996Y372381D01*
X1033831Y373173D01*
X1034607Y374021D01*
X1035322Y374922D01*
X1035973Y375873D01*
X1036553Y376866D01*
X1037064Y377898D01*
X1037500Y378962D01*
X1037858Y380057D01*
X1038140Y381172D01*
X1038343Y382305D01*
X1038464Y383449D01*
X1038504Y384600D01*
X1038464Y385749D01*
X1038343Y386894D01*
X1038140Y388027D01*
X1037858Y389142D01*
X1037500Y390237D01*
X1037064Y391302D01*
X1036553Y392334D01*
X1035973Y393326D01*
X1035322Y394277D01*
X1034607Y395178D01*
X1033831Y396026D01*
X1032996Y396819D01*
X1032106Y397550D01*
X1031168Y398216D01*
X1030186Y398814D01*
X1029162Y399342D01*
X1028105Y399798D01*
X1027019Y400176D01*
X1025907Y400477D01*
X1024778Y400700D01*
X1023636Y400841D01*
X1022488Y400902D01*
X1021337Y400882D01*
X1020191Y400781D01*
X1019053Y400599D01*
X1017933Y400336D01*
X1016833Y399996D01*
X1015761Y399580D01*
X1014720Y399088D01*
X1013716Y398524D01*
X1012755Y397892D01*
X1011841Y397193D01*
X1010979Y396430D01*
X1010173Y395610D01*
X1009426Y394733D01*
X1008743Y393807D01*
X1008127Y392835D01*
X1007582Y391822D01*
X1007109Y390772D01*
X1006710Y389693D01*
X1006390Y388587D01*
X1006148Y387462D01*
X1005986Y386323D01*
X1005905Y385174D01*
X1005905Y384025D01*
X1005986Y382876D01*
X1006148Y381736D01*
X1006390Y380612D01*
X1006710Y379506D01*
X1007109Y378427D01*
X1007582Y377377D01*
X1008127Y376365D01*
X1008743Y375392D01*
X1009426Y374466D01*
X1010173Y373589D01*
X1010979Y372768D01*
X1011841Y372006D01*
X1012755Y371307D01*
X1013716Y370675D01*
X1014720Y370111D01*
X1015761Y369619D01*
X1016833Y369203D01*
X1017933Y368863D01*
X1019053Y368600D01*
X1020191Y368418D01*
X1021337Y368317D01*
G37*
G36*
X1515288Y383697D02*
G01*
X1516436Y383757D01*
X1517578Y383899D01*
X1518707Y384122D01*
X1519818Y384423D01*
X1520906Y384801D01*
X1521962Y385257D01*
X1522986Y385785D01*
X1523968Y386383D01*
X1524907Y387049D01*
X1525796Y387780D01*
X1526630Y388573D01*
X1527407Y389421D01*
X1528122Y390322D01*
X1528773Y391273D01*
X1529354Y392265D01*
X1529863Y393297D01*
X1530299Y394362D01*
X1530658Y395457D01*
X1530941Y396572D01*
X1531143Y397705D01*
X1531264Y398850D01*
X1531305Y400000D01*
X1531264Y401149D01*
X1531143Y402294D01*
X1530941Y403427D01*
X1530658Y404542D01*
X1530299Y405637D01*
X1529863Y406702D01*
X1529354Y407734D01*
X1528773Y408726D01*
X1528122Y409677D01*
X1527407Y410578D01*
X1526630Y411426D01*
X1525796Y412219D01*
X1524907Y412950D01*
X1523968Y413616D01*
X1522986Y414214D01*
X1521962Y414742D01*
X1520906Y415198D01*
X1519818Y415576D01*
X1518707Y415877D01*
X1517578Y416100D01*
X1516436Y416242D01*
X1515288Y416302D01*
X1514137Y416282D01*
X1512991Y416181D01*
X1511854Y415999D01*
X1510734Y415736D01*
X1509633Y415396D01*
X1508560Y414980D01*
X1507520Y414488D01*
X1506517Y413924D01*
X1505555Y413292D01*
X1504642Y412593D01*
X1503779Y411831D01*
X1502973Y411010D01*
X1502227Y410133D01*
X1501544Y409207D01*
X1500928Y408234D01*
X1500381Y407222D01*
X1499908Y406172D01*
X1499511Y405093D01*
X1499189Y403987D01*
X1498948Y402863D01*
X1498786Y401723D01*
X1498705Y400574D01*
X1498705Y399425D01*
X1498786Y398276D01*
X1498948Y397136D01*
X1499189Y396012D01*
X1499511Y394906D01*
X1499908Y393827D01*
X1500381Y392777D01*
X1500928Y391765D01*
X1501544Y390792D01*
X1502227Y389866D01*
X1502973Y388989D01*
X1503779Y388168D01*
X1504642Y387406D01*
X1505555Y386707D01*
X1506517Y386075D01*
X1507520Y385511D01*
X1508560Y385019D01*
X1509633Y384603D01*
X1510734Y384263D01*
X1511854Y384000D01*
X1512991Y383818D01*
X1514137Y383717D01*
G37*
G36*
X1580288Y383697D02*
G01*
X1581436Y383757D01*
X1582578Y383899D01*
X1583707Y384122D01*
X1584818Y384423D01*
X1585906Y384801D01*
X1586962Y385257D01*
X1587986Y385785D01*
X1588968Y386383D01*
X1589907Y387049D01*
X1590796Y387780D01*
X1591630Y388573D01*
X1592407Y389421D01*
X1593122Y390322D01*
X1593773Y391273D01*
X1594354Y392265D01*
X1594863Y393297D01*
X1595299Y394362D01*
X1595658Y395457D01*
X1595941Y396572D01*
X1596143Y397705D01*
X1596264Y398850D01*
X1596305Y400000D01*
X1596264Y401149D01*
X1596143Y402294D01*
X1595941Y403427D01*
X1595658Y404542D01*
X1595299Y405637D01*
X1594863Y406702D01*
X1594354Y407734D01*
X1593773Y408726D01*
X1593122Y409677D01*
X1592407Y410578D01*
X1591630Y411426D01*
X1590796Y412219D01*
X1589907Y412950D01*
X1588968Y413616D01*
X1587986Y414214D01*
X1586962Y414742D01*
X1585906Y415198D01*
X1584818Y415576D01*
X1583707Y415877D01*
X1582578Y416100D01*
X1581436Y416242D01*
X1580288Y416302D01*
X1579137Y416282D01*
X1577991Y416181D01*
X1576854Y415999D01*
X1575734Y415736D01*
X1574633Y415396D01*
X1573560Y414980D01*
X1572520Y414488D01*
X1571517Y413924D01*
X1570555Y413292D01*
X1569642Y412593D01*
X1568779Y411831D01*
X1567973Y411010D01*
X1567227Y410133D01*
X1566544Y409207D01*
X1565928Y408234D01*
X1565381Y407222D01*
X1564908Y406172D01*
X1564511Y405093D01*
X1564189Y403987D01*
X1563948Y402863D01*
X1563786Y401723D01*
X1563705Y400574D01*
X1563705Y399425D01*
X1563786Y398276D01*
X1563948Y397136D01*
X1564189Y396012D01*
X1564511Y394906D01*
X1564908Y393827D01*
X1565381Y392777D01*
X1565928Y391765D01*
X1566544Y390792D01*
X1567227Y389866D01*
X1567973Y388989D01*
X1568779Y388168D01*
X1569642Y387406D01*
X1570555Y386707D01*
X1571517Y386075D01*
X1572520Y385511D01*
X1573560Y385019D01*
X1574633Y384603D01*
X1575734Y384263D01*
X1576854Y384000D01*
X1577991Y383818D01*
X1579137Y383717D01*
G37*
G36*
X1273055Y401930D02*
G01*
X1274439Y401970D01*
X1275816Y402091D01*
X1277186Y402291D01*
X1278540Y402570D01*
X1279877Y402928D01*
X1281190Y403364D01*
X1282476Y403874D01*
X1283730Y404459D01*
X1284948Y405117D01*
X1286126Y405842D01*
X1287259Y406635D01*
X1288344Y407494D01*
X1289377Y408413D01*
X1290357Y409393D01*
X1291275Y410426D01*
X1292134Y411511D01*
X1292928Y412645D01*
X1293653Y413822D01*
X1294310Y415039D01*
X1294895Y416293D01*
X1295406Y417579D01*
X1295842Y418892D01*
X1296199Y420230D01*
X1296480Y421585D01*
X1296679Y422953D01*
X1296800Y424331D01*
X1296841Y425715D01*
X1296800Y427098D01*
X1296679Y428476D01*
X1296480Y429845D01*
X1296199Y431199D01*
X1295842Y432537D01*
X1295406Y433850D01*
X1294895Y435136D01*
X1294310Y436390D01*
X1293653Y437606D01*
X1292928Y438784D01*
X1292134Y439917D01*
X1291275Y441003D01*
X1290357Y442037D01*
X1289377Y443015D01*
X1288344Y443935D01*
X1287259Y444794D01*
X1286126Y445587D01*
X1284948Y446313D01*
X1283730Y446970D01*
X1282476Y447555D01*
X1281190Y448065D01*
X1279877Y448501D01*
X1278540Y448859D01*
X1277186Y449139D01*
X1275816Y449338D01*
X1274439Y449459D01*
X1273055Y449499D01*
X1271673Y449459D01*
X1270294Y449338D01*
X1268926Y449139D01*
X1267570Y448859D01*
X1266234Y448501D01*
X1264921Y448065D01*
X1263635Y447555D01*
X1262380Y446970D01*
X1261162Y446313D01*
X1259985Y445587D01*
X1258852Y444794D01*
X1257767Y443935D01*
X1256733Y443015D01*
X1255754Y442037D01*
X1254835Y441003D01*
X1253977Y439917D01*
X1253184Y438784D01*
X1252457Y437606D01*
X1251800Y436390D01*
X1251216Y435136D01*
X1250704Y433850D01*
X1250270Y432537D01*
X1249912Y431199D01*
X1249632Y429845D01*
X1249431Y428476D01*
X1249310Y427098D01*
X1249270Y425715D01*
X1249310Y424331D01*
X1249431Y422953D01*
X1249632Y421585D01*
X1249912Y420230D01*
X1250270Y418892D01*
X1250704Y417579D01*
X1251216Y416293D01*
X1251800Y415039D01*
X1252457Y413822D01*
X1253184Y412645D01*
X1253977Y411511D01*
X1254835Y410426D01*
X1255754Y409393D01*
X1256733Y408413D01*
X1257767Y407494D01*
X1258852Y406635D01*
X1259985Y405842D01*
X1261162Y405117D01*
X1262380Y404459D01*
X1263635Y403874D01*
X1264921Y403364D01*
X1266234Y402928D01*
X1267570Y402570D01*
X1268926Y402291D01*
X1270294Y402091D01*
X1271673Y401970D01*
G37*
G36*
X1203370Y402029D02*
G01*
X1242740Y402029D01*
X1243014Y402038D01*
X1243285Y402067D01*
X1243554Y402114D01*
X1243819Y402177D01*
X1244080Y402260D01*
X1244335Y402361D01*
X1244580Y402478D01*
X1244818Y402611D01*
X1245047Y402761D01*
X1245264Y402926D01*
X1245470Y403107D01*
X1245663Y403299D01*
X1245843Y403506D01*
X1246009Y403722D01*
X1246158Y403951D01*
X1246292Y404189D01*
X1246409Y404436D01*
X1246509Y404690D01*
X1246593Y404951D01*
X1246656Y405216D01*
X1246703Y405484D01*
X1246732Y405756D01*
X1246741Y406030D01*
X1246741Y445399D01*
X1246732Y445673D01*
X1246703Y445945D01*
X1246656Y446213D01*
X1246593Y446478D01*
X1246509Y446739D01*
X1246409Y446993D01*
X1246292Y447240D01*
X1246158Y447478D01*
X1246009Y447707D01*
X1245843Y447923D01*
X1245663Y448130D01*
X1245470Y448323D01*
X1245264Y448503D01*
X1245047Y448667D01*
X1244818Y448818D01*
X1244580Y448951D01*
X1244335Y449068D01*
X1244080Y449169D01*
X1243819Y449252D01*
X1243554Y449315D01*
X1243285Y449362D01*
X1243014Y449391D01*
X1242740Y449400D01*
X1203370Y449400D01*
X1203098Y449391D01*
X1202825Y449362D01*
X1202556Y449315D01*
X1202291Y449252D01*
X1202030Y449169D01*
X1201777Y449068D01*
X1201531Y448951D01*
X1201292Y448818D01*
X1201063Y448667D01*
X1200847Y448503D01*
X1200640Y448323D01*
X1200447Y448130D01*
X1200267Y447923D01*
X1200102Y447707D01*
X1199952Y447478D01*
X1199818Y447240D01*
X1199701Y446993D01*
X1199602Y446739D01*
X1199519Y446478D01*
X1199454Y446213D01*
X1199408Y445945D01*
X1199380Y445673D01*
X1199371Y445399D01*
X1199371Y406030D01*
X1199380Y405756D01*
X1199408Y405484D01*
X1199454Y405216D01*
X1199519Y404951D01*
X1199602Y404690D01*
X1199701Y404436D01*
X1199818Y404189D01*
X1199952Y403951D01*
X1200102Y403722D01*
X1200267Y403506D01*
X1200447Y403299D01*
X1200640Y403107D01*
X1200847Y402926D01*
X1201063Y402761D01*
X1201292Y402611D01*
X1201531Y402478D01*
X1201777Y402361D01*
X1202030Y402260D01*
X1202291Y402177D01*
X1202556Y402114D01*
X1202825Y402067D01*
X1203098Y402038D01*
G37*
G36*
X1174287Y404697D02*
G01*
X1175437Y404758D01*
X1176579Y404899D01*
X1177708Y405122D01*
X1178819Y405423D01*
X1179906Y405801D01*
X1180963Y406257D01*
X1181985Y406784D01*
X1182969Y407382D01*
X1183906Y408049D01*
X1184795Y408780D01*
X1185631Y409573D01*
X1186408Y410421D01*
X1187123Y411323D01*
X1187772Y412273D01*
X1188353Y413265D01*
X1188864Y414297D01*
X1189300Y415363D01*
X1189659Y416457D01*
X1189940Y417572D01*
X1190142Y418704D01*
X1190263Y419850D01*
X1190304Y420999D01*
X1190263Y422150D01*
X1190142Y423294D01*
X1189940Y424427D01*
X1189659Y425542D01*
X1189300Y426637D01*
X1188864Y427701D01*
X1188353Y428733D01*
X1187772Y429726D01*
X1187123Y430677D01*
X1186408Y431577D01*
X1185631Y432426D01*
X1184795Y433218D01*
X1183906Y433949D01*
X1182969Y434616D01*
X1181985Y435214D01*
X1180963Y435743D01*
X1179906Y436197D01*
X1178819Y436577D01*
X1177708Y436878D01*
X1176579Y437100D01*
X1175437Y437242D01*
X1174287Y437301D01*
X1173136Y437282D01*
X1171990Y437181D01*
X1170853Y436999D01*
X1169733Y436736D01*
X1168634Y436397D01*
X1167560Y435979D01*
X1166521Y435488D01*
X1165516Y434924D01*
X1164556Y434292D01*
X1163641Y433593D01*
X1162780Y432831D01*
X1161972Y432010D01*
X1161226Y431134D01*
X1160543Y430207D01*
X1159928Y429234D01*
X1159381Y428222D01*
X1158909Y427172D01*
X1158510Y426093D01*
X1158190Y424987D01*
X1157947Y423863D01*
X1157785Y422723D01*
X1157704Y421574D01*
X1157704Y420425D01*
X1157785Y419277D01*
X1157947Y418137D01*
X1158190Y417011D01*
X1158510Y415907D01*
X1158909Y414827D01*
X1159381Y413778D01*
X1159928Y412764D01*
X1160543Y411792D01*
X1161226Y410866D01*
X1161972Y409989D01*
X1162780Y409169D01*
X1163641Y408407D01*
X1164556Y407707D01*
X1165516Y407074D01*
X1166521Y406511D01*
X1167560Y406019D01*
X1168634Y405603D01*
X1169733Y405262D01*
X1170853Y405001D01*
X1171990Y404819D01*
X1173136Y404717D01*
G37*
G36*
X2410169Y405902D02*
G01*
X2411237Y405922D01*
X2412299Y406024D01*
X2413351Y406203D01*
X2414386Y406464D01*
X2415398Y406801D01*
X2416382Y407215D01*
X2417331Y407701D01*
X2418243Y408258D01*
X2419107Y408881D01*
X2419925Y409569D01*
X2420685Y410317D01*
X2421388Y411120D01*
X2422029Y411972D01*
X2422602Y412872D01*
X2423107Y413814D01*
X2423539Y414789D01*
X2423896Y415794D01*
X2424174Y416824D01*
X2424376Y417872D01*
X2424497Y418933D01*
X2424537Y420000D01*
X2424497Y421066D01*
X2424376Y422127D01*
X2424174Y423175D01*
X2423896Y424205D01*
X2423539Y425210D01*
X2423107Y426185D01*
X2422602Y427127D01*
X2422029Y428027D01*
X2421388Y428879D01*
X2420685Y429683D01*
X2419925Y430430D01*
X2419107Y431118D01*
X2418243Y431741D01*
X2417331Y432298D01*
X2416382Y432784D01*
X2415398Y433198D01*
X2414386Y433535D01*
X2413351Y433796D01*
X2412299Y433975D01*
X2411237Y434077D01*
X2410169Y434097D01*
X2409104Y434036D01*
X2408046Y433895D01*
X2407003Y433674D01*
X2405977Y433377D01*
X2404979Y433000D01*
X2404012Y432550D01*
X2403081Y432029D01*
X2402191Y431437D01*
X2401351Y430781D01*
X2400562Y430064D01*
X2399828Y429288D01*
X2399156Y428460D01*
X2398549Y427582D01*
X2398010Y426660D01*
X2397542Y425702D01*
X2397147Y424711D01*
X2396828Y423692D01*
X2396589Y422653D01*
X2396427Y421597D01*
X2396346Y420533D01*
X2396346Y419466D01*
X2396427Y418402D01*
X2396589Y417346D01*
X2396828Y416307D01*
X2397147Y415288D01*
X2397542Y414297D01*
X2398010Y413339D01*
X2398549Y412417D01*
X2399156Y411539D01*
X2399828Y410711D01*
X2400562Y409935D01*
X2401351Y409218D01*
X2402191Y408562D01*
X2403081Y407970D01*
X2404012Y407449D01*
X2404979Y406999D01*
X2405977Y406622D01*
X2407003Y406325D01*
X2408046Y406104D01*
X2409104Y405963D01*
G37*
G36*
X1070558Y435028D02*
G01*
X1071010Y435108D01*
X1071207Y435147D01*
X1072355Y435410D01*
X1072548Y435459D01*
X1073683Y435778D01*
X1073873Y435837D01*
X1074989Y436212D01*
X1075181Y436280D01*
X1076277Y436712D01*
X1076458Y436788D01*
X1077530Y437273D01*
X1077709Y437359D01*
X1078757Y437896D01*
X1078933Y437991D01*
X1079953Y438580D01*
X1080123Y438683D01*
X1081112Y439322D01*
X1081280Y439436D01*
X1082236Y440124D01*
X1082393Y440243D01*
X1083314Y440978D01*
X1083467Y441105D01*
X1084350Y441885D01*
X1084498Y442022D01*
X1085340Y442845D01*
X1085478Y442986D01*
X1086279Y443850D01*
X1086412Y444000D01*
X1087169Y444902D01*
X1087294Y445057D01*
X1088005Y445997D01*
X1088122Y446159D01*
X1088784Y447132D01*
X1088891Y447296D01*
X1089506Y448301D01*
X1089606Y448476D01*
X1090169Y449511D01*
X1090261Y449688D01*
X1090599Y450390D01*
X1070558Y450390D01*
G37*
G36*
X1033155Y435028D02*
G01*
X1033155Y450390D01*
X1013113Y450390D01*
X1013451Y449688D01*
X1013542Y449511D01*
X1014106Y448476D01*
X1014206Y448301D01*
X1014822Y447296D01*
X1014927Y447132D01*
X1015591Y446159D01*
X1015708Y445997D01*
X1016418Y445057D01*
X1016544Y444902D01*
X1017300Y444000D01*
X1017433Y443850D01*
X1018234Y442986D01*
X1018371Y442845D01*
X1019215Y442022D01*
X1019363Y441885D01*
X1020245Y441105D01*
X1020398Y440978D01*
X1021319Y440243D01*
X1021476Y440124D01*
X1022431Y439436D01*
X1022600Y439322D01*
X1023590Y438683D01*
X1023759Y438580D01*
X1024778Y437991D01*
X1024954Y437896D01*
X1026003Y437359D01*
X1026181Y437273D01*
X1027254Y436788D01*
X1027435Y436712D01*
X1028531Y436280D01*
X1028723Y436212D01*
X1029840Y435837D01*
X1030029Y435778D01*
X1031163Y435459D01*
X1031356Y435410D01*
X1032505Y435147D01*
X1032701Y435108D01*
G37*
G36*
X1935284Y444902D02*
G01*
X1936418Y444962D01*
X1937547Y445102D01*
X1938662Y445322D01*
X1939758Y445619D01*
X1940832Y445992D01*
X1941876Y446442D01*
X1942884Y446963D01*
X1943855Y447554D01*
X1944781Y448213D01*
X1945659Y448933D01*
X1946484Y449715D01*
X1947251Y450554D01*
X1947957Y451444D01*
X1948599Y452382D01*
X1949174Y453364D01*
X1949677Y454382D01*
X1950106Y455434D01*
X1950461Y456514D01*
X1950739Y457615D01*
X1950940Y458733D01*
X1951059Y459863D01*
X1951099Y460999D01*
X1951059Y462136D01*
X1950940Y463265D01*
X1950739Y464384D01*
X1950461Y465486D01*
X1950106Y466565D01*
X1949677Y467618D01*
X1949174Y468636D01*
X1948599Y469616D01*
X1947957Y470554D01*
X1947251Y471444D01*
X1946484Y472283D01*
X1945659Y473065D01*
X1944781Y473787D01*
X1943855Y474445D01*
X1942884Y475037D01*
X1941876Y475558D01*
X1940832Y476006D01*
X1939758Y476381D01*
X1938662Y476678D01*
X1937547Y476896D01*
X1936418Y477037D01*
X1935284Y477096D01*
X1934147Y477076D01*
X1933015Y476977D01*
X1931894Y476797D01*
X1930787Y476538D01*
X1929701Y476203D01*
X1928641Y475792D01*
X1927614Y475306D01*
X1926624Y474749D01*
X1925675Y474124D01*
X1924772Y473434D01*
X1923921Y472681D01*
X1923125Y471871D01*
X1922386Y471006D01*
X1921712Y470091D01*
X1921104Y469131D01*
X1920565Y468130D01*
X1920097Y467096D01*
X1919705Y466028D01*
X1919389Y464938D01*
X1919149Y463827D01*
X1918990Y462701D01*
X1918909Y461568D01*
X1918909Y460432D01*
X1918990Y459297D01*
X1919149Y458173D01*
X1919389Y457062D01*
X1919705Y455970D01*
X1920097Y454904D01*
X1920565Y453868D01*
X1921104Y452867D01*
X1921712Y451907D01*
X1922386Y450994D01*
X1923125Y450129D01*
X1923921Y449317D01*
X1924772Y448566D01*
X1925675Y447874D01*
X1926624Y447249D01*
X1927614Y446694D01*
X1928641Y446208D01*
X1929701Y445796D01*
X1930787Y445461D01*
X1931894Y445201D01*
X1933015Y445023D01*
X1934147Y444922D01*
G37*
G36*
X1981288Y455698D02*
G01*
X1982437Y455758D01*
X1983578Y455900D01*
X1984708Y456122D01*
X1985819Y456422D01*
X1986905Y456801D01*
X1987962Y457256D01*
X1988986Y457784D01*
X1989969Y458382D01*
X1990906Y459050D01*
X1991796Y459780D01*
X1992631Y460572D01*
X1993407Y461421D01*
X1994122Y462323D01*
X1994772Y463272D01*
X1995353Y464265D01*
X1995864Y465297D01*
X1996300Y466363D01*
X1996658Y467456D01*
X1996940Y468571D01*
X1997142Y469704D01*
X1997263Y470850D01*
X1997304Y471999D01*
X1997263Y473150D01*
X1997142Y474295D01*
X1996940Y475428D01*
X1996658Y476543D01*
X1996300Y477636D01*
X1995864Y478701D01*
X1995353Y479733D01*
X1994772Y480727D01*
X1994122Y481676D01*
X1993407Y482577D01*
X1992631Y483427D01*
X1991796Y484218D01*
X1990906Y484949D01*
X1989969Y485617D01*
X1988986Y486215D01*
X1987962Y486743D01*
X1986905Y487197D01*
X1985819Y487577D01*
X1984708Y487878D01*
X1983578Y488099D01*
X1982437Y488242D01*
X1981288Y488301D01*
X1980137Y488281D01*
X1978990Y488180D01*
X1977853Y487998D01*
X1976733Y487737D01*
X1975634Y487397D01*
X1974561Y486979D01*
X1973521Y486487D01*
X1972516Y485925D01*
X1971556Y485291D01*
X1970641Y484592D01*
X1969780Y483831D01*
X1968972Y483009D01*
X1968226Y482134D01*
X1967543Y481208D01*
X1966927Y480234D01*
X1966382Y479221D01*
X1965909Y478173D01*
X1965510Y477092D01*
X1965190Y475988D01*
X1964948Y474863D01*
X1964786Y473722D01*
X1964705Y472575D01*
X1964705Y471424D01*
X1964786Y470277D01*
X1964948Y469137D01*
X1965190Y468011D01*
X1965510Y466907D01*
X1965909Y465826D01*
X1966382Y464778D01*
X1966927Y463764D01*
X1967543Y462791D01*
X1968226Y461866D01*
X1968972Y460990D01*
X1969780Y460169D01*
X1970641Y459407D01*
X1971556Y458708D01*
X1972516Y458074D01*
X1973521Y457512D01*
X1974561Y457020D01*
X1975634Y456603D01*
X1976733Y456262D01*
X1977853Y456001D01*
X1978990Y455819D01*
X1980137Y455718D01*
G37*
G36*
X1213288Y462698D02*
G01*
X1214436Y462757D01*
X1215578Y462899D01*
X1216707Y463121D01*
X1217818Y463422D01*
X1218905Y463802D01*
X1219962Y464256D01*
X1220986Y464785D01*
X1221968Y465383D01*
X1222906Y466050D01*
X1223796Y466781D01*
X1224630Y467573D01*
X1225407Y468422D01*
X1226122Y469322D01*
X1226773Y470273D01*
X1227353Y471266D01*
X1227863Y472298D01*
X1228299Y473362D01*
X1228658Y474457D01*
X1228941Y475572D01*
X1229143Y476705D01*
X1229264Y477849D01*
X1229305Y479000D01*
X1229264Y480149D01*
X1229143Y481295D01*
X1228941Y482427D01*
X1228658Y483542D01*
X1228299Y484636D01*
X1227863Y485702D01*
X1227353Y486734D01*
X1226773Y487726D01*
X1226122Y488676D01*
X1225407Y489578D01*
X1224630Y490426D01*
X1223796Y491219D01*
X1222906Y491950D01*
X1221968Y492617D01*
X1220986Y493215D01*
X1219962Y493742D01*
X1218905Y494198D01*
X1217818Y494576D01*
X1216707Y494877D01*
X1215578Y495100D01*
X1214436Y495241D01*
X1213288Y495302D01*
X1212137Y495282D01*
X1210991Y495180D01*
X1209853Y494998D01*
X1208734Y494737D01*
X1207633Y494396D01*
X1206561Y493980D01*
X1205520Y493488D01*
X1204516Y492925D01*
X1203555Y492292D01*
X1202641Y491592D01*
X1201779Y490830D01*
X1200973Y490010D01*
X1200227Y489133D01*
X1199543Y488207D01*
X1198927Y487235D01*
X1198382Y486221D01*
X1197908Y485172D01*
X1197511Y484092D01*
X1197190Y482988D01*
X1196948Y481862D01*
X1196786Y480722D01*
X1196705Y479574D01*
X1196705Y478425D01*
X1196786Y477276D01*
X1196948Y476136D01*
X1197190Y475012D01*
X1197511Y473906D01*
X1197908Y472827D01*
X1198382Y471777D01*
X1198927Y470765D01*
X1199543Y469792D01*
X1200227Y468865D01*
X1200973Y467989D01*
X1201779Y467168D01*
X1202641Y466406D01*
X1203555Y465707D01*
X1204516Y465075D01*
X1205520Y464511D01*
X1206561Y464020D01*
X1207633Y463602D01*
X1208734Y463263D01*
X1209853Y463000D01*
X1210991Y462818D01*
X1212137Y462717D01*
G37*
G36*
X1171435Y473924D02*
G01*
X1172800Y474621D01*
X1174157Y475405D01*
X1175473Y476257D01*
X1176742Y477174D01*
X1177964Y478155D01*
X1179134Y479198D01*
X1180249Y480299D01*
X1181306Y481455D01*
X1182303Y482663D01*
X1183236Y483921D01*
X1184104Y485225D01*
X1184906Y486572D01*
X1185636Y487959D01*
X1185787Y488281D01*
X1171435Y488281D01*
G37*
G36*
X1144858Y473933D02*
G01*
X1144858Y488281D01*
X1130507Y488281D01*
X1131013Y487260D01*
X1131779Y485895D01*
X1132614Y484569D01*
X1133515Y483287D01*
X1134481Y482053D01*
X1135509Y480869D01*
X1136594Y479740D01*
X1137737Y478668D01*
X1138933Y477656D01*
X1140180Y476707D01*
X1141472Y475821D01*
X1142809Y475005D01*
X1144185Y474256D01*
G37*
G36*
X1070558Y474009D02*
G01*
X1090599Y474009D01*
X1090261Y474711D01*
X1090169Y474888D01*
X1089606Y475922D01*
X1089506Y476098D01*
X1088891Y477103D01*
X1088784Y477267D01*
X1088122Y478240D01*
X1088005Y478402D01*
X1087294Y479342D01*
X1087169Y479497D01*
X1086412Y480399D01*
X1086279Y480549D01*
X1085478Y481412D01*
X1085340Y481554D01*
X1084498Y482377D01*
X1084350Y482514D01*
X1083467Y483294D01*
X1083314Y483422D01*
X1082393Y484155D01*
X1082236Y484274D01*
X1081280Y484962D01*
X1081112Y485077D01*
X1080123Y485716D01*
X1079953Y485819D01*
X1078933Y486408D01*
X1078757Y486503D01*
X1077709Y487040D01*
X1077530Y487127D01*
X1076458Y487611D01*
X1076277Y487687D01*
X1075181Y488119D01*
X1074989Y488188D01*
X1073873Y488562D01*
X1073683Y488622D01*
X1072548Y488940D01*
X1072355Y488989D01*
X1071207Y489252D01*
X1071010Y489292D01*
X1070558Y489371D01*
G37*
G36*
X1013113Y474009D02*
G01*
X1033155Y474009D01*
X1033155Y489371D01*
X1032701Y489292D01*
X1032505Y489252D01*
X1031356Y488989D01*
X1031163Y488940D01*
X1030029Y488622D01*
X1029840Y488562D01*
X1028723Y488188D01*
X1028531Y488119D01*
X1027435Y487687D01*
X1027254Y487611D01*
X1026181Y487127D01*
X1026003Y487040D01*
X1024954Y486503D01*
X1024778Y486408D01*
X1023759Y485819D01*
X1023590Y485716D01*
X1022600Y485077D01*
X1022431Y484962D01*
X1021476Y484274D01*
X1021319Y484155D01*
X1020398Y483422D01*
X1020245Y483294D01*
X1019363Y482514D01*
X1019215Y482377D01*
X1018371Y481554D01*
X1018234Y481412D01*
X1017433Y480549D01*
X1017300Y480399D01*
X1016544Y479497D01*
X1016418Y479342D01*
X1015708Y478402D01*
X1015591Y478240D01*
X1014927Y477267D01*
X1014822Y477103D01*
X1014206Y476098D01*
X1014106Y475922D01*
X1013542Y474888D01*
X1013451Y474711D01*
G37*
G36*
X1637287Y507698D02*
G01*
X1638437Y507757D01*
X1639579Y507899D01*
X1640708Y508121D01*
X1641818Y508422D01*
X1642906Y508802D01*
X1643963Y509256D01*
X1644985Y509785D01*
X1645968Y510383D01*
X1646907Y511050D01*
X1647795Y511781D01*
X1648630Y512573D01*
X1649408Y513422D01*
X1650123Y514322D01*
X1650772Y515273D01*
X1651354Y516266D01*
X1651863Y517298D01*
X1652299Y518362D01*
X1652659Y519457D01*
X1652941Y520572D01*
X1653143Y521705D01*
X1653263Y522849D01*
X1653305Y524000D01*
X1653263Y525149D01*
X1653143Y526295D01*
X1652941Y527427D01*
X1652659Y528542D01*
X1652299Y529636D01*
X1651863Y530702D01*
X1651354Y531734D01*
X1650772Y532726D01*
X1650123Y533676D01*
X1649408Y534578D01*
X1648630Y535426D01*
X1647795Y536219D01*
X1646907Y536950D01*
X1645968Y537617D01*
X1644985Y538215D01*
X1643963Y538742D01*
X1642906Y539198D01*
X1641818Y539576D01*
X1640708Y539877D01*
X1639579Y540100D01*
X1638437Y540241D01*
X1637287Y540302D01*
X1636136Y540282D01*
X1634991Y540180D01*
X1633854Y539998D01*
X1632734Y539737D01*
X1631634Y539396D01*
X1630560Y538980D01*
X1629521Y538488D01*
X1628517Y537925D01*
X1627556Y537292D01*
X1626642Y536592D01*
X1625780Y535830D01*
X1624973Y535010D01*
X1624227Y534133D01*
X1623544Y533207D01*
X1622928Y532235D01*
X1622381Y531221D01*
X1621908Y530172D01*
X1621511Y529092D01*
X1621189Y527988D01*
X1620947Y526862D01*
X1620785Y525722D01*
X1620704Y524574D01*
X1620704Y523425D01*
X1620785Y522276D01*
X1620947Y521136D01*
X1621189Y520012D01*
X1621511Y518906D01*
X1621908Y517827D01*
X1622381Y516777D01*
X1622928Y515765D01*
X1623544Y514792D01*
X1624227Y513865D01*
X1624973Y512989D01*
X1625780Y512168D01*
X1626642Y511406D01*
X1627556Y510707D01*
X1628517Y510075D01*
X1629521Y509511D01*
X1630560Y509020D01*
X1631634Y508602D01*
X1632734Y508263D01*
X1633854Y508000D01*
X1634991Y507818D01*
X1636136Y507717D01*
G37*
G36*
X1171435Y514857D02*
G01*
X1185787Y514857D01*
X1185636Y515180D01*
X1184906Y516567D01*
X1184104Y517914D01*
X1183236Y519218D01*
X1182303Y520475D01*
X1181306Y521685D01*
X1180249Y522840D01*
X1179134Y523942D01*
X1177964Y524983D01*
X1176742Y525965D01*
X1175473Y526882D01*
X1174157Y527734D01*
X1172800Y528517D01*
X1171435Y529216D01*
G37*
G36*
X1130507Y514857D02*
G01*
X1144858Y514857D01*
X1144858Y529205D01*
X1144185Y528883D01*
X1142809Y528135D01*
X1141472Y527318D01*
X1140180Y526433D01*
X1138933Y525482D01*
X1137737Y524470D01*
X1136594Y523398D01*
X1135509Y522269D01*
X1134481Y521087D01*
X1133515Y519852D01*
X1132614Y518571D01*
X1131779Y517244D01*
X1131013Y515878D01*
G37*
G36*
X2203733Y540902D02*
G01*
X2204799Y540922D01*
X2205861Y541024D01*
X2206913Y541203D01*
X2207948Y541464D01*
X2208962Y541801D01*
X2209944Y542215D01*
X2210895Y542701D01*
X2211805Y543258D01*
X2212671Y543881D01*
X2213487Y544569D01*
X2214249Y545317D01*
X2214952Y546120D01*
X2215591Y546972D01*
X2216166Y547872D01*
X2216670Y548814D01*
X2217102Y549789D01*
X2217458Y550794D01*
X2217737Y551824D01*
X2217938Y552872D01*
X2218059Y553933D01*
X2218100Y555000D01*
X2218059Y556066D01*
X2217938Y557127D01*
X2217737Y558175D01*
X2217458Y559205D01*
X2217102Y560210D01*
X2216670Y561185D01*
X2216166Y562127D01*
X2215591Y563027D01*
X2214952Y563879D01*
X2214249Y564683D01*
X2213487Y565430D01*
X2212671Y566118D01*
X2211805Y566741D01*
X2210895Y567298D01*
X2209944Y567784D01*
X2208962Y568198D01*
X2207948Y568535D01*
X2206913Y568796D01*
X2205861Y568975D01*
X2204799Y569077D01*
X2203733Y569097D01*
X2202668Y569036D01*
X2201610Y568895D01*
X2200565Y568674D01*
X2199540Y568377D01*
X2198542Y568000D01*
X2197574Y567550D01*
X2196643Y567029D01*
X2195754Y566437D01*
X2194913Y565781D01*
X2194125Y565064D01*
X2193392Y564288D01*
X2192719Y563460D01*
X2192111Y562582D01*
X2191572Y561660D01*
X2191104Y560702D01*
X2190709Y559711D01*
X2190392Y558692D01*
X2190151Y557653D01*
X2189991Y556597D01*
X2189910Y555533D01*
X2189910Y554466D01*
X2189991Y553402D01*
X2190151Y552346D01*
X2190392Y551307D01*
X2190709Y550288D01*
X2191104Y549297D01*
X2191572Y548339D01*
X2192111Y547417D01*
X2192719Y546540D01*
X2193392Y545711D01*
X2194125Y544935D01*
X2194913Y544218D01*
X2195754Y543562D01*
X2196643Y542970D01*
X2197574Y542449D01*
X2198542Y541999D01*
X2199540Y541622D01*
X2200565Y541325D01*
X2201610Y541104D01*
X2202668Y540963D01*
G37*
G36*
X2269233Y551302D02*
G01*
X2270299Y551323D01*
X2271361Y551424D01*
X2272413Y551604D01*
X2273449Y551864D01*
X2274462Y552202D01*
X2275444Y552615D01*
X2276395Y553101D01*
X2277305Y553658D01*
X2278171Y554281D01*
X2278987Y554969D01*
X2279749Y555716D01*
X2280451Y556520D01*
X2281091Y557372D01*
X2281665Y558272D01*
X2282169Y559214D01*
X2282601Y560189D01*
X2282959Y561194D01*
X2283238Y562224D01*
X2283438Y563272D01*
X2283559Y564333D01*
X2283599Y565399D01*
X2283559Y566466D01*
X2283438Y567527D01*
X2283238Y568575D01*
X2282959Y569605D01*
X2282601Y570610D01*
X2282169Y571586D01*
X2281665Y572527D01*
X2281091Y573427D01*
X2280451Y574279D01*
X2279749Y575082D01*
X2278987Y575830D01*
X2278171Y576518D01*
X2277305Y577141D01*
X2276395Y577698D01*
X2275444Y578184D01*
X2274462Y578598D01*
X2273449Y578935D01*
X2272413Y579196D01*
X2271361Y579376D01*
X2270299Y579477D01*
X2269233Y579497D01*
X2268167Y579436D01*
X2267110Y579295D01*
X2266066Y579074D01*
X2265041Y578777D01*
X2264043Y578400D01*
X2263074Y577950D01*
X2262143Y577429D01*
X2261255Y576837D01*
X2260414Y576181D01*
X2259624Y575464D01*
X2258891Y574688D01*
X2258220Y573859D01*
X2257611Y572982D01*
X2257073Y572060D01*
X2256604Y571102D01*
X2256210Y570111D01*
X2255892Y569092D01*
X2255652Y568052D01*
X2255491Y566997D01*
X2255410Y565934D01*
X2255410Y564866D01*
X2255491Y563802D01*
X2255652Y562746D01*
X2255892Y561707D01*
X2256210Y560689D01*
X2256604Y559697D01*
X2257073Y558739D01*
X2257611Y557818D01*
X2258220Y556939D01*
X2258891Y556111D01*
X2259624Y555336D01*
X2260414Y554618D01*
X2261255Y553962D01*
X2262143Y553371D01*
X2263074Y552849D01*
X2264043Y552399D01*
X2265041Y552022D01*
X2266066Y551725D01*
X2267110Y551503D01*
X2268167Y551363D01*
G37*
G36*
X2053895Y556410D02*
G01*
X2055105Y556410D01*
X2056311Y556491D01*
X2057511Y556651D01*
X2058696Y556893D01*
X2059862Y557213D01*
X2061004Y557609D01*
X2062119Y558081D01*
X2063199Y558627D01*
X2064238Y559243D01*
X2065236Y559927D01*
X2066185Y560677D01*
X2067083Y561489D01*
X2067924Y562359D01*
X2068705Y563283D01*
X2069422Y564256D01*
X2070073Y565275D01*
X2070654Y566336D01*
X2071163Y567433D01*
X2071598Y568562D01*
X2071957Y569717D01*
X2072236Y570895D01*
X2072439Y572087D01*
X2072560Y573290D01*
X2072600Y574499D01*
X2072560Y575709D01*
X2072439Y576912D01*
X2072236Y578105D01*
X2071957Y579281D01*
X2071598Y580437D01*
X2071163Y581565D01*
X2070654Y582662D01*
X2070073Y583724D01*
X2069422Y584744D01*
X2068705Y585716D01*
X2067924Y586640D01*
X2067083Y587510D01*
X2066185Y588321D01*
X2065236Y589072D01*
X2064238Y589756D01*
X2063199Y590372D01*
X2062119Y590918D01*
X2061004Y591390D01*
X2059862Y591786D01*
X2058696Y592107D01*
X2057511Y592348D01*
X2056311Y592509D01*
X2055105Y592590D01*
X2053895Y592590D01*
X2052687Y592509D01*
X2051489Y592348D01*
X2050303Y592107D01*
X2049137Y591786D01*
X2047995Y591390D01*
X2046881Y590918D01*
X2045801Y590372D01*
X2044760Y589756D01*
X2043762Y589072D01*
X2042813Y588321D01*
X2041917Y587510D01*
X2041076Y586640D01*
X2040294Y585716D01*
X2039578Y584744D01*
X2038927Y583724D01*
X2038344Y582662D01*
X2037835Y581565D01*
X2037400Y580437D01*
X2037043Y579281D01*
X2036763Y578105D01*
X2036561Y576912D01*
X2036440Y575709D01*
X2036400Y574499D01*
X2036440Y573290D01*
X2036561Y572087D01*
X2036763Y570895D01*
X2037043Y569717D01*
X2037400Y568562D01*
X2037835Y567433D01*
X2038344Y566336D01*
X2038927Y565275D01*
X2039578Y564256D01*
X2040294Y563283D01*
X2041076Y562359D01*
X2041917Y561489D01*
X2042813Y560677D01*
X2043762Y559927D01*
X2044760Y559243D01*
X2045801Y558627D01*
X2046881Y558081D01*
X2047995Y557609D01*
X2049137Y557213D01*
X2050303Y556893D01*
X2051489Y556651D01*
X2052687Y556491D01*
G37*
G36*
X1281999Y557694D02*
G01*
X1283275Y557734D01*
X1284544Y557854D01*
X1285805Y558054D01*
X1287049Y558332D01*
X1288275Y558688D01*
X1289475Y559121D01*
X1290645Y559627D01*
X1291782Y560207D01*
X1292879Y560855D01*
X1293935Y561572D01*
X1294943Y562354D01*
X1295900Y563198D01*
X1296801Y564099D01*
X1297645Y565057D01*
X1298427Y566064D01*
X1299143Y567119D01*
X1299792Y568218D01*
X1300372Y569355D01*
X1300879Y570524D01*
X1301310Y571725D01*
X1301666Y572950D01*
X1301944Y574194D01*
X1302145Y575455D01*
X1302264Y576725D01*
X1302304Y578000D01*
X1302264Y579274D01*
X1302145Y580545D01*
X1301944Y581804D01*
X1301666Y583049D01*
X1301310Y584274D01*
X1300879Y585475D01*
X1300372Y586644D01*
X1299792Y587782D01*
X1299143Y588879D01*
X1298427Y589935D01*
X1297645Y590943D01*
X1296801Y591900D01*
X1295900Y592802D01*
X1294943Y593645D01*
X1293935Y594427D01*
X1293108Y594989D01*
X1293474Y595120D01*
X1294645Y595626D01*
X1295781Y596206D01*
X1296880Y596855D01*
X1297934Y597573D01*
X1298942Y598355D01*
X1299899Y599198D01*
X1300802Y600100D01*
X1301644Y601057D01*
X1302426Y602064D01*
X1303144Y603119D01*
X1303792Y604218D01*
X1304372Y605354D01*
X1304879Y606525D01*
X1305311Y607725D01*
X1305667Y608949D01*
X1305945Y610194D01*
X1306144Y611455D01*
X1306265Y612725D01*
X1306305Y614000D01*
X1306265Y615275D01*
X1306144Y616545D01*
X1305945Y617804D01*
X1305667Y619050D01*
X1305311Y620275D01*
X1304879Y621475D01*
X1304372Y622645D01*
X1303792Y623782D01*
X1303144Y624879D01*
X1302426Y625934D01*
X1301644Y626943D01*
X1300802Y627899D01*
X1299899Y628802D01*
X1298942Y629645D01*
X1297934Y630426D01*
X1296880Y631143D01*
X1295781Y631792D01*
X1294645Y632372D01*
X1293474Y632878D01*
X1292274Y633310D01*
X1291049Y633667D01*
X1289804Y633944D01*
X1288545Y634144D01*
X1287274Y634265D01*
X1286000Y634304D01*
X1284724Y634265D01*
X1283455Y634144D01*
X1282195Y633944D01*
X1280950Y633667D01*
X1279724Y633310D01*
X1278524Y632878D01*
X1277354Y632372D01*
X1276217Y631792D01*
X1275119Y631143D01*
X1274065Y630426D01*
X1273056Y629645D01*
X1272100Y628802D01*
X1271198Y627899D01*
X1270354Y626943D01*
X1269573Y625934D01*
X1268855Y624879D01*
X1268207Y623782D01*
X1267627Y622645D01*
X1267120Y621475D01*
X1266688Y620275D01*
X1266333Y619050D01*
X1266054Y617804D01*
X1265855Y616545D01*
X1265735Y615275D01*
X1265694Y614000D01*
X1265735Y612725D01*
X1265855Y611455D01*
X1266054Y610194D01*
X1266333Y608949D01*
X1266688Y607725D01*
X1267120Y606525D01*
X1267627Y605354D01*
X1268207Y604218D01*
X1268855Y603119D01*
X1269573Y602064D01*
X1270354Y601057D01*
X1271198Y600100D01*
X1272100Y599198D01*
X1273056Y598355D01*
X1274065Y597573D01*
X1274891Y597011D01*
X1274525Y596878D01*
X1273355Y596372D01*
X1272218Y595792D01*
X1271120Y595144D01*
X1270065Y594427D01*
X1269057Y593645D01*
X1268100Y592802D01*
X1267197Y591900D01*
X1266355Y590943D01*
X1265573Y589935D01*
X1264855Y588879D01*
X1264206Y587782D01*
X1263626Y586644D01*
X1263121Y585475D01*
X1262689Y584274D01*
X1262332Y583049D01*
X1262055Y581804D01*
X1261854Y580545D01*
X1261734Y579274D01*
X1261694Y578000D01*
X1261734Y576725D01*
X1261854Y575455D01*
X1262055Y574194D01*
X1262332Y572950D01*
X1262689Y571725D01*
X1263121Y570524D01*
X1263626Y569355D01*
X1264206Y568218D01*
X1264855Y567119D01*
X1265573Y566064D01*
X1266355Y565057D01*
X1267197Y564099D01*
X1268100Y563198D01*
X1269057Y562354D01*
X1270065Y561572D01*
X1271120Y560855D01*
X1272218Y560207D01*
X1273355Y559627D01*
X1274525Y559121D01*
X1275725Y558688D01*
X1276949Y558332D01*
X1278194Y558054D01*
X1279454Y557854D01*
X1280725Y557734D01*
G37*
G36*
X2629732Y585902D02*
G01*
X2630799Y585922D01*
X2631862Y586024D01*
X2632914Y586203D01*
X2633949Y586464D01*
X2634961Y586801D01*
X2635945Y587215D01*
X2636895Y587701D01*
X2637806Y588258D01*
X2638671Y588881D01*
X2639488Y589569D01*
X2640249Y590317D01*
X2640951Y591120D01*
X2641592Y591972D01*
X2642165Y592872D01*
X2642669Y593814D01*
X2643101Y594789D01*
X2643459Y595794D01*
X2643738Y596824D01*
X2643939Y597872D01*
X2644059Y598933D01*
X2644099Y600000D01*
X2644059Y601066D01*
X2643939Y602127D01*
X2643738Y603175D01*
X2643459Y604205D01*
X2643101Y605210D01*
X2642669Y606185D01*
X2642165Y607127D01*
X2641592Y608027D01*
X2640951Y608879D01*
X2640249Y609683D01*
X2639488Y610430D01*
X2638671Y611118D01*
X2637806Y611741D01*
X2636895Y612298D01*
X2635945Y612784D01*
X2634961Y613198D01*
X2633949Y613535D01*
X2632914Y613796D01*
X2631862Y613975D01*
X2630799Y614077D01*
X2629732Y614097D01*
X2628667Y614036D01*
X2627610Y613895D01*
X2626566Y613674D01*
X2625541Y613377D01*
X2624543Y613000D01*
X2623575Y612550D01*
X2622644Y612029D01*
X2621755Y611437D01*
X2620914Y610781D01*
X2620124Y610064D01*
X2619391Y609288D01*
X2618720Y608460D01*
X2618112Y607582D01*
X2617573Y606660D01*
X2617105Y605702D01*
X2616710Y604711D01*
X2616391Y603692D01*
X2616152Y602653D01*
X2615991Y601597D01*
X2615910Y600533D01*
X2615910Y599466D01*
X2615991Y598402D01*
X2616152Y597346D01*
X2616391Y596307D01*
X2616710Y595288D01*
X2617105Y594297D01*
X2617573Y593339D01*
X2618112Y592417D01*
X2618720Y591540D01*
X2619391Y590711D01*
X2620124Y589935D01*
X2620914Y589218D01*
X2621755Y588562D01*
X2622644Y587970D01*
X2623575Y587449D01*
X2624543Y586999D01*
X2625541Y586622D01*
X2626566Y586325D01*
X2627610Y586104D01*
X2628667Y585963D01*
G37*
G36*
X2063795Y591610D02*
G01*
X2065005Y591610D01*
X2066211Y591691D01*
X2067411Y591851D01*
X2068595Y592092D01*
X2069763Y592413D01*
X2070905Y592809D01*
X2072019Y593281D01*
X2073099Y593827D01*
X2074138Y594443D01*
X2075137Y595127D01*
X2076085Y595877D01*
X2076983Y596689D01*
X2077824Y597559D01*
X2078604Y598483D01*
X2079322Y599456D01*
X2079973Y600475D01*
X2080555Y601536D01*
X2081063Y602633D01*
X2081499Y603762D01*
X2081857Y604917D01*
X2082137Y606095D01*
X2082339Y607287D01*
X2082460Y608490D01*
X2082500Y609699D01*
X2082460Y610909D01*
X2082339Y612112D01*
X2082137Y613305D01*
X2081857Y614481D01*
X2081499Y615637D01*
X2081063Y616765D01*
X2080555Y617863D01*
X2079973Y618924D01*
X2079322Y619944D01*
X2078604Y620916D01*
X2077824Y621840D01*
X2076983Y622710D01*
X2076085Y623521D01*
X2075137Y624272D01*
X2074138Y624956D01*
X2073099Y625572D01*
X2072019Y626118D01*
X2070905Y626590D01*
X2069763Y626986D01*
X2068595Y627307D01*
X2067411Y627548D01*
X2066211Y627708D01*
X2065005Y627790D01*
X2063795Y627790D01*
X2062587Y627708D01*
X2061388Y627548D01*
X2060204Y627307D01*
X2059036Y626986D01*
X2057894Y626590D01*
X2056781Y626118D01*
X2055700Y625572D01*
X2054660Y624956D01*
X2053662Y624272D01*
X2052713Y623521D01*
X2051817Y622710D01*
X2050976Y621840D01*
X2050195Y620916D01*
X2049477Y619944D01*
X2048827Y618924D01*
X2048244Y617863D01*
X2047736Y616765D01*
X2047300Y615637D01*
X2046943Y614481D01*
X2046662Y613305D01*
X2046460Y612112D01*
X2046340Y610909D01*
X2046300Y609699D01*
X2046340Y608490D01*
X2046460Y607287D01*
X2046662Y606095D01*
X2046943Y604917D01*
X2047300Y603762D01*
X2047736Y602633D01*
X2048244Y601536D01*
X2048827Y600475D01*
X2049477Y599456D01*
X2050195Y598483D01*
X2050976Y597559D01*
X2051817Y596689D01*
X2052713Y595877D01*
X2053662Y595127D01*
X2054660Y594443D01*
X2055700Y593827D01*
X2056781Y593281D01*
X2057894Y592809D01*
X2059036Y592413D01*
X2060204Y592092D01*
X2061388Y591851D01*
X2062587Y591691D01*
G37*
G36*
X2529732Y595902D02*
G01*
X2530799Y595922D01*
X2531862Y596024D01*
X2532914Y596203D01*
X2533949Y596464D01*
X2534961Y596801D01*
X2535945Y597215D01*
X2536895Y597701D01*
X2537806Y598258D01*
X2538671Y598881D01*
X2539488Y599569D01*
X2540249Y600317D01*
X2540951Y601120D01*
X2541592Y601972D01*
X2542165Y602872D01*
X2542669Y603814D01*
X2543101Y604789D01*
X2543459Y605794D01*
X2543738Y606824D01*
X2543939Y607872D01*
X2544059Y608933D01*
X2544099Y610000D01*
X2544059Y611066D01*
X2543939Y612127D01*
X2543738Y613175D01*
X2543459Y614205D01*
X2543101Y615210D01*
X2542669Y616185D01*
X2542165Y617127D01*
X2541592Y618027D01*
X2540951Y618879D01*
X2540249Y619683D01*
X2539488Y620430D01*
X2538671Y621118D01*
X2537806Y621741D01*
X2536895Y622298D01*
X2535945Y622784D01*
X2534961Y623198D01*
X2533949Y623535D01*
X2532914Y623796D01*
X2531862Y623975D01*
X2530799Y624077D01*
X2529732Y624097D01*
X2528667Y624036D01*
X2527610Y623895D01*
X2526566Y623674D01*
X2525541Y623377D01*
X2524543Y623000D01*
X2523575Y622550D01*
X2522644Y622029D01*
X2521755Y621437D01*
X2520914Y620781D01*
X2520124Y620064D01*
X2519391Y619288D01*
X2518720Y618460D01*
X2518112Y617582D01*
X2517573Y616660D01*
X2517105Y615702D01*
X2516710Y614711D01*
X2516391Y613692D01*
X2516152Y612653D01*
X2515991Y611597D01*
X2515910Y610533D01*
X2515910Y609466D01*
X2515991Y608402D01*
X2516152Y607346D01*
X2516391Y606307D01*
X2516710Y605288D01*
X2517105Y604297D01*
X2517573Y603339D01*
X2518112Y602417D01*
X2518720Y601540D01*
X2519391Y600711D01*
X2520124Y599935D01*
X2520914Y599218D01*
X2521755Y598562D01*
X2522644Y597970D01*
X2523575Y597449D01*
X2524543Y596999D01*
X2525541Y596622D01*
X2526566Y596325D01*
X2527610Y596104D01*
X2528667Y595963D01*
G37*
G36*
X2141733Y633903D02*
G01*
X2142799Y633922D01*
X2143861Y634023D01*
X2144913Y634203D01*
X2145949Y634463D01*
X2146962Y634801D01*
X2147944Y635214D01*
X2148895Y635700D01*
X2149805Y636257D01*
X2150671Y636882D01*
X2151487Y637568D01*
X2152249Y638317D01*
X2152951Y639119D01*
X2153591Y639973D01*
X2154165Y640873D01*
X2154669Y641813D01*
X2155101Y642790D01*
X2155459Y643795D01*
X2155738Y644825D01*
X2155938Y645873D01*
X2156059Y646934D01*
X2156099Y648000D01*
X2156059Y649065D01*
X2155938Y650127D01*
X2155738Y651174D01*
X2155459Y652204D01*
X2155101Y653209D01*
X2154669Y654185D01*
X2154165Y655127D01*
X2153591Y656026D01*
X2152951Y656880D01*
X2152249Y657683D01*
X2151487Y658431D01*
X2150671Y659117D01*
X2149805Y659742D01*
X2148895Y660299D01*
X2147944Y660785D01*
X2146962Y661197D01*
X2145949Y661536D01*
X2144913Y661795D01*
X2143861Y661975D01*
X2142799Y662076D01*
X2141733Y662096D01*
X2140667Y662037D01*
X2139610Y661896D01*
X2138566Y661675D01*
X2137541Y661377D01*
X2136543Y661001D01*
X2135574Y660551D01*
X2134643Y660028D01*
X2133755Y659438D01*
X2132914Y658782D01*
X2132124Y658063D01*
X2131391Y657287D01*
X2130720Y656460D01*
X2130111Y655581D01*
X2129573Y654661D01*
X2129104Y653701D01*
X2128710Y652710D01*
X2128392Y651691D01*
X2128152Y650653D01*
X2127991Y649598D01*
X2127910Y648533D01*
X2127910Y647465D01*
X2127991Y646401D01*
X2128152Y645347D01*
X2128392Y644308D01*
X2128710Y643288D01*
X2129104Y642298D01*
X2129573Y641338D01*
X2130111Y640417D01*
X2130720Y639540D01*
X2131391Y638712D01*
X2132124Y637935D01*
X2132914Y637217D01*
X2133755Y636561D01*
X2134643Y635970D01*
X2135574Y635448D01*
X2136543Y634998D01*
X2137541Y634623D01*
X2138566Y634324D01*
X2139610Y634104D01*
X2140667Y633962D01*
G37*
G36*
X1171435Y670774D02*
G01*
X1172800Y671471D01*
X1174157Y672255D01*
X1175473Y673107D01*
X1176742Y674023D01*
X1177964Y675005D01*
X1179134Y676048D01*
X1180249Y677148D01*
X1181306Y678305D01*
X1182303Y679513D01*
X1183236Y680772D01*
X1184104Y682076D01*
X1184906Y683422D01*
X1185636Y684809D01*
X1185787Y685131D01*
X1171435Y685131D01*
G37*
G36*
X1144858Y670783D02*
G01*
X1144858Y685131D01*
X1130507Y685131D01*
X1131013Y684110D01*
X1131779Y682744D01*
X1132614Y681419D01*
X1133515Y680136D01*
X1134481Y678903D01*
X1135509Y677719D01*
X1136594Y676590D01*
X1137737Y675518D01*
X1138933Y674506D01*
X1140180Y673557D01*
X1141472Y672671D01*
X1142809Y671855D01*
X1144185Y671105D01*
G37*
G36*
X1070558Y710628D02*
G01*
X1071010Y710707D01*
X1071207Y710747D01*
X1072355Y711010D01*
X1072548Y711059D01*
X1073683Y711377D01*
X1073873Y711437D01*
X1074989Y711811D01*
X1075181Y711880D01*
X1076277Y712312D01*
X1076458Y712388D01*
X1077530Y712872D01*
X1077709Y712959D01*
X1078757Y713496D01*
X1078933Y713591D01*
X1079953Y714180D01*
X1080123Y714283D01*
X1081112Y714922D01*
X1081280Y715037D01*
X1082236Y715725D01*
X1082393Y715844D01*
X1083314Y716577D01*
X1083467Y716705D01*
X1084350Y717485D01*
X1084498Y717622D01*
X1085340Y718445D01*
X1085478Y718587D01*
X1086279Y719450D01*
X1086412Y719600D01*
X1087169Y720502D01*
X1087294Y720657D01*
X1088005Y721597D01*
X1088122Y721759D01*
X1088784Y722732D01*
X1088891Y722896D01*
X1089506Y723901D01*
X1089606Y724077D01*
X1090169Y725111D01*
X1090261Y725288D01*
X1090599Y725990D01*
X1070558Y725990D01*
G37*
G36*
X1033155Y710628D02*
G01*
X1033155Y725990D01*
X1013113Y725990D01*
X1013451Y725288D01*
X1013542Y725111D01*
X1014106Y724077D01*
X1014206Y723901D01*
X1014822Y722896D01*
X1014927Y722732D01*
X1015591Y721759D01*
X1015708Y721597D01*
X1016418Y720657D01*
X1016544Y720502D01*
X1017300Y719600D01*
X1017433Y719450D01*
X1018234Y718587D01*
X1018371Y718445D01*
X1019215Y717622D01*
X1019363Y717485D01*
X1020245Y716705D01*
X1020398Y716577D01*
X1021319Y715844D01*
X1021476Y715725D01*
X1022431Y715037D01*
X1022600Y714922D01*
X1023590Y714283D01*
X1023759Y714180D01*
X1024778Y713591D01*
X1024954Y713496D01*
X1026003Y712959D01*
X1026181Y712872D01*
X1027254Y712388D01*
X1027435Y712312D01*
X1028531Y711880D01*
X1028723Y711811D01*
X1029840Y711437D01*
X1030029Y711377D01*
X1031163Y711059D01*
X1031356Y711010D01*
X1032505Y710747D01*
X1032701Y710707D01*
G37*
G36*
X1171435Y711707D02*
G01*
X1185787Y711707D01*
X1185636Y712031D01*
X1184906Y713416D01*
X1184104Y714764D01*
X1183236Y716068D01*
X1182303Y717325D01*
X1181306Y718535D01*
X1180249Y719690D01*
X1179134Y720792D01*
X1177964Y721833D01*
X1176742Y722815D01*
X1175473Y723733D01*
X1174157Y724585D01*
X1172800Y725367D01*
X1171435Y726066D01*
G37*
G36*
X1130507Y711707D02*
G01*
X1144858Y711707D01*
X1144858Y726055D01*
X1144185Y725734D01*
X1142809Y724985D01*
X1141472Y724167D01*
X1140180Y723283D01*
X1138933Y722332D01*
X1137737Y721320D01*
X1136594Y720248D01*
X1135509Y719119D01*
X1134481Y717937D01*
X1133515Y716703D01*
X1132614Y715421D01*
X1131779Y714095D01*
X1131013Y712728D01*
G37*
G36*
X1931288Y724697D02*
G01*
X1932437Y724758D01*
X1933578Y724899D01*
X1934708Y725122D01*
X1935819Y725423D01*
X1936905Y725801D01*
X1937962Y726257D01*
X1938986Y726784D01*
X1939969Y727382D01*
X1940906Y728049D01*
X1941796Y728780D01*
X1942631Y729573D01*
X1943407Y730421D01*
X1944122Y731323D01*
X1944772Y732273D01*
X1945353Y733265D01*
X1945864Y734297D01*
X1946300Y735363D01*
X1946658Y736457D01*
X1946940Y737572D01*
X1947142Y738704D01*
X1947263Y739850D01*
X1947304Y740999D01*
X1947263Y742150D01*
X1947142Y743294D01*
X1946940Y744427D01*
X1946658Y745542D01*
X1946300Y746637D01*
X1945864Y747701D01*
X1945353Y748733D01*
X1944772Y749726D01*
X1944122Y750677D01*
X1943407Y751577D01*
X1942631Y752426D01*
X1941796Y753218D01*
X1940906Y753949D01*
X1939969Y754616D01*
X1938986Y755214D01*
X1937962Y755743D01*
X1936905Y756197D01*
X1935819Y756577D01*
X1934708Y756878D01*
X1933578Y757100D01*
X1932437Y757242D01*
X1931288Y757301D01*
X1930137Y757282D01*
X1928990Y757181D01*
X1927853Y756999D01*
X1926733Y756736D01*
X1925634Y756397D01*
X1924561Y755979D01*
X1923521Y755488D01*
X1922516Y754924D01*
X1921556Y754292D01*
X1920641Y753593D01*
X1919780Y752831D01*
X1918972Y752010D01*
X1918226Y751134D01*
X1917543Y750207D01*
X1916927Y749234D01*
X1916382Y748222D01*
X1915909Y747172D01*
X1915510Y746093D01*
X1915190Y744987D01*
X1914948Y743863D01*
X1914786Y742723D01*
X1914705Y741574D01*
X1914705Y740425D01*
X1914786Y739277D01*
X1914948Y738137D01*
X1915190Y737011D01*
X1915510Y735907D01*
X1915909Y734827D01*
X1916382Y733778D01*
X1916927Y732764D01*
X1917543Y731792D01*
X1918226Y730866D01*
X1918972Y729989D01*
X1919780Y729169D01*
X1920641Y728407D01*
X1921556Y727707D01*
X1922516Y727074D01*
X1923521Y726511D01*
X1924561Y726019D01*
X1925634Y725603D01*
X1926733Y725262D01*
X1927853Y725001D01*
X1928990Y724819D01*
X1930137Y724717D01*
G37*
G36*
X1780288Y725698D02*
G01*
X1781436Y725758D01*
X1782578Y725900D01*
X1783707Y726122D01*
X1784818Y726422D01*
X1785906Y726801D01*
X1786962Y727256D01*
X1787986Y727784D01*
X1788968Y728382D01*
X1789907Y729050D01*
X1790796Y729780D01*
X1791630Y730572D01*
X1792407Y731421D01*
X1793122Y732323D01*
X1793773Y733272D01*
X1794354Y734265D01*
X1794863Y735297D01*
X1795299Y736363D01*
X1795658Y737456D01*
X1795941Y738571D01*
X1796143Y739704D01*
X1796264Y740850D01*
X1796305Y741999D01*
X1796264Y743150D01*
X1796143Y744295D01*
X1795941Y745428D01*
X1795658Y746543D01*
X1795299Y747636D01*
X1794863Y748701D01*
X1794354Y749733D01*
X1793773Y750727D01*
X1793122Y751676D01*
X1792407Y752577D01*
X1791630Y753427D01*
X1790796Y754218D01*
X1789907Y754949D01*
X1788968Y755617D01*
X1787986Y756215D01*
X1786962Y756743D01*
X1785906Y757197D01*
X1784818Y757577D01*
X1783707Y757878D01*
X1782578Y758099D01*
X1781436Y758242D01*
X1780288Y758301D01*
X1779137Y758281D01*
X1777991Y758180D01*
X1776854Y757998D01*
X1775734Y757737D01*
X1774633Y757397D01*
X1773560Y756979D01*
X1772520Y756487D01*
X1771517Y755925D01*
X1770555Y755291D01*
X1769642Y754592D01*
X1768779Y753831D01*
X1767973Y753009D01*
X1767227Y752134D01*
X1766544Y751208D01*
X1765928Y750234D01*
X1765381Y749221D01*
X1764908Y748173D01*
X1764511Y747092D01*
X1764189Y745988D01*
X1763948Y744863D01*
X1763786Y743723D01*
X1763705Y742575D01*
X1763705Y741424D01*
X1763786Y740277D01*
X1763948Y739137D01*
X1764189Y738011D01*
X1764511Y736907D01*
X1764908Y735826D01*
X1765381Y734778D01*
X1765928Y733764D01*
X1766544Y732791D01*
X1767227Y731866D01*
X1767973Y730990D01*
X1768779Y730169D01*
X1769642Y729407D01*
X1770555Y728708D01*
X1771517Y728074D01*
X1772520Y727512D01*
X1773560Y727020D01*
X1774633Y726603D01*
X1775734Y726262D01*
X1776854Y726001D01*
X1777991Y725819D01*
X1779137Y725718D01*
G37*
G36*
X1070558Y749609D02*
G01*
X1090599Y749609D01*
X1090261Y750311D01*
X1090169Y750488D01*
X1089606Y751523D01*
X1089506Y751698D01*
X1088891Y752703D01*
X1088784Y752867D01*
X1088122Y753840D01*
X1088005Y754002D01*
X1087294Y754942D01*
X1087169Y755097D01*
X1086412Y755999D01*
X1086279Y756149D01*
X1085478Y757013D01*
X1085340Y757154D01*
X1084498Y757977D01*
X1084350Y758114D01*
X1083467Y758894D01*
X1083314Y759021D01*
X1082393Y759756D01*
X1082236Y759875D01*
X1081280Y760563D01*
X1081112Y760677D01*
X1080123Y761316D01*
X1079953Y761419D01*
X1078933Y762008D01*
X1078757Y762103D01*
X1077709Y762640D01*
X1077530Y762726D01*
X1076458Y763211D01*
X1076277Y763287D01*
X1075181Y763719D01*
X1074989Y763787D01*
X1073873Y764162D01*
X1073683Y764221D01*
X1072548Y764540D01*
X1072355Y764589D01*
X1071207Y764852D01*
X1071010Y764891D01*
X1070558Y764971D01*
G37*
G36*
X1013113Y749609D02*
G01*
X1033155Y749609D01*
X1033155Y764971D01*
X1032701Y764891D01*
X1032505Y764852D01*
X1031356Y764589D01*
X1031163Y764540D01*
X1030029Y764221D01*
X1029840Y764162D01*
X1028723Y763787D01*
X1028531Y763719D01*
X1027435Y763287D01*
X1027254Y763211D01*
X1026181Y762726D01*
X1026003Y762640D01*
X1024954Y762103D01*
X1024778Y762008D01*
X1023759Y761419D01*
X1023590Y761316D01*
X1022600Y760677D01*
X1022431Y760563D01*
X1021476Y759875D01*
X1021319Y759756D01*
X1020398Y759021D01*
X1020245Y758894D01*
X1019363Y758114D01*
X1019215Y757977D01*
X1018371Y757154D01*
X1018234Y757013D01*
X1017433Y756149D01*
X1017300Y755999D01*
X1016544Y755097D01*
X1016418Y754942D01*
X1015708Y754002D01*
X1015591Y753840D01*
X1014927Y752867D01*
X1014822Y752703D01*
X1014206Y751698D01*
X1014106Y751523D01*
X1013542Y750488D01*
X1013451Y750311D01*
G37*
G36*
X1795288Y811698D02*
G01*
X1796436Y811757D01*
X1797578Y811900D01*
X1798707Y812121D01*
X1799818Y812422D01*
X1800906Y812802D01*
X1801962Y813256D01*
X1802986Y813784D01*
X1803968Y814382D01*
X1804907Y815050D01*
X1805796Y815781D01*
X1806630Y816572D01*
X1807407Y817422D01*
X1808122Y818323D01*
X1808773Y819272D01*
X1809354Y820266D01*
X1809863Y821298D01*
X1810299Y822363D01*
X1810658Y823456D01*
X1810941Y824571D01*
X1811143Y825704D01*
X1811264Y826849D01*
X1811305Y828000D01*
X1811264Y829149D01*
X1811143Y830295D01*
X1810941Y831428D01*
X1810658Y832543D01*
X1810299Y833636D01*
X1809863Y834702D01*
X1809354Y835734D01*
X1808773Y836727D01*
X1808122Y837676D01*
X1807407Y838578D01*
X1806630Y839427D01*
X1805796Y840219D01*
X1804907Y840949D01*
X1803968Y841617D01*
X1802986Y842215D01*
X1801962Y842743D01*
X1800906Y843198D01*
X1799818Y843577D01*
X1798707Y843877D01*
X1797578Y844099D01*
X1796436Y844241D01*
X1795288Y844301D01*
X1794137Y844281D01*
X1792991Y844180D01*
X1791854Y843998D01*
X1790734Y843737D01*
X1789633Y843396D01*
X1788560Y842979D01*
X1787520Y842487D01*
X1786517Y841925D01*
X1785555Y841291D01*
X1784642Y840592D01*
X1783779Y839830D01*
X1782973Y839009D01*
X1782227Y838134D01*
X1781544Y837208D01*
X1780928Y836235D01*
X1780381Y835221D01*
X1779908Y834173D01*
X1779511Y833092D01*
X1779189Y831988D01*
X1778948Y830862D01*
X1778786Y829722D01*
X1778705Y828575D01*
X1778705Y827424D01*
X1778786Y826277D01*
X1778948Y825136D01*
X1779189Y824011D01*
X1779511Y822907D01*
X1779908Y821826D01*
X1780381Y820778D01*
X1780928Y819765D01*
X1781544Y818791D01*
X1782227Y817865D01*
X1782973Y816990D01*
X1783779Y816168D01*
X1784642Y815407D01*
X1785555Y814708D01*
X1786517Y814074D01*
X1787520Y813512D01*
X1788560Y813020D01*
X1789633Y812602D01*
X1790734Y812262D01*
X1791854Y812001D01*
X1792991Y811819D01*
X1794137Y811718D01*
G37*
G36*
X2252235Y824189D02*
G01*
X2253617Y824229D01*
X2254996Y824351D01*
X2256364Y824551D01*
X2257719Y824830D01*
X2259057Y825189D01*
X2260370Y825623D01*
X2261656Y826134D01*
X2262910Y826720D01*
X2264128Y827377D01*
X2265304Y828103D01*
X2266437Y828895D01*
X2267524Y829755D01*
X2268557Y830673D01*
X2269535Y831653D01*
X2270455Y832685D01*
X2271314Y833771D01*
X2272106Y834904D01*
X2272833Y836082D01*
X2273490Y837300D01*
X2274075Y838553D01*
X2274585Y839839D01*
X2275020Y841152D01*
X2275379Y842489D01*
X2275658Y843845D01*
X2275859Y845214D01*
X2275979Y846592D01*
X2276019Y847975D01*
X2275979Y849358D01*
X2275859Y850736D01*
X2275658Y852105D01*
X2275379Y853460D01*
X2275020Y854796D01*
X2274585Y856109D01*
X2274075Y857395D01*
X2273490Y858649D01*
X2272833Y859866D01*
X2272106Y861044D01*
X2271314Y862177D01*
X2270455Y863263D01*
X2269535Y864297D01*
X2268557Y865275D01*
X2267524Y866194D01*
X2266437Y867053D01*
X2265304Y867847D01*
X2264128Y868573D01*
X2262910Y869229D01*
X2261656Y869814D01*
X2260370Y870326D01*
X2259057Y870761D01*
X2257719Y871118D01*
X2256364Y871399D01*
X2254996Y871599D01*
X2253617Y871720D01*
X2252235Y871759D01*
X2250852Y871720D01*
X2249474Y871599D01*
X2248104Y871399D01*
X2246750Y871118D01*
X2245412Y870761D01*
X2244099Y870326D01*
X2242813Y869814D01*
X2241559Y869229D01*
X2240343Y868573D01*
X2239165Y867847D01*
X2238032Y867053D01*
X2236945Y866194D01*
X2235913Y865275D01*
X2234934Y864297D01*
X2234014Y863263D01*
X2233155Y862177D01*
X2232362Y861044D01*
X2231637Y859866D01*
X2230979Y858649D01*
X2230394Y857395D01*
X2229884Y856109D01*
X2229449Y854796D01*
X2229090Y853460D01*
X2228810Y852105D01*
X2228611Y850736D01*
X2228490Y849358D01*
X2228450Y847975D01*
X2228490Y846592D01*
X2228611Y845214D01*
X2228810Y843845D01*
X2229090Y842489D01*
X2229449Y841152D01*
X2229884Y839839D01*
X2230394Y838553D01*
X2230979Y837300D01*
X2231637Y836082D01*
X2232362Y834904D01*
X2233155Y833771D01*
X2234014Y832685D01*
X2234934Y831653D01*
X2235913Y830673D01*
X2236945Y829755D01*
X2238032Y828895D01*
X2239165Y828103D01*
X2240343Y827377D01*
X2241559Y826720D01*
X2242813Y826134D01*
X2244099Y825623D01*
X2245412Y825189D01*
X2246750Y824830D01*
X2248104Y824551D01*
X2249474Y824351D01*
X2250852Y824229D01*
G37*
G36*
X2202235Y824189D02*
G01*
X2203617Y824229D01*
X2204996Y824351D01*
X2206364Y824551D01*
X2207719Y824830D01*
X2209057Y825189D01*
X2210370Y825623D01*
X2211656Y826134D01*
X2212910Y826720D01*
X2214128Y827377D01*
X2215304Y828103D01*
X2216437Y828895D01*
X2217524Y829755D01*
X2218557Y830673D01*
X2219535Y831653D01*
X2220455Y832685D01*
X2221314Y833771D01*
X2222106Y834904D01*
X2222833Y836082D01*
X2223490Y837300D01*
X2224075Y838553D01*
X2224585Y839839D01*
X2225020Y841152D01*
X2225379Y842489D01*
X2225658Y843845D01*
X2225859Y845214D01*
X2225979Y846592D01*
X2226019Y847975D01*
X2225979Y849358D01*
X2225859Y850736D01*
X2225658Y852105D01*
X2225379Y853460D01*
X2225020Y854796D01*
X2224585Y856109D01*
X2224075Y857395D01*
X2223490Y858649D01*
X2222833Y859866D01*
X2222106Y861044D01*
X2221314Y862177D01*
X2220455Y863263D01*
X2219535Y864297D01*
X2218557Y865275D01*
X2217524Y866194D01*
X2216437Y867053D01*
X2215304Y867847D01*
X2214128Y868573D01*
X2212910Y869229D01*
X2211656Y869814D01*
X2210370Y870326D01*
X2209057Y870761D01*
X2207719Y871118D01*
X2206364Y871399D01*
X2204996Y871599D01*
X2203617Y871720D01*
X2202235Y871759D01*
X2200852Y871720D01*
X2199474Y871599D01*
X2198104Y871399D01*
X2196750Y871118D01*
X2195412Y870761D01*
X2194099Y870326D01*
X2192813Y869814D01*
X2191559Y869229D01*
X2190343Y868573D01*
X2189165Y867847D01*
X2188032Y867053D01*
X2186945Y866194D01*
X2185913Y865275D01*
X2184934Y864297D01*
X2184014Y863263D01*
X2183155Y862177D01*
X2182362Y861044D01*
X2181637Y859866D01*
X2180979Y858649D01*
X2180394Y857395D01*
X2179884Y856109D01*
X2179449Y854796D01*
X2179090Y853460D01*
X2178810Y852105D01*
X2178611Y850736D01*
X2178490Y849358D01*
X2178450Y847975D01*
X2178490Y846592D01*
X2178611Y845214D01*
X2178810Y843845D01*
X2179090Y842489D01*
X2179449Y841152D01*
X2179884Y839839D01*
X2180394Y838553D01*
X2180979Y837300D01*
X2181637Y836082D01*
X2182362Y834904D01*
X2183155Y833771D01*
X2184014Y832685D01*
X2184934Y831653D01*
X2185913Y830673D01*
X2186945Y829755D01*
X2188032Y828895D01*
X2189165Y828103D01*
X2190343Y827377D01*
X2191559Y826720D01*
X2192813Y826134D01*
X2194099Y825623D01*
X2195412Y825189D01*
X2196750Y824830D01*
X2198104Y824551D01*
X2199474Y824351D01*
X2200852Y824229D01*
G37*
G36*
X2152235Y824189D02*
G01*
X2153617Y824229D01*
X2154996Y824351D01*
X2156364Y824551D01*
X2157719Y824830D01*
X2159057Y825189D01*
X2160370Y825623D01*
X2161656Y826134D01*
X2162910Y826720D01*
X2164128Y827377D01*
X2165304Y828103D01*
X2166437Y828895D01*
X2167524Y829755D01*
X2168557Y830673D01*
X2169535Y831653D01*
X2170455Y832685D01*
X2171314Y833771D01*
X2172106Y834904D01*
X2172833Y836082D01*
X2173490Y837300D01*
X2174075Y838553D01*
X2174585Y839839D01*
X2175020Y841152D01*
X2175379Y842489D01*
X2175658Y843845D01*
X2175859Y845214D01*
X2175979Y846592D01*
X2176019Y847975D01*
X2175979Y849358D01*
X2175859Y850736D01*
X2175658Y852105D01*
X2175379Y853460D01*
X2175020Y854796D01*
X2174585Y856109D01*
X2174075Y857395D01*
X2173490Y858649D01*
X2172833Y859866D01*
X2172106Y861044D01*
X2171314Y862177D01*
X2170455Y863263D01*
X2169535Y864297D01*
X2168557Y865275D01*
X2167524Y866194D01*
X2166437Y867053D01*
X2165304Y867847D01*
X2164128Y868573D01*
X2162910Y869229D01*
X2161656Y869814D01*
X2160370Y870326D01*
X2159057Y870761D01*
X2157719Y871118D01*
X2156364Y871399D01*
X2154996Y871599D01*
X2153617Y871720D01*
X2152235Y871759D01*
X2150852Y871720D01*
X2149474Y871599D01*
X2148104Y871399D01*
X2146750Y871118D01*
X2145412Y870761D01*
X2144099Y870326D01*
X2142813Y869814D01*
X2141559Y869229D01*
X2140343Y868573D01*
X2139165Y867847D01*
X2138032Y867053D01*
X2136945Y866194D01*
X2135913Y865275D01*
X2134934Y864297D01*
X2134014Y863263D01*
X2133155Y862177D01*
X2132362Y861044D01*
X2131637Y859866D01*
X2130979Y858649D01*
X2130394Y857395D01*
X2129884Y856109D01*
X2129449Y854796D01*
X2129090Y853460D01*
X2128810Y852105D01*
X2128611Y850736D01*
X2128490Y849358D01*
X2128450Y847975D01*
X2128490Y846592D01*
X2128611Y845214D01*
X2128810Y843845D01*
X2129090Y842489D01*
X2129449Y841152D01*
X2129884Y839839D01*
X2130394Y838553D01*
X2130979Y837300D01*
X2131637Y836082D01*
X2132362Y834904D01*
X2133155Y833771D01*
X2134014Y832685D01*
X2134934Y831653D01*
X2135913Y830673D01*
X2136945Y829755D01*
X2138032Y828895D01*
X2139165Y828103D01*
X2140343Y827377D01*
X2141559Y826720D01*
X2142813Y826134D01*
X2144099Y825623D01*
X2145412Y825189D01*
X2146750Y824830D01*
X2148104Y824551D01*
X2149474Y824351D01*
X2150852Y824229D01*
G37*
G36*
X2804718Y863697D02*
G01*
X2805866Y863757D01*
X2807008Y863899D01*
X2808137Y864122D01*
X2809249Y864423D01*
X2810335Y864801D01*
X2811392Y865257D01*
X2812416Y865785D01*
X2813398Y866383D01*
X2814336Y867049D01*
X2815226Y867781D01*
X2816060Y868573D01*
X2816837Y869421D01*
X2817552Y870322D01*
X2818203Y871273D01*
X2818783Y872265D01*
X2819294Y873297D01*
X2819729Y874362D01*
X2820088Y875457D01*
X2820370Y876572D01*
X2820573Y877705D01*
X2820694Y878850D01*
X2820735Y880000D01*
X2820694Y881149D01*
X2820573Y882294D01*
X2820370Y883427D01*
X2820088Y884542D01*
X2819729Y885637D01*
X2819294Y886702D01*
X2818783Y887734D01*
X2818203Y888726D01*
X2817552Y889677D01*
X2816837Y890578D01*
X2816060Y891426D01*
X2815226Y892219D01*
X2814336Y892950D01*
X2813398Y893616D01*
X2812416Y894214D01*
X2811392Y894742D01*
X2810335Y895198D01*
X2809249Y895576D01*
X2808137Y895877D01*
X2807008Y896100D01*
X2805866Y896242D01*
X2804718Y896302D01*
X2803567Y896282D01*
X2802421Y896181D01*
X2801283Y895999D01*
X2800164Y895736D01*
X2799063Y895396D01*
X2797991Y894980D01*
X2796950Y894488D01*
X2795946Y893924D01*
X2794985Y893292D01*
X2794071Y892593D01*
X2793209Y891831D01*
X2792403Y891010D01*
X2791656Y890133D01*
X2790973Y889207D01*
X2790357Y888234D01*
X2789812Y887222D01*
X2789339Y886172D01*
X2788941Y885093D01*
X2788620Y883987D01*
X2788378Y882863D01*
X2788216Y881723D01*
X2788135Y880574D01*
X2788135Y879425D01*
X2788216Y878276D01*
X2788378Y877136D01*
X2788620Y876012D01*
X2788941Y874906D01*
X2789339Y873827D01*
X2789812Y872777D01*
X2790357Y871765D01*
X2790973Y870792D01*
X2791656Y869866D01*
X2792403Y868989D01*
X2793209Y868168D01*
X2794071Y867406D01*
X2794985Y866707D01*
X2795946Y866075D01*
X2796950Y865511D01*
X2797991Y865019D01*
X2799063Y864603D01*
X2800164Y864263D01*
X2801283Y864000D01*
X2802421Y863818D01*
X2803567Y863717D01*
G37*
G36*
X2854718Y863697D02*
G01*
X2855866Y863757D01*
X2857008Y863899D01*
X2858137Y864122D01*
X2859249Y864423D01*
X2860335Y864801D01*
X2861392Y865257D01*
X2862416Y865785D01*
X2863398Y866383D01*
X2864336Y867049D01*
X2865226Y867781D01*
X2866060Y868573D01*
X2866837Y869421D01*
X2867552Y870322D01*
X2868203Y871273D01*
X2868783Y872265D01*
X2869294Y873297D01*
X2869729Y874362D01*
X2870088Y875457D01*
X2870370Y876572D01*
X2870573Y877705D01*
X2870694Y878850D01*
X2870735Y880000D01*
X2870694Y881149D01*
X2870573Y882294D01*
X2870370Y883427D01*
X2870088Y884542D01*
X2869729Y885637D01*
X2869294Y886702D01*
X2868783Y887734D01*
X2868203Y888726D01*
X2867552Y889677D01*
X2866837Y890578D01*
X2866060Y891426D01*
X2865226Y892219D01*
X2864336Y892950D01*
X2863398Y893616D01*
X2862416Y894214D01*
X2861392Y894742D01*
X2860335Y895198D01*
X2859249Y895576D01*
X2858137Y895877D01*
X2857008Y896100D01*
X2855866Y896242D01*
X2854718Y896302D01*
X2853567Y896282D01*
X2852421Y896181D01*
X2851283Y895999D01*
X2850164Y895736D01*
X2849063Y895396D01*
X2847991Y894980D01*
X2846950Y894488D01*
X2845946Y893924D01*
X2844985Y893292D01*
X2844071Y892593D01*
X2843209Y891831D01*
X2842403Y891010D01*
X2841656Y890133D01*
X2840973Y889207D01*
X2840357Y888234D01*
X2839812Y887222D01*
X2839339Y886172D01*
X2838941Y885093D01*
X2838620Y883987D01*
X2838378Y882863D01*
X2838216Y881723D01*
X2838135Y880574D01*
X2838135Y879425D01*
X2838216Y878276D01*
X2838378Y877136D01*
X2838620Y876012D01*
X2838941Y874906D01*
X2839339Y873827D01*
X2839812Y872777D01*
X2840357Y871765D01*
X2840973Y870792D01*
X2841656Y869866D01*
X2842403Y868989D01*
X2843209Y868168D01*
X2844071Y867406D01*
X2844985Y866707D01*
X2845946Y866075D01*
X2846950Y865511D01*
X2847991Y865019D01*
X2849063Y864603D01*
X2850164Y864263D01*
X2851283Y864000D01*
X2852421Y863818D01*
X2853567Y863717D01*
G37*
G36*
X2904718Y863697D02*
G01*
X2905866Y863757D01*
X2907008Y863899D01*
X2908137Y864122D01*
X2909249Y864423D01*
X2910335Y864801D01*
X2911392Y865257D01*
X2912416Y865785D01*
X2913398Y866383D01*
X2914336Y867049D01*
X2915226Y867781D01*
X2916060Y868573D01*
X2916837Y869421D01*
X2917552Y870322D01*
X2918203Y871273D01*
X2918783Y872265D01*
X2919294Y873297D01*
X2919729Y874362D01*
X2920088Y875457D01*
X2920370Y876572D01*
X2920573Y877705D01*
X2920694Y878850D01*
X2920735Y880000D01*
X2920694Y881149D01*
X2920573Y882294D01*
X2920370Y883427D01*
X2920088Y884542D01*
X2919729Y885637D01*
X2919294Y886702D01*
X2918783Y887734D01*
X2918203Y888726D01*
X2917552Y889677D01*
X2916837Y890578D01*
X2916060Y891426D01*
X2915226Y892219D01*
X2914336Y892950D01*
X2913398Y893616D01*
X2912416Y894214D01*
X2911392Y894742D01*
X2910335Y895198D01*
X2909249Y895576D01*
X2908137Y895877D01*
X2907008Y896100D01*
X2905866Y896242D01*
X2904718Y896302D01*
X2903567Y896282D01*
X2902421Y896181D01*
X2901283Y895999D01*
X2900164Y895736D01*
X2899063Y895396D01*
X2897991Y894980D01*
X2896950Y894488D01*
X2895946Y893924D01*
X2894985Y893292D01*
X2894071Y892593D01*
X2893209Y891831D01*
X2892403Y891010D01*
X2891656Y890133D01*
X2890973Y889207D01*
X2890357Y888234D01*
X2889812Y887222D01*
X2889339Y886172D01*
X2888941Y885093D01*
X2888620Y883987D01*
X2888378Y882863D01*
X2888216Y881723D01*
X2888135Y880574D01*
X2888135Y879425D01*
X2888216Y878276D01*
X2888378Y877136D01*
X2888620Y876012D01*
X2888941Y874906D01*
X2889339Y873827D01*
X2889812Y872777D01*
X2890357Y871765D01*
X2890973Y870792D01*
X2891656Y869866D01*
X2892403Y868989D01*
X2893209Y868168D01*
X2894071Y867406D01*
X2894985Y866707D01*
X2895946Y866075D01*
X2896950Y865511D01*
X2897991Y865019D01*
X2899063Y864603D01*
X2900164Y864263D01*
X2901283Y864000D01*
X2902421Y863818D01*
X2903567Y863717D01*
G37*
G36*
X2954718Y863697D02*
G01*
X2955866Y863757D01*
X2957008Y863899D01*
X2958137Y864122D01*
X2959249Y864423D01*
X2960335Y864801D01*
X2961392Y865257D01*
X2962416Y865785D01*
X2963398Y866383D01*
X2964336Y867049D01*
X2965226Y867781D01*
X2966060Y868573D01*
X2966837Y869421D01*
X2967552Y870322D01*
X2968203Y871273D01*
X2968783Y872265D01*
X2969294Y873297D01*
X2969729Y874362D01*
X2970088Y875457D01*
X2970370Y876572D01*
X2970573Y877705D01*
X2970694Y878850D01*
X2970735Y880000D01*
X2970694Y881149D01*
X2970573Y882294D01*
X2970370Y883427D01*
X2970088Y884542D01*
X2969729Y885637D01*
X2969294Y886702D01*
X2968783Y887734D01*
X2968203Y888726D01*
X2967552Y889677D01*
X2966837Y890578D01*
X2966060Y891426D01*
X2965226Y892219D01*
X2964336Y892950D01*
X2963398Y893616D01*
X2962416Y894214D01*
X2961392Y894742D01*
X2960335Y895198D01*
X2959249Y895576D01*
X2958137Y895877D01*
X2957008Y896100D01*
X2955866Y896242D01*
X2954718Y896302D01*
X2953567Y896282D01*
X2952421Y896181D01*
X2951283Y895999D01*
X2950164Y895736D01*
X2949063Y895396D01*
X2947991Y894980D01*
X2946950Y894488D01*
X2945946Y893924D01*
X2944985Y893292D01*
X2944071Y892593D01*
X2943209Y891831D01*
X2942403Y891010D01*
X2941656Y890133D01*
X2940973Y889207D01*
X2940357Y888234D01*
X2939812Y887222D01*
X2939339Y886172D01*
X2938941Y885093D01*
X2938620Y883987D01*
X2938378Y882863D01*
X2938216Y881723D01*
X2938135Y880574D01*
X2938135Y879425D01*
X2938216Y878276D01*
X2938378Y877136D01*
X2938620Y876012D01*
X2938941Y874906D01*
X2939339Y873827D01*
X2939812Y872777D01*
X2940357Y871765D01*
X2940973Y870792D01*
X2941656Y869866D01*
X2942403Y868989D01*
X2943209Y868168D01*
X2944071Y867406D01*
X2944985Y866707D01*
X2945946Y866075D01*
X2946950Y865511D01*
X2947991Y865019D01*
X2949063Y864603D01*
X2950164Y864263D01*
X2951283Y864000D01*
X2952421Y863818D01*
X2953567Y863717D01*
G37*
G36*
X3004718Y863697D02*
G01*
X3005866Y863757D01*
X3007008Y863899D01*
X3008137Y864122D01*
X3009249Y864423D01*
X3010335Y864801D01*
X3011392Y865257D01*
X3012416Y865785D01*
X3013398Y866383D01*
X3014336Y867049D01*
X3015226Y867781D01*
X3016060Y868573D01*
X3016837Y869421D01*
X3017552Y870322D01*
X3018203Y871273D01*
X3018783Y872265D01*
X3019294Y873297D01*
X3019729Y874362D01*
X3020088Y875457D01*
X3020370Y876572D01*
X3020573Y877705D01*
X3020694Y878850D01*
X3020735Y880000D01*
X3020694Y881149D01*
X3020573Y882294D01*
X3020370Y883427D01*
X3020088Y884542D01*
X3019729Y885637D01*
X3019294Y886702D01*
X3018783Y887734D01*
X3018203Y888726D01*
X3017552Y889677D01*
X3016837Y890578D01*
X3016060Y891426D01*
X3015226Y892219D01*
X3014336Y892950D01*
X3013398Y893616D01*
X3012416Y894214D01*
X3011392Y894742D01*
X3010335Y895198D01*
X3009249Y895576D01*
X3008137Y895877D01*
X3007008Y896100D01*
X3005866Y896242D01*
X3004718Y896302D01*
X3003567Y896282D01*
X3002421Y896181D01*
X3001283Y895999D01*
X3000164Y895736D01*
X2999063Y895396D01*
X2997991Y894980D01*
X2996950Y894488D01*
X2995946Y893924D01*
X2994985Y893292D01*
X2994071Y892593D01*
X2993209Y891831D01*
X2992403Y891010D01*
X2991656Y890133D01*
X2990973Y889207D01*
X2990357Y888234D01*
X2989812Y887222D01*
X2989339Y886172D01*
X2988941Y885093D01*
X2988620Y883987D01*
X2988378Y882863D01*
X2988216Y881723D01*
X2988135Y880574D01*
X2988135Y879425D01*
X2988216Y878276D01*
X2988378Y877136D01*
X2988620Y876012D01*
X2988941Y874906D01*
X2989339Y873827D01*
X2989812Y872777D01*
X2990357Y871765D01*
X2990973Y870792D01*
X2991656Y869866D01*
X2992403Y868989D01*
X2993209Y868168D01*
X2994071Y867406D01*
X2994985Y866707D01*
X2995946Y866075D01*
X2996950Y865511D01*
X2997991Y865019D01*
X2999063Y864603D01*
X3000164Y864263D01*
X3001283Y864000D01*
X3002421Y863818D01*
X3003567Y863717D01*
G37*
G36*
X3054718Y863697D02*
G01*
X3055866Y863757D01*
X3057008Y863899D01*
X3058137Y864122D01*
X3059249Y864423D01*
X3060335Y864801D01*
X3061392Y865257D01*
X3062416Y865785D01*
X3063398Y866383D01*
X3064336Y867049D01*
X3065226Y867781D01*
X3066060Y868573D01*
X3066837Y869421D01*
X3067552Y870322D01*
X3068203Y871273D01*
X3068783Y872265D01*
X3069294Y873297D01*
X3069729Y874362D01*
X3070088Y875457D01*
X3070370Y876572D01*
X3070573Y877705D01*
X3070694Y878850D01*
X3070735Y880000D01*
X3070694Y881149D01*
X3070573Y882294D01*
X3070370Y883427D01*
X3070088Y884542D01*
X3069729Y885637D01*
X3069294Y886702D01*
X3068783Y887734D01*
X3068203Y888726D01*
X3067552Y889677D01*
X3066837Y890578D01*
X3066060Y891426D01*
X3065226Y892219D01*
X3064336Y892950D01*
X3063398Y893616D01*
X3062416Y894214D01*
X3061392Y894742D01*
X3060335Y895198D01*
X3059249Y895576D01*
X3058137Y895877D01*
X3057008Y896100D01*
X3055866Y896242D01*
X3054718Y896302D01*
X3053567Y896282D01*
X3052421Y896181D01*
X3051283Y895999D01*
X3050164Y895736D01*
X3049063Y895396D01*
X3047991Y894980D01*
X3046950Y894488D01*
X3045946Y893924D01*
X3044985Y893292D01*
X3044071Y892593D01*
X3043209Y891831D01*
X3042403Y891010D01*
X3041656Y890133D01*
X3040973Y889207D01*
X3040357Y888234D01*
X3039812Y887222D01*
X3039339Y886172D01*
X3038941Y885093D01*
X3038620Y883987D01*
X3038378Y882863D01*
X3038216Y881723D01*
X3038135Y880574D01*
X3038135Y879425D01*
X3038216Y878276D01*
X3038378Y877136D01*
X3038620Y876012D01*
X3038941Y874906D01*
X3039339Y873827D01*
X3039812Y872777D01*
X3040357Y871765D01*
X3040973Y870792D01*
X3041656Y869866D01*
X3042403Y868989D01*
X3043209Y868168D01*
X3044071Y867406D01*
X3044985Y866707D01*
X3045946Y866075D01*
X3046950Y865511D01*
X3047991Y865019D01*
X3049063Y864603D01*
X3050164Y864263D01*
X3051283Y864000D01*
X3052421Y863818D01*
X3053567Y863717D01*
G37*
G36*
X3104718Y863697D02*
G01*
X3105866Y863757D01*
X3107008Y863899D01*
X3108137Y864122D01*
X3109249Y864423D01*
X3110335Y864801D01*
X3111392Y865257D01*
X3112416Y865785D01*
X3113398Y866383D01*
X3114336Y867049D01*
X3115226Y867781D01*
X3116060Y868573D01*
X3116837Y869421D01*
X3117552Y870322D01*
X3118203Y871273D01*
X3118783Y872265D01*
X3119294Y873297D01*
X3119729Y874362D01*
X3120088Y875457D01*
X3120370Y876572D01*
X3120573Y877705D01*
X3120694Y878850D01*
X3120735Y880000D01*
X3120694Y881149D01*
X3120573Y882294D01*
X3120370Y883427D01*
X3120088Y884542D01*
X3119729Y885637D01*
X3119294Y886702D01*
X3118783Y887734D01*
X3118203Y888726D01*
X3117552Y889677D01*
X3116837Y890578D01*
X3116060Y891426D01*
X3115226Y892219D01*
X3114336Y892950D01*
X3113398Y893616D01*
X3112416Y894214D01*
X3111392Y894742D01*
X3110335Y895198D01*
X3109249Y895576D01*
X3108137Y895877D01*
X3107008Y896100D01*
X3105866Y896242D01*
X3104718Y896302D01*
X3103567Y896282D01*
X3102421Y896181D01*
X3101283Y895999D01*
X3100164Y895736D01*
X3099063Y895396D01*
X3097991Y894980D01*
X3096950Y894488D01*
X3095946Y893924D01*
X3094985Y893292D01*
X3094071Y892593D01*
X3093209Y891831D01*
X3092403Y891010D01*
X3091656Y890133D01*
X3090973Y889207D01*
X3090357Y888234D01*
X3089812Y887222D01*
X3089339Y886172D01*
X3088941Y885093D01*
X3088620Y883987D01*
X3088378Y882863D01*
X3088216Y881723D01*
X3088135Y880574D01*
X3088135Y879425D01*
X3088216Y878276D01*
X3088378Y877136D01*
X3088620Y876012D01*
X3088941Y874906D01*
X3089339Y873827D01*
X3089812Y872777D01*
X3090357Y871765D01*
X3090973Y870792D01*
X3091656Y869866D01*
X3092403Y868989D01*
X3093209Y868168D01*
X3094071Y867406D01*
X3094985Y866707D01*
X3095946Y866075D01*
X3096950Y865511D01*
X3097991Y865019D01*
X3099063Y864603D01*
X3100164Y864263D01*
X3101283Y864000D01*
X3102421Y863818D01*
X3103567Y863717D01*
G37*
G36*
X3154718Y863697D02*
G01*
X3155866Y863757D01*
X3157008Y863899D01*
X3158137Y864122D01*
X3159249Y864423D01*
X3160335Y864801D01*
X3161392Y865257D01*
X3162416Y865785D01*
X3163398Y866383D01*
X3164336Y867049D01*
X3165226Y867781D01*
X3166060Y868573D01*
X3166837Y869421D01*
X3167552Y870322D01*
X3168203Y871273D01*
X3168783Y872265D01*
X3169294Y873297D01*
X3169729Y874362D01*
X3170088Y875457D01*
X3170370Y876572D01*
X3170573Y877705D01*
X3170694Y878850D01*
X3170735Y880000D01*
X3170694Y881149D01*
X3170573Y882294D01*
X3170370Y883427D01*
X3170088Y884542D01*
X3169729Y885637D01*
X3169294Y886702D01*
X3168783Y887734D01*
X3168203Y888726D01*
X3167552Y889677D01*
X3166837Y890578D01*
X3166060Y891426D01*
X3165226Y892219D01*
X3164336Y892950D01*
X3163398Y893616D01*
X3162416Y894214D01*
X3161392Y894742D01*
X3160335Y895198D01*
X3159249Y895576D01*
X3158137Y895877D01*
X3157008Y896100D01*
X3155866Y896242D01*
X3154718Y896302D01*
X3153567Y896282D01*
X3152421Y896181D01*
X3151283Y895999D01*
X3150164Y895736D01*
X3149063Y895396D01*
X3147991Y894980D01*
X3146950Y894488D01*
X3145946Y893924D01*
X3144985Y893292D01*
X3144071Y892593D01*
X3143209Y891831D01*
X3142403Y891010D01*
X3141656Y890133D01*
X3140973Y889207D01*
X3140357Y888234D01*
X3139812Y887222D01*
X3139339Y886172D01*
X3138941Y885093D01*
X3138620Y883987D01*
X3138378Y882863D01*
X3138216Y881723D01*
X3138135Y880574D01*
X3138135Y879425D01*
X3138216Y878276D01*
X3138378Y877136D01*
X3138620Y876012D01*
X3138941Y874906D01*
X3139339Y873827D01*
X3139812Y872777D01*
X3140357Y871765D01*
X3140973Y870792D01*
X3141656Y869866D01*
X3142403Y868989D01*
X3143209Y868168D01*
X3144071Y867406D01*
X3144985Y866707D01*
X3145946Y866075D01*
X3146950Y865511D01*
X3147991Y865019D01*
X3149063Y864603D01*
X3150164Y864263D01*
X3151283Y864000D01*
X3152421Y863818D01*
X3153567Y863717D01*
G37*
G36*
X3204718Y863697D02*
G01*
X3205866Y863757D01*
X3207008Y863899D01*
X3208137Y864122D01*
X3209249Y864423D01*
X3210335Y864801D01*
X3211392Y865257D01*
X3212416Y865785D01*
X3213398Y866383D01*
X3214336Y867049D01*
X3215226Y867781D01*
X3216060Y868573D01*
X3216837Y869421D01*
X3217552Y870322D01*
X3218203Y871273D01*
X3218783Y872265D01*
X3219294Y873297D01*
X3219729Y874362D01*
X3220088Y875457D01*
X3220370Y876572D01*
X3220573Y877705D01*
X3220694Y878850D01*
X3220735Y880000D01*
X3220694Y881149D01*
X3220573Y882294D01*
X3220370Y883427D01*
X3220088Y884542D01*
X3219729Y885637D01*
X3219294Y886702D01*
X3218783Y887734D01*
X3218203Y888726D01*
X3217552Y889677D01*
X3216837Y890578D01*
X3216060Y891426D01*
X3215226Y892219D01*
X3214336Y892950D01*
X3213398Y893616D01*
X3212416Y894214D01*
X3211392Y894742D01*
X3210335Y895198D01*
X3209249Y895576D01*
X3208137Y895877D01*
X3207008Y896100D01*
X3205866Y896242D01*
X3204718Y896302D01*
X3203567Y896282D01*
X3202421Y896181D01*
X3201283Y895999D01*
X3200164Y895736D01*
X3199063Y895396D01*
X3197991Y894980D01*
X3196950Y894488D01*
X3195946Y893924D01*
X3194985Y893292D01*
X3194071Y892593D01*
X3193209Y891831D01*
X3192403Y891010D01*
X3191656Y890133D01*
X3190973Y889207D01*
X3190357Y888234D01*
X3189812Y887222D01*
X3189339Y886172D01*
X3188941Y885093D01*
X3188620Y883987D01*
X3188378Y882863D01*
X3188216Y881723D01*
X3188135Y880574D01*
X3188135Y879425D01*
X3188216Y878276D01*
X3188378Y877136D01*
X3188620Y876012D01*
X3188941Y874906D01*
X3189339Y873827D01*
X3189812Y872777D01*
X3190357Y871765D01*
X3190973Y870792D01*
X3191656Y869866D01*
X3192403Y868989D01*
X3193209Y868168D01*
X3194071Y867406D01*
X3194985Y866707D01*
X3195946Y866075D01*
X3196950Y865511D01*
X3197991Y865019D01*
X3199063Y864603D01*
X3200164Y864263D01*
X3201283Y864000D01*
X3202421Y863818D01*
X3203567Y863717D01*
G37*
G36*
X3254718Y863697D02*
G01*
X3255866Y863757D01*
X3257008Y863899D01*
X3258137Y864122D01*
X3259249Y864423D01*
X3260335Y864801D01*
X3261392Y865257D01*
X3262416Y865785D01*
X3263398Y866383D01*
X3264336Y867049D01*
X3265226Y867781D01*
X3266060Y868573D01*
X3266837Y869421D01*
X3267552Y870322D01*
X3268203Y871273D01*
X3268783Y872265D01*
X3269294Y873297D01*
X3269729Y874362D01*
X3270088Y875457D01*
X3270370Y876572D01*
X3270573Y877705D01*
X3270694Y878850D01*
X3270735Y880000D01*
X3270694Y881149D01*
X3270573Y882294D01*
X3270370Y883427D01*
X3270088Y884542D01*
X3269729Y885637D01*
X3269294Y886702D01*
X3268783Y887734D01*
X3268203Y888726D01*
X3267552Y889677D01*
X3266837Y890578D01*
X3266060Y891426D01*
X3265226Y892219D01*
X3264336Y892950D01*
X3263398Y893616D01*
X3262416Y894214D01*
X3261392Y894742D01*
X3260335Y895198D01*
X3259249Y895576D01*
X3258137Y895877D01*
X3257008Y896100D01*
X3255866Y896242D01*
X3254718Y896302D01*
X3253567Y896282D01*
X3252421Y896181D01*
X3251283Y895999D01*
X3250164Y895736D01*
X3249063Y895396D01*
X3247991Y894980D01*
X3246950Y894488D01*
X3245946Y893924D01*
X3244985Y893292D01*
X3244071Y892593D01*
X3243209Y891831D01*
X3242403Y891010D01*
X3241656Y890133D01*
X3240973Y889207D01*
X3240357Y888234D01*
X3239812Y887222D01*
X3239339Y886172D01*
X3238941Y885093D01*
X3238620Y883987D01*
X3238378Y882863D01*
X3238216Y881723D01*
X3238135Y880574D01*
X3238135Y879425D01*
X3238216Y878276D01*
X3238378Y877136D01*
X3238620Y876012D01*
X3238941Y874906D01*
X3239339Y873827D01*
X3239812Y872777D01*
X3240357Y871765D01*
X3240973Y870792D01*
X3241656Y869866D01*
X3242403Y868989D01*
X3243209Y868168D01*
X3244071Y867406D01*
X3244985Y866707D01*
X3245946Y866075D01*
X3246950Y865511D01*
X3247991Y865019D01*
X3249063Y864603D01*
X3250164Y864263D01*
X3251283Y864000D01*
X3252421Y863818D01*
X3253567Y863717D01*
G37*
G36*
X3304718Y863697D02*
G01*
X3305866Y863757D01*
X3307008Y863899D01*
X3308137Y864122D01*
X3309249Y864423D01*
X3310335Y864801D01*
X3311392Y865257D01*
X3312416Y865785D01*
X3313398Y866383D01*
X3314336Y867049D01*
X3315226Y867781D01*
X3316060Y868573D01*
X3316837Y869421D01*
X3317552Y870322D01*
X3318203Y871273D01*
X3318783Y872265D01*
X3319294Y873297D01*
X3319729Y874362D01*
X3320088Y875457D01*
X3320370Y876572D01*
X3320573Y877705D01*
X3320694Y878850D01*
X3320735Y880000D01*
X3320694Y881149D01*
X3320573Y882294D01*
X3320370Y883427D01*
X3320088Y884542D01*
X3319729Y885637D01*
X3319294Y886702D01*
X3318783Y887734D01*
X3318203Y888726D01*
X3317552Y889677D01*
X3316837Y890578D01*
X3316060Y891426D01*
X3315226Y892219D01*
X3314336Y892950D01*
X3313398Y893616D01*
X3312416Y894214D01*
X3311392Y894742D01*
X3310335Y895198D01*
X3309249Y895576D01*
X3308137Y895877D01*
X3307008Y896100D01*
X3305866Y896242D01*
X3304718Y896302D01*
X3303567Y896282D01*
X3302421Y896181D01*
X3301283Y895999D01*
X3300164Y895736D01*
X3299063Y895396D01*
X3297991Y894980D01*
X3296950Y894488D01*
X3295946Y893924D01*
X3294985Y893292D01*
X3294071Y892593D01*
X3293209Y891831D01*
X3292403Y891010D01*
X3291656Y890133D01*
X3290973Y889207D01*
X3290357Y888234D01*
X3289812Y887222D01*
X3289339Y886172D01*
X3288941Y885093D01*
X3288620Y883987D01*
X3288378Y882863D01*
X3288216Y881723D01*
X3288135Y880574D01*
X3288135Y879425D01*
X3288216Y878276D01*
X3288378Y877136D01*
X3288620Y876012D01*
X3288941Y874906D01*
X3289339Y873827D01*
X3289812Y872777D01*
X3290357Y871765D01*
X3290973Y870792D01*
X3291656Y869866D01*
X3292403Y868989D01*
X3293209Y868168D01*
X3294071Y867406D01*
X3294985Y866707D01*
X3295946Y866075D01*
X3296950Y865511D01*
X3297991Y865019D01*
X3299063Y864603D01*
X3300164Y864263D01*
X3301283Y864000D01*
X3302421Y863818D01*
X3303567Y863717D01*
G37*
G36*
X3354718Y863697D02*
G01*
X3355866Y863757D01*
X3357008Y863899D01*
X3358137Y864122D01*
X3359249Y864423D01*
X3360335Y864801D01*
X3361392Y865257D01*
X3362416Y865785D01*
X3363398Y866383D01*
X3364336Y867049D01*
X3365226Y867781D01*
X3366060Y868573D01*
X3366837Y869421D01*
X3367552Y870322D01*
X3368203Y871273D01*
X3368783Y872265D01*
X3369294Y873297D01*
X3369729Y874362D01*
X3370088Y875457D01*
X3370370Y876572D01*
X3370573Y877705D01*
X3370694Y878850D01*
X3370735Y880000D01*
X3370694Y881149D01*
X3370573Y882294D01*
X3370370Y883427D01*
X3370088Y884542D01*
X3369729Y885637D01*
X3369294Y886702D01*
X3368783Y887734D01*
X3368203Y888726D01*
X3367552Y889677D01*
X3366837Y890578D01*
X3366060Y891426D01*
X3365226Y892219D01*
X3364336Y892950D01*
X3363398Y893616D01*
X3362416Y894214D01*
X3361392Y894742D01*
X3360335Y895198D01*
X3359249Y895576D01*
X3358137Y895877D01*
X3357008Y896100D01*
X3355866Y896242D01*
X3354718Y896302D01*
X3353567Y896282D01*
X3352421Y896181D01*
X3351283Y895999D01*
X3350164Y895736D01*
X3349063Y895396D01*
X3347991Y894980D01*
X3346950Y894488D01*
X3345946Y893924D01*
X3344985Y893292D01*
X3344071Y892593D01*
X3343209Y891831D01*
X3342403Y891010D01*
X3341656Y890133D01*
X3340973Y889207D01*
X3340357Y888234D01*
X3339812Y887222D01*
X3339339Y886172D01*
X3338941Y885093D01*
X3338620Y883987D01*
X3338378Y882863D01*
X3338216Y881723D01*
X3338135Y880574D01*
X3338135Y879425D01*
X3338216Y878276D01*
X3338378Y877136D01*
X3338620Y876012D01*
X3338941Y874906D01*
X3339339Y873827D01*
X3339812Y872777D01*
X3340357Y871765D01*
X3340973Y870792D01*
X3341656Y869866D01*
X3342403Y868989D01*
X3343209Y868168D01*
X3344071Y867406D01*
X3344985Y866707D01*
X3345946Y866075D01*
X3346950Y865511D01*
X3347991Y865019D01*
X3349063Y864603D01*
X3350164Y864263D01*
X3351283Y864000D01*
X3352421Y863818D01*
X3353567Y863717D01*
G37*
G36*
X3404718Y863697D02*
G01*
X3405866Y863757D01*
X3407008Y863899D01*
X3408137Y864122D01*
X3409249Y864423D01*
X3410335Y864801D01*
X3411392Y865257D01*
X3412416Y865785D01*
X3413398Y866383D01*
X3414336Y867049D01*
X3415226Y867781D01*
X3416060Y868573D01*
X3416837Y869421D01*
X3417552Y870322D01*
X3418203Y871273D01*
X3418783Y872265D01*
X3419294Y873297D01*
X3419729Y874362D01*
X3420088Y875457D01*
X3420370Y876572D01*
X3420573Y877705D01*
X3420694Y878850D01*
X3420735Y880000D01*
X3420694Y881149D01*
X3420573Y882294D01*
X3420370Y883427D01*
X3420088Y884542D01*
X3419729Y885637D01*
X3419294Y886702D01*
X3418783Y887734D01*
X3418203Y888726D01*
X3417552Y889677D01*
X3416837Y890578D01*
X3416060Y891426D01*
X3415226Y892219D01*
X3414336Y892950D01*
X3413398Y893616D01*
X3412416Y894214D01*
X3411392Y894742D01*
X3410335Y895198D01*
X3409249Y895576D01*
X3408137Y895877D01*
X3407008Y896100D01*
X3405866Y896242D01*
X3404718Y896302D01*
X3403567Y896282D01*
X3402421Y896181D01*
X3401283Y895999D01*
X3400164Y895736D01*
X3399063Y895396D01*
X3397991Y894980D01*
X3396950Y894488D01*
X3395946Y893924D01*
X3394985Y893292D01*
X3394071Y892593D01*
X3393209Y891831D01*
X3392403Y891010D01*
X3391656Y890133D01*
X3390973Y889207D01*
X3390357Y888234D01*
X3389812Y887222D01*
X3389339Y886172D01*
X3388941Y885093D01*
X3388620Y883987D01*
X3388378Y882863D01*
X3388216Y881723D01*
X3388135Y880574D01*
X3388135Y879425D01*
X3388216Y878276D01*
X3388378Y877136D01*
X3388620Y876012D01*
X3388941Y874906D01*
X3389339Y873827D01*
X3389812Y872777D01*
X3390357Y871765D01*
X3390973Y870792D01*
X3391656Y869866D01*
X3392403Y868989D01*
X3393209Y868168D01*
X3394071Y867406D01*
X3394985Y866707D01*
X3395946Y866075D01*
X3396950Y865511D01*
X3397991Y865019D01*
X3399063Y864603D01*
X3400164Y864263D01*
X3401283Y864000D01*
X3402421Y863818D01*
X3403567Y863717D01*
G37*
G36*
X1180987Y883897D02*
G01*
X1182137Y883957D01*
X1183279Y884099D01*
X1184408Y884322D01*
X1185519Y884623D01*
X1186606Y885001D01*
X1187663Y885457D01*
X1188685Y885985D01*
X1189669Y886583D01*
X1190607Y887249D01*
X1191495Y887980D01*
X1192331Y888773D01*
X1193108Y889621D01*
X1193823Y890522D01*
X1194472Y891473D01*
X1195054Y892465D01*
X1195564Y893497D01*
X1196000Y894562D01*
X1196359Y895657D01*
X1196640Y896772D01*
X1196842Y897905D01*
X1196963Y899050D01*
X1197004Y900199D01*
X1196963Y901350D01*
X1196842Y902494D01*
X1196640Y903627D01*
X1196359Y904742D01*
X1196000Y905837D01*
X1195564Y906902D01*
X1195054Y907934D01*
X1194472Y908926D01*
X1193823Y909877D01*
X1193108Y910778D01*
X1192331Y911626D01*
X1191495Y912418D01*
X1190607Y913150D01*
X1189669Y913816D01*
X1188685Y914414D01*
X1187663Y914942D01*
X1186606Y915398D01*
X1185519Y915776D01*
X1184408Y916078D01*
X1183279Y916300D01*
X1182137Y916442D01*
X1180987Y916502D01*
X1179836Y916482D01*
X1178690Y916381D01*
X1177554Y916199D01*
X1176433Y915936D01*
X1175334Y915596D01*
X1174260Y915180D01*
X1173221Y914688D01*
X1172217Y914124D01*
X1171256Y913492D01*
X1170342Y912793D01*
X1169480Y912031D01*
X1168672Y911210D01*
X1167926Y910333D01*
X1167244Y909407D01*
X1166628Y908434D01*
X1166081Y907422D01*
X1165609Y906372D01*
X1165210Y905293D01*
X1164889Y904187D01*
X1164647Y903063D01*
X1164485Y901923D01*
X1164404Y900774D01*
X1164404Y899625D01*
X1164485Y898476D01*
X1164647Y897337D01*
X1164889Y896212D01*
X1165210Y895106D01*
X1165609Y894027D01*
X1166081Y892977D01*
X1166628Y891965D01*
X1167244Y890992D01*
X1167926Y890066D01*
X1168672Y889189D01*
X1169480Y888368D01*
X1170342Y887606D01*
X1171256Y886907D01*
X1172217Y886275D01*
X1173221Y885711D01*
X1174260Y885219D01*
X1175334Y884803D01*
X1176433Y884463D01*
X1177554Y884200D01*
X1178690Y884018D01*
X1179836Y883917D01*
G37*
G36*
X2707287Y893697D02*
G01*
X2708437Y893757D01*
X2709579Y893899D01*
X2710708Y894122D01*
X2711818Y894423D01*
X2712906Y894801D01*
X2713963Y895257D01*
X2714985Y895785D01*
X2715968Y896383D01*
X2716907Y897049D01*
X2717795Y897781D01*
X2718630Y898573D01*
X2719408Y899421D01*
X2720123Y900322D01*
X2720772Y901273D01*
X2721354Y902265D01*
X2721863Y903297D01*
X2722299Y904362D01*
X2722659Y905457D01*
X2722941Y906572D01*
X2723143Y907705D01*
X2723263Y908850D01*
X2723305Y910000D01*
X2723263Y911149D01*
X2723143Y912294D01*
X2722941Y913427D01*
X2722659Y914542D01*
X2722299Y915637D01*
X2721863Y916702D01*
X2721354Y917734D01*
X2720772Y918726D01*
X2720123Y919677D01*
X2719408Y920578D01*
X2718630Y921426D01*
X2717795Y922219D01*
X2716907Y922950D01*
X2715968Y923616D01*
X2714985Y924214D01*
X2713963Y924742D01*
X2712906Y925198D01*
X2711818Y925576D01*
X2710708Y925877D01*
X2709579Y926100D01*
X2708437Y926242D01*
X2707287Y926302D01*
X2706136Y926282D01*
X2704991Y926181D01*
X2703854Y925999D01*
X2702734Y925736D01*
X2701634Y925396D01*
X2700560Y924980D01*
X2699521Y924488D01*
X2698517Y923924D01*
X2697556Y923292D01*
X2696642Y922593D01*
X2695780Y921831D01*
X2694973Y921010D01*
X2694227Y920133D01*
X2693544Y919207D01*
X2692928Y918234D01*
X2692381Y917222D01*
X2691908Y916172D01*
X2691511Y915093D01*
X2691189Y913987D01*
X2690947Y912863D01*
X2690785Y911723D01*
X2690704Y910574D01*
X2690704Y909425D01*
X2690785Y908276D01*
X2690947Y907136D01*
X2691189Y906012D01*
X2691511Y904906D01*
X2691908Y903827D01*
X2692381Y902777D01*
X2692928Y901765D01*
X2693544Y900792D01*
X2694227Y899866D01*
X2694973Y898989D01*
X2695780Y898168D01*
X2696642Y897406D01*
X2697556Y896707D01*
X2698517Y896075D01*
X2699521Y895511D01*
X2700560Y895019D01*
X2701634Y894603D01*
X2702734Y894263D01*
X2703854Y894000D01*
X2704991Y893818D01*
X2706136Y893717D01*
G37*
G36*
X2655000Y914403D02*
G01*
X2656693Y914443D01*
X2658383Y914564D01*
X2660065Y914765D01*
X2661737Y915046D01*
X2663392Y915407D01*
X2665029Y915846D01*
X2666642Y916361D01*
X2668230Y916954D01*
X2669786Y917620D01*
X2671310Y918360D01*
X2672798Y919173D01*
X2674245Y920055D01*
X2675648Y921003D01*
X2677003Y922020D01*
X2678310Y923098D01*
X2679564Y924238D01*
X2680762Y925435D01*
X2681902Y926689D01*
X2682979Y927995D01*
X2683995Y929351D01*
X2684944Y930754D01*
X2685826Y932202D01*
X2686638Y933688D01*
X2687379Y935212D01*
X2688046Y936770D01*
X2688638Y938357D01*
X2689153Y939971D01*
X2689593Y941608D01*
X2689952Y943263D01*
X2690234Y944933D01*
X2690434Y946615D01*
X2690555Y948305D01*
X2690595Y950000D01*
X2690555Y951694D01*
X2690434Y953384D01*
X2690234Y955066D01*
X2689952Y956736D01*
X2689593Y958391D01*
X2689153Y960028D01*
X2688638Y961642D01*
X2688046Y963229D01*
X2687379Y964787D01*
X2686638Y966311D01*
X2685826Y967797D01*
X2684944Y969245D01*
X2683995Y970648D01*
X2682979Y972004D01*
X2681902Y973310D01*
X2680762Y974564D01*
X2679564Y975761D01*
X2678310Y976902D01*
X2677003Y977979D01*
X2675648Y978996D01*
X2674245Y979944D01*
X2672798Y980826D01*
X2671310Y981639D01*
X2669786Y982379D01*
X2668230Y983045D01*
X2666642Y983638D01*
X2665029Y984153D01*
X2663392Y984592D01*
X2661737Y984953D01*
X2660065Y985234D01*
X2658383Y985435D01*
X2656693Y985556D01*
X2655000Y985596D01*
X2653306Y985556D01*
X2651616Y985435D01*
X2649934Y985234D01*
X2648262Y984953D01*
X2646607Y984592D01*
X2644970Y984153D01*
X2643357Y983638D01*
X2641769Y983045D01*
X2640213Y982379D01*
X2638689Y981639D01*
X2637201Y980826D01*
X2635754Y979944D01*
X2634351Y978996D01*
X2632996Y977979D01*
X2631689Y976902D01*
X2630435Y975761D01*
X2629237Y974564D01*
X2628098Y973310D01*
X2627020Y972004D01*
X2626004Y970648D01*
X2625055Y969245D01*
X2624173Y967797D01*
X2623361Y966311D01*
X2622620Y964787D01*
X2621953Y963229D01*
X2621361Y961642D01*
X2620846Y960028D01*
X2620406Y958391D01*
X2620047Y956736D01*
X2619765Y955066D01*
X2619565Y953384D01*
X2619444Y951694D01*
X2619404Y950000D01*
X2619444Y948305D01*
X2619565Y946615D01*
X2619765Y944933D01*
X2620047Y943263D01*
X2620406Y941608D01*
X2620846Y939971D01*
X2621361Y938357D01*
X2621953Y936770D01*
X2622620Y935212D01*
X2623361Y933688D01*
X2624173Y932202D01*
X2625055Y930754D01*
X2626004Y929351D01*
X2627020Y927995D01*
X2628098Y926689D01*
X2629237Y925435D01*
X2630435Y924238D01*
X2631689Y923098D01*
X2632996Y922020D01*
X2634351Y921003D01*
X2635754Y920055D01*
X2637201Y919173D01*
X2638689Y918360D01*
X2640213Y917620D01*
X2641769Y916954D01*
X2643357Y916361D01*
X2644970Y915846D01*
X2646607Y915407D01*
X2648262Y915046D01*
X2649934Y914765D01*
X2651616Y914564D01*
X2653306Y914443D01*
G37*
G36*
X2555000Y914403D02*
G01*
X2556693Y914443D01*
X2558383Y914564D01*
X2560065Y914765D01*
X2561737Y915046D01*
X2563392Y915407D01*
X2565029Y915846D01*
X2566642Y916361D01*
X2568230Y916954D01*
X2569786Y917620D01*
X2571310Y918360D01*
X2572798Y919173D01*
X2574245Y920055D01*
X2575648Y921003D01*
X2577003Y922020D01*
X2578310Y923098D01*
X2579564Y924238D01*
X2580762Y925435D01*
X2581902Y926689D01*
X2582979Y927995D01*
X2583995Y929351D01*
X2584944Y930754D01*
X2585826Y932202D01*
X2586638Y933688D01*
X2587379Y935212D01*
X2588046Y936770D01*
X2588638Y938357D01*
X2589153Y939971D01*
X2589593Y941608D01*
X2589952Y943263D01*
X2590234Y944933D01*
X2590434Y946615D01*
X2590555Y948305D01*
X2590595Y950000D01*
X2590555Y951694D01*
X2590434Y953384D01*
X2590234Y955066D01*
X2589952Y956736D01*
X2589593Y958391D01*
X2589153Y960028D01*
X2588638Y961642D01*
X2588046Y963229D01*
X2587379Y964787D01*
X2586638Y966311D01*
X2585826Y967797D01*
X2584944Y969245D01*
X2583995Y970648D01*
X2582979Y972004D01*
X2581902Y973310D01*
X2580762Y974564D01*
X2579564Y975761D01*
X2578310Y976902D01*
X2577003Y977979D01*
X2575648Y978996D01*
X2574245Y979944D01*
X2572798Y980826D01*
X2571310Y981639D01*
X2569786Y982379D01*
X2568230Y983045D01*
X2566642Y983638D01*
X2565029Y984153D01*
X2563392Y984592D01*
X2561737Y984953D01*
X2560065Y985234D01*
X2558383Y985435D01*
X2556693Y985556D01*
X2555000Y985596D01*
X2553306Y985556D01*
X2551616Y985435D01*
X2549934Y985234D01*
X2548262Y984953D01*
X2546607Y984592D01*
X2544970Y984153D01*
X2543357Y983638D01*
X2541769Y983045D01*
X2540213Y982379D01*
X2538689Y981639D01*
X2537201Y980826D01*
X2535754Y979944D01*
X2534351Y978996D01*
X2532996Y977979D01*
X2531689Y976902D01*
X2530435Y975761D01*
X2529237Y974564D01*
X2528098Y973310D01*
X2527020Y972004D01*
X2526004Y970648D01*
X2525055Y969245D01*
X2524173Y967797D01*
X2523361Y966311D01*
X2522620Y964787D01*
X2521953Y963229D01*
X2521361Y961642D01*
X2520846Y960028D01*
X2520406Y958391D01*
X2520047Y956736D01*
X2519765Y955066D01*
X2519565Y953384D01*
X2519444Y951694D01*
X2519404Y950000D01*
X2519444Y948305D01*
X2519565Y946615D01*
X2519765Y944933D01*
X2520047Y943263D01*
X2520406Y941608D01*
X2520846Y939971D01*
X2521361Y938357D01*
X2521953Y936770D01*
X2522620Y935212D01*
X2523361Y933688D01*
X2524173Y932202D01*
X2525055Y930754D01*
X2526004Y929351D01*
X2527020Y927995D01*
X2528098Y926689D01*
X2529237Y925435D01*
X2530435Y924238D01*
X2531689Y923098D01*
X2532996Y922020D01*
X2534351Y921003D01*
X2535754Y920055D01*
X2537201Y919173D01*
X2538689Y918360D01*
X2540213Y917620D01*
X2541769Y916954D01*
X2543357Y916361D01*
X2544970Y915846D01*
X2546607Y915407D01*
X2548262Y915046D01*
X2549934Y914765D01*
X2551616Y914564D01*
X2553306Y914443D01*
G37*
G36*
X2355000Y914403D02*
G01*
X2356693Y914443D01*
X2358383Y914564D01*
X2360065Y914765D01*
X2361737Y915046D01*
X2363392Y915407D01*
X2365029Y915846D01*
X2366642Y916361D01*
X2368230Y916954D01*
X2369786Y917620D01*
X2371310Y918360D01*
X2372798Y919173D01*
X2374245Y920055D01*
X2375648Y921003D01*
X2377003Y922020D01*
X2378310Y923098D01*
X2379564Y924238D01*
X2380762Y925435D01*
X2381902Y926689D01*
X2382979Y927995D01*
X2383995Y929351D01*
X2384944Y930754D01*
X2385826Y932202D01*
X2386638Y933688D01*
X2387379Y935212D01*
X2388046Y936770D01*
X2388638Y938357D01*
X2389153Y939971D01*
X2389593Y941608D01*
X2389952Y943263D01*
X2390234Y944933D01*
X2390434Y946615D01*
X2390555Y948305D01*
X2390595Y950000D01*
X2390555Y951694D01*
X2390434Y953384D01*
X2390234Y955066D01*
X2389952Y956736D01*
X2389593Y958391D01*
X2389153Y960028D01*
X2388638Y961642D01*
X2388046Y963229D01*
X2387379Y964787D01*
X2386638Y966311D01*
X2385826Y967797D01*
X2384944Y969245D01*
X2383995Y970648D01*
X2382979Y972004D01*
X2381902Y973310D01*
X2380762Y974564D01*
X2379564Y975761D01*
X2378310Y976902D01*
X2377003Y977979D01*
X2375648Y978996D01*
X2374245Y979944D01*
X2372798Y980826D01*
X2371310Y981639D01*
X2369786Y982379D01*
X2368230Y983045D01*
X2366642Y983638D01*
X2365029Y984153D01*
X2363392Y984592D01*
X2361737Y984953D01*
X2360065Y985234D01*
X2358383Y985435D01*
X2356693Y985556D01*
X2355000Y985596D01*
X2353306Y985556D01*
X2351616Y985435D01*
X2349934Y985234D01*
X2348262Y984953D01*
X2346607Y984592D01*
X2344970Y984153D01*
X2343357Y983638D01*
X2341769Y983045D01*
X2340213Y982379D01*
X2338689Y981639D01*
X2337201Y980826D01*
X2335754Y979944D01*
X2334351Y978996D01*
X2332996Y977979D01*
X2331689Y976902D01*
X2330435Y975761D01*
X2329237Y974564D01*
X2328098Y973310D01*
X2327020Y972004D01*
X2326004Y970648D01*
X2325055Y969245D01*
X2324173Y967797D01*
X2323361Y966311D01*
X2322620Y964787D01*
X2321953Y963229D01*
X2321361Y961642D01*
X2320846Y960028D01*
X2320406Y958391D01*
X2320047Y956736D01*
X2319765Y955066D01*
X2319565Y953384D01*
X2319444Y951694D01*
X2319404Y950000D01*
X2319444Y948305D01*
X2319565Y946615D01*
X2319765Y944933D01*
X2320047Y943263D01*
X2320406Y941608D01*
X2320846Y939971D01*
X2321361Y938357D01*
X2321953Y936770D01*
X2322620Y935212D01*
X2323361Y933688D01*
X2324173Y932202D01*
X2325055Y930754D01*
X2326004Y929351D01*
X2327020Y927995D01*
X2328098Y926689D01*
X2329237Y925435D01*
X2330435Y924238D01*
X2331689Y923098D01*
X2332996Y922020D01*
X2334351Y921003D01*
X2335754Y920055D01*
X2337201Y919173D01*
X2338689Y918360D01*
X2340213Y917620D01*
X2341769Y916954D01*
X2343357Y916361D01*
X2344970Y915846D01*
X2346607Y915407D01*
X2348262Y915046D01*
X2349934Y914765D01*
X2351616Y914564D01*
X2353306Y914443D01*
G37*
G36*
X2255000Y914403D02*
G01*
X2256693Y914443D01*
X2258383Y914564D01*
X2260065Y914765D01*
X2261737Y915046D01*
X2263392Y915407D01*
X2265029Y915846D01*
X2266642Y916361D01*
X2268230Y916954D01*
X2269786Y917620D01*
X2271310Y918360D01*
X2272798Y919173D01*
X2274245Y920055D01*
X2275648Y921003D01*
X2277003Y922020D01*
X2278310Y923098D01*
X2279564Y924238D01*
X2280762Y925435D01*
X2281902Y926689D01*
X2282979Y927995D01*
X2283995Y929351D01*
X2284944Y930754D01*
X2285826Y932202D01*
X2286638Y933688D01*
X2287379Y935212D01*
X2288046Y936770D01*
X2288638Y938357D01*
X2289153Y939971D01*
X2289593Y941608D01*
X2289952Y943263D01*
X2290234Y944933D01*
X2290434Y946615D01*
X2290555Y948305D01*
X2290595Y950000D01*
X2290555Y951694D01*
X2290434Y953384D01*
X2290234Y955066D01*
X2289952Y956736D01*
X2289593Y958391D01*
X2289153Y960028D01*
X2288638Y961642D01*
X2288046Y963229D01*
X2287379Y964787D01*
X2286638Y966311D01*
X2285826Y967797D01*
X2284944Y969245D01*
X2283995Y970648D01*
X2282979Y972004D01*
X2281902Y973310D01*
X2280762Y974564D01*
X2279564Y975761D01*
X2278310Y976902D01*
X2277003Y977979D01*
X2275648Y978996D01*
X2274245Y979944D01*
X2272798Y980826D01*
X2271310Y981639D01*
X2269786Y982379D01*
X2268230Y983045D01*
X2266642Y983638D01*
X2265029Y984153D01*
X2263392Y984592D01*
X2261737Y984953D01*
X2260065Y985234D01*
X2258383Y985435D01*
X2256693Y985556D01*
X2255000Y985596D01*
X2253306Y985556D01*
X2251616Y985435D01*
X2249934Y985234D01*
X2248262Y984953D01*
X2246607Y984592D01*
X2244970Y984153D01*
X2243357Y983638D01*
X2241769Y983045D01*
X2240213Y982379D01*
X2238689Y981639D01*
X2237201Y980826D01*
X2235754Y979944D01*
X2234351Y978996D01*
X2232996Y977979D01*
X2231689Y976902D01*
X2230435Y975761D01*
X2229237Y974564D01*
X2228098Y973310D01*
X2227020Y972004D01*
X2226004Y970648D01*
X2225055Y969245D01*
X2224173Y967797D01*
X2223361Y966311D01*
X2222620Y964787D01*
X2221953Y963229D01*
X2221361Y961642D01*
X2220846Y960028D01*
X2220406Y958391D01*
X2220047Y956736D01*
X2219765Y955066D01*
X2219565Y953384D01*
X2219444Y951694D01*
X2219404Y950000D01*
X2219444Y948305D01*
X2219565Y946615D01*
X2219765Y944933D01*
X2220047Y943263D01*
X2220406Y941608D01*
X2220846Y939971D01*
X2221361Y938357D01*
X2221953Y936770D01*
X2222620Y935212D01*
X2223361Y933688D01*
X2224173Y932202D01*
X2225055Y930754D01*
X2226004Y929351D01*
X2227020Y927995D01*
X2228098Y926689D01*
X2229237Y925435D01*
X2230435Y924238D01*
X2231689Y923098D01*
X2232996Y922020D01*
X2234351Y921003D01*
X2235754Y920055D01*
X2237201Y919173D01*
X2238689Y918360D01*
X2240213Y917620D01*
X2241769Y916954D01*
X2243357Y916361D01*
X2244970Y915846D01*
X2246607Y915407D01*
X2248262Y915046D01*
X2249934Y914765D01*
X2251616Y914564D01*
X2253306Y914443D01*
G37*
G36*
X2155000Y914403D02*
G01*
X2156693Y914443D01*
X2158383Y914564D01*
X2160065Y914765D01*
X2161737Y915046D01*
X2163392Y915407D01*
X2165029Y915846D01*
X2166642Y916361D01*
X2168230Y916954D01*
X2169786Y917620D01*
X2171310Y918360D01*
X2172798Y919173D01*
X2174245Y920055D01*
X2175648Y921003D01*
X2177003Y922020D01*
X2178310Y923098D01*
X2179564Y924238D01*
X2180762Y925435D01*
X2181902Y926689D01*
X2182979Y927995D01*
X2183995Y929351D01*
X2184944Y930754D01*
X2185826Y932202D01*
X2186638Y933688D01*
X2187379Y935212D01*
X2188046Y936770D01*
X2188638Y938357D01*
X2189153Y939971D01*
X2189593Y941608D01*
X2189952Y943263D01*
X2190234Y944933D01*
X2190434Y946615D01*
X2190555Y948305D01*
X2190595Y950000D01*
X2190555Y951694D01*
X2190434Y953384D01*
X2190234Y955066D01*
X2189952Y956736D01*
X2189593Y958391D01*
X2189153Y960028D01*
X2188638Y961642D01*
X2188046Y963229D01*
X2187379Y964787D01*
X2186638Y966311D01*
X2185826Y967797D01*
X2184944Y969245D01*
X2183995Y970648D01*
X2182979Y972004D01*
X2181902Y973310D01*
X2180762Y974564D01*
X2179564Y975761D01*
X2178310Y976902D01*
X2177003Y977979D01*
X2175648Y978996D01*
X2174245Y979944D01*
X2172798Y980826D01*
X2171310Y981639D01*
X2169786Y982379D01*
X2168230Y983045D01*
X2166642Y983638D01*
X2165029Y984153D01*
X2163392Y984592D01*
X2161737Y984953D01*
X2160065Y985234D01*
X2158383Y985435D01*
X2156693Y985556D01*
X2155000Y985596D01*
X2153306Y985556D01*
X2151616Y985435D01*
X2149934Y985234D01*
X2148262Y984953D01*
X2146607Y984592D01*
X2144970Y984153D01*
X2143357Y983638D01*
X2141769Y983045D01*
X2140213Y982379D01*
X2138689Y981639D01*
X2137201Y980826D01*
X2135754Y979944D01*
X2134351Y978996D01*
X2132996Y977979D01*
X2131689Y976902D01*
X2130435Y975761D01*
X2129237Y974564D01*
X2128098Y973310D01*
X2127020Y972004D01*
X2126004Y970648D01*
X2125055Y969245D01*
X2124173Y967797D01*
X2123361Y966311D01*
X2122620Y964787D01*
X2121953Y963229D01*
X2121361Y961642D01*
X2120846Y960028D01*
X2120406Y958391D01*
X2120047Y956736D01*
X2119765Y955066D01*
X2119565Y953384D01*
X2119444Y951694D01*
X2119404Y950000D01*
X2119444Y948305D01*
X2119565Y946615D01*
X2119765Y944933D01*
X2120047Y943263D01*
X2120406Y941608D01*
X2120846Y939971D01*
X2121361Y938357D01*
X2121953Y936770D01*
X2122620Y935212D01*
X2123361Y933688D01*
X2124173Y932202D01*
X2125055Y930754D01*
X2126004Y929351D01*
X2127020Y927995D01*
X2128098Y926689D01*
X2129237Y925435D01*
X2130435Y924238D01*
X2131689Y923098D01*
X2132996Y922020D01*
X2134351Y921003D01*
X2135754Y920055D01*
X2137201Y919173D01*
X2138689Y918360D01*
X2140213Y917620D01*
X2141769Y916954D01*
X2143357Y916361D01*
X2144970Y915846D01*
X2146607Y915407D01*
X2148262Y915046D01*
X2149934Y914765D01*
X2151616Y914564D01*
X2153306Y914443D01*
G37*
G36*
X2055000Y914403D02*
G01*
X2056693Y914443D01*
X2058383Y914564D01*
X2060065Y914765D01*
X2061737Y915046D01*
X2063392Y915407D01*
X2065029Y915846D01*
X2066642Y916361D01*
X2068230Y916954D01*
X2069786Y917620D01*
X2071310Y918360D01*
X2072798Y919173D01*
X2074245Y920055D01*
X2075648Y921003D01*
X2077003Y922020D01*
X2078310Y923098D01*
X2079564Y924238D01*
X2080762Y925435D01*
X2081902Y926689D01*
X2082979Y927995D01*
X2083995Y929351D01*
X2084944Y930754D01*
X2085826Y932202D01*
X2086638Y933688D01*
X2087379Y935212D01*
X2088046Y936770D01*
X2088638Y938357D01*
X2089153Y939971D01*
X2089593Y941608D01*
X2089952Y943263D01*
X2090234Y944933D01*
X2090434Y946615D01*
X2090555Y948305D01*
X2090595Y950000D01*
X2090555Y951694D01*
X2090434Y953384D01*
X2090234Y955066D01*
X2089952Y956736D01*
X2089593Y958391D01*
X2089153Y960028D01*
X2088638Y961642D01*
X2088046Y963229D01*
X2087379Y964787D01*
X2086638Y966311D01*
X2085826Y967797D01*
X2084944Y969245D01*
X2083995Y970648D01*
X2082979Y972004D01*
X2081902Y973310D01*
X2080762Y974564D01*
X2079564Y975761D01*
X2078310Y976902D01*
X2077003Y977979D01*
X2075648Y978996D01*
X2074245Y979944D01*
X2072798Y980826D01*
X2071310Y981639D01*
X2069786Y982379D01*
X2068230Y983045D01*
X2066642Y983638D01*
X2065029Y984153D01*
X2063392Y984592D01*
X2061737Y984953D01*
X2060065Y985234D01*
X2058383Y985435D01*
X2056693Y985556D01*
X2055000Y985596D01*
X2053306Y985556D01*
X2051616Y985435D01*
X2049934Y985234D01*
X2048262Y984953D01*
X2046607Y984592D01*
X2044970Y984153D01*
X2043357Y983638D01*
X2041769Y983045D01*
X2040213Y982379D01*
X2038689Y981639D01*
X2037201Y980826D01*
X2035754Y979944D01*
X2034351Y978996D01*
X2032996Y977979D01*
X2031689Y976902D01*
X2030435Y975761D01*
X2029237Y974564D01*
X2028098Y973310D01*
X2027020Y972004D01*
X2026004Y970648D01*
X2025055Y969245D01*
X2024173Y967797D01*
X2023361Y966311D01*
X2022620Y964787D01*
X2021953Y963229D01*
X2021361Y961642D01*
X2020846Y960028D01*
X2020406Y958391D01*
X2020047Y956736D01*
X2019765Y955066D01*
X2019565Y953384D01*
X2019444Y951694D01*
X2019404Y950000D01*
X2019444Y948305D01*
X2019565Y946615D01*
X2019765Y944933D01*
X2020047Y943263D01*
X2020406Y941608D01*
X2020846Y939971D01*
X2021361Y938357D01*
X2021953Y936770D01*
X2022620Y935212D01*
X2023361Y933688D01*
X2024173Y932202D01*
X2025055Y930754D01*
X2026004Y929351D01*
X2027020Y927995D01*
X2028098Y926689D01*
X2029237Y925435D01*
X2030435Y924238D01*
X2031689Y923098D01*
X2032996Y922020D01*
X2034351Y921003D01*
X2035754Y920055D01*
X2037201Y919173D01*
X2038689Y918360D01*
X2040213Y917620D01*
X2041769Y916954D01*
X2043357Y916361D01*
X2044970Y915846D01*
X2046607Y915407D01*
X2048262Y915046D01*
X2049934Y914765D01*
X2051616Y914564D01*
X2053306Y914443D01*
G37*
G36*
X1955000Y914403D02*
G01*
X1956693Y914443D01*
X1958383Y914564D01*
X1960065Y914765D01*
X1961737Y915046D01*
X1963392Y915407D01*
X1965029Y915846D01*
X1966642Y916361D01*
X1968230Y916954D01*
X1969786Y917620D01*
X1971310Y918360D01*
X1972798Y919173D01*
X1974245Y920055D01*
X1975648Y921003D01*
X1977003Y922020D01*
X1978310Y923098D01*
X1979564Y924238D01*
X1980762Y925435D01*
X1981902Y926689D01*
X1982979Y927995D01*
X1983995Y929351D01*
X1984944Y930754D01*
X1985826Y932202D01*
X1986638Y933688D01*
X1987379Y935212D01*
X1988046Y936770D01*
X1988638Y938357D01*
X1989153Y939971D01*
X1989593Y941608D01*
X1989952Y943263D01*
X1990234Y944933D01*
X1990434Y946615D01*
X1990555Y948305D01*
X1990595Y950000D01*
X1990555Y951694D01*
X1990434Y953384D01*
X1990234Y955066D01*
X1989952Y956736D01*
X1989593Y958391D01*
X1989153Y960028D01*
X1988638Y961642D01*
X1988046Y963229D01*
X1987379Y964787D01*
X1986638Y966311D01*
X1985826Y967797D01*
X1984944Y969245D01*
X1983995Y970648D01*
X1982979Y972004D01*
X1981902Y973310D01*
X1980762Y974564D01*
X1979564Y975761D01*
X1978310Y976902D01*
X1977003Y977979D01*
X1975648Y978996D01*
X1974245Y979944D01*
X1972798Y980826D01*
X1971310Y981639D01*
X1969786Y982379D01*
X1968230Y983045D01*
X1966642Y983638D01*
X1965029Y984153D01*
X1963392Y984592D01*
X1961737Y984953D01*
X1960065Y985234D01*
X1958383Y985435D01*
X1956693Y985556D01*
X1955000Y985596D01*
X1953306Y985556D01*
X1951616Y985435D01*
X1949934Y985234D01*
X1948262Y984953D01*
X1946607Y984592D01*
X1944970Y984153D01*
X1943357Y983638D01*
X1941769Y983045D01*
X1940213Y982379D01*
X1938689Y981639D01*
X1937201Y980826D01*
X1935754Y979944D01*
X1934351Y978996D01*
X1932996Y977979D01*
X1931689Y976902D01*
X1930435Y975761D01*
X1929237Y974564D01*
X1928098Y973310D01*
X1927020Y972004D01*
X1926004Y970648D01*
X1925055Y969245D01*
X1924173Y967797D01*
X1923361Y966311D01*
X1922620Y964787D01*
X1921953Y963229D01*
X1921361Y961642D01*
X1920846Y960028D01*
X1920406Y958391D01*
X1920047Y956736D01*
X1919765Y955066D01*
X1919565Y953384D01*
X1919444Y951694D01*
X1919404Y950000D01*
X1919444Y948305D01*
X1919565Y946615D01*
X1919765Y944933D01*
X1920047Y943263D01*
X1920406Y941608D01*
X1920846Y939971D01*
X1921361Y938357D01*
X1921953Y936770D01*
X1922620Y935212D01*
X1923361Y933688D01*
X1924173Y932202D01*
X1925055Y930754D01*
X1926004Y929351D01*
X1927020Y927995D01*
X1928098Y926689D01*
X1929237Y925435D01*
X1930435Y924238D01*
X1931689Y923098D01*
X1932996Y922020D01*
X1934351Y921003D01*
X1935754Y920055D01*
X1937201Y919173D01*
X1938689Y918360D01*
X1940213Y917620D01*
X1941769Y916954D01*
X1943357Y916361D01*
X1944970Y915846D01*
X1946607Y915407D01*
X1948262Y915046D01*
X1949934Y914765D01*
X1951616Y914564D01*
X1953306Y914443D01*
G37*
G36*
X1855000Y914403D02*
G01*
X1856693Y914443D01*
X1858383Y914564D01*
X1860065Y914765D01*
X1861737Y915046D01*
X1863392Y915407D01*
X1865029Y915846D01*
X1866642Y916361D01*
X1868230Y916954D01*
X1869786Y917620D01*
X1871310Y918360D01*
X1872798Y919173D01*
X1874245Y920055D01*
X1875648Y921003D01*
X1877003Y922020D01*
X1878310Y923098D01*
X1879564Y924238D01*
X1880762Y925435D01*
X1881902Y926689D01*
X1882979Y927995D01*
X1883995Y929351D01*
X1884944Y930754D01*
X1885826Y932202D01*
X1886638Y933688D01*
X1887379Y935212D01*
X1888046Y936770D01*
X1888638Y938357D01*
X1889153Y939971D01*
X1889593Y941608D01*
X1889952Y943263D01*
X1890234Y944933D01*
X1890434Y946615D01*
X1890555Y948305D01*
X1890595Y950000D01*
X1890555Y951694D01*
X1890434Y953384D01*
X1890234Y955066D01*
X1889952Y956736D01*
X1889593Y958391D01*
X1889153Y960028D01*
X1888638Y961642D01*
X1888046Y963229D01*
X1887379Y964787D01*
X1886638Y966311D01*
X1885826Y967797D01*
X1884944Y969245D01*
X1883995Y970648D01*
X1882979Y972004D01*
X1881902Y973310D01*
X1880762Y974564D01*
X1879564Y975761D01*
X1878310Y976902D01*
X1877003Y977979D01*
X1875648Y978996D01*
X1874245Y979944D01*
X1872798Y980826D01*
X1871310Y981639D01*
X1869786Y982379D01*
X1868230Y983045D01*
X1866642Y983638D01*
X1865029Y984153D01*
X1863392Y984592D01*
X1861737Y984953D01*
X1860065Y985234D01*
X1858383Y985435D01*
X1856693Y985556D01*
X1855000Y985596D01*
X1853306Y985556D01*
X1851616Y985435D01*
X1849934Y985234D01*
X1848262Y984953D01*
X1846607Y984592D01*
X1844970Y984153D01*
X1843357Y983638D01*
X1841769Y983045D01*
X1840213Y982379D01*
X1838689Y981639D01*
X1837201Y980826D01*
X1835754Y979944D01*
X1834351Y978996D01*
X1832996Y977979D01*
X1831689Y976902D01*
X1830435Y975761D01*
X1829237Y974564D01*
X1828098Y973310D01*
X1827020Y972004D01*
X1826004Y970648D01*
X1825055Y969245D01*
X1824173Y967797D01*
X1823361Y966311D01*
X1822620Y964787D01*
X1821953Y963229D01*
X1821361Y961642D01*
X1820846Y960028D01*
X1820406Y958391D01*
X1820047Y956736D01*
X1819765Y955066D01*
X1819565Y953384D01*
X1819444Y951694D01*
X1819404Y950000D01*
X1819444Y948305D01*
X1819565Y946615D01*
X1819765Y944933D01*
X1820047Y943263D01*
X1820406Y941608D01*
X1820846Y939971D01*
X1821361Y938357D01*
X1821953Y936770D01*
X1822620Y935212D01*
X1823361Y933688D01*
X1824173Y932202D01*
X1825055Y930754D01*
X1826004Y929351D01*
X1827020Y927995D01*
X1828098Y926689D01*
X1829237Y925435D01*
X1830435Y924238D01*
X1831689Y923098D01*
X1832996Y922020D01*
X1834351Y921003D01*
X1835754Y920055D01*
X1837201Y919173D01*
X1838689Y918360D01*
X1840213Y917620D01*
X1841769Y916954D01*
X1843357Y916361D01*
X1844970Y915846D01*
X1846607Y915407D01*
X1848262Y915046D01*
X1849934Y914765D01*
X1851616Y914564D01*
X1853306Y914443D01*
G37*
G36*
X1755000Y914403D02*
G01*
X1756693Y914443D01*
X1758383Y914564D01*
X1760065Y914765D01*
X1761737Y915046D01*
X1763392Y915407D01*
X1765029Y915846D01*
X1766642Y916361D01*
X1768230Y916954D01*
X1769786Y917620D01*
X1771310Y918360D01*
X1772798Y919173D01*
X1774245Y920055D01*
X1775648Y921003D01*
X1777003Y922020D01*
X1778310Y923098D01*
X1779564Y924238D01*
X1780762Y925435D01*
X1781902Y926689D01*
X1782979Y927995D01*
X1783995Y929351D01*
X1784944Y930754D01*
X1785826Y932202D01*
X1786638Y933688D01*
X1787379Y935212D01*
X1788046Y936770D01*
X1788638Y938357D01*
X1789153Y939971D01*
X1789593Y941608D01*
X1789952Y943263D01*
X1790234Y944933D01*
X1790434Y946615D01*
X1790555Y948305D01*
X1790595Y950000D01*
X1790555Y951694D01*
X1790434Y953384D01*
X1790234Y955066D01*
X1789952Y956736D01*
X1789593Y958391D01*
X1789153Y960028D01*
X1788638Y961642D01*
X1788046Y963229D01*
X1787379Y964787D01*
X1786638Y966311D01*
X1785826Y967797D01*
X1784944Y969245D01*
X1783995Y970648D01*
X1782979Y972004D01*
X1781902Y973310D01*
X1780762Y974564D01*
X1779564Y975761D01*
X1778310Y976902D01*
X1777003Y977979D01*
X1775648Y978996D01*
X1774245Y979944D01*
X1772798Y980826D01*
X1771310Y981639D01*
X1769786Y982379D01*
X1768230Y983045D01*
X1766642Y983638D01*
X1765029Y984153D01*
X1763392Y984592D01*
X1761737Y984953D01*
X1760065Y985234D01*
X1758383Y985435D01*
X1756693Y985556D01*
X1755000Y985596D01*
X1753306Y985556D01*
X1751616Y985435D01*
X1749934Y985234D01*
X1748262Y984953D01*
X1746607Y984592D01*
X1744970Y984153D01*
X1743357Y983638D01*
X1741769Y983045D01*
X1740213Y982379D01*
X1738689Y981639D01*
X1737201Y980826D01*
X1735754Y979944D01*
X1734351Y978996D01*
X1732996Y977979D01*
X1731689Y976902D01*
X1730435Y975761D01*
X1729237Y974564D01*
X1728098Y973310D01*
X1727020Y972004D01*
X1726004Y970648D01*
X1725055Y969245D01*
X1724173Y967797D01*
X1723361Y966311D01*
X1722620Y964787D01*
X1721953Y963229D01*
X1721361Y961642D01*
X1720846Y960028D01*
X1720406Y958391D01*
X1720047Y956736D01*
X1719765Y955066D01*
X1719565Y953384D01*
X1719444Y951694D01*
X1719404Y950000D01*
X1719444Y948305D01*
X1719565Y946615D01*
X1719765Y944933D01*
X1720047Y943263D01*
X1720406Y941608D01*
X1720846Y939971D01*
X1721361Y938357D01*
X1721953Y936770D01*
X1722620Y935212D01*
X1723361Y933688D01*
X1724173Y932202D01*
X1725055Y930754D01*
X1726004Y929351D01*
X1727020Y927995D01*
X1728098Y926689D01*
X1729237Y925435D01*
X1730435Y924238D01*
X1731689Y923098D01*
X1732996Y922020D01*
X1734351Y921003D01*
X1735754Y920055D01*
X1737201Y919173D01*
X1738689Y918360D01*
X1740213Y917620D01*
X1741769Y916954D01*
X1743357Y916361D01*
X1744970Y915846D01*
X1746607Y915407D01*
X1748262Y915046D01*
X1749934Y914765D01*
X1751616Y914564D01*
X1753306Y914443D01*
G37*
G36*
X1655000Y914403D02*
G01*
X1656693Y914443D01*
X1658383Y914564D01*
X1660065Y914765D01*
X1661737Y915046D01*
X1663392Y915407D01*
X1665029Y915846D01*
X1666642Y916361D01*
X1668230Y916954D01*
X1669786Y917620D01*
X1671310Y918360D01*
X1672798Y919173D01*
X1674245Y920055D01*
X1675648Y921003D01*
X1677003Y922020D01*
X1678310Y923098D01*
X1679564Y924238D01*
X1680762Y925435D01*
X1681902Y926689D01*
X1682979Y927995D01*
X1683995Y929351D01*
X1684944Y930754D01*
X1685826Y932202D01*
X1686638Y933688D01*
X1687379Y935212D01*
X1688046Y936770D01*
X1688638Y938357D01*
X1689153Y939971D01*
X1689593Y941608D01*
X1689952Y943263D01*
X1690234Y944933D01*
X1690434Y946615D01*
X1690555Y948305D01*
X1690595Y950000D01*
X1690555Y951694D01*
X1690434Y953384D01*
X1690234Y955066D01*
X1689952Y956736D01*
X1689593Y958391D01*
X1689153Y960028D01*
X1688638Y961642D01*
X1688046Y963229D01*
X1687379Y964787D01*
X1686638Y966311D01*
X1685826Y967797D01*
X1684944Y969245D01*
X1683995Y970648D01*
X1682979Y972004D01*
X1681902Y973310D01*
X1680762Y974564D01*
X1679564Y975761D01*
X1678310Y976902D01*
X1677003Y977979D01*
X1675648Y978996D01*
X1674245Y979944D01*
X1672798Y980826D01*
X1671310Y981639D01*
X1669786Y982379D01*
X1668230Y983045D01*
X1666642Y983638D01*
X1665029Y984153D01*
X1663392Y984592D01*
X1661737Y984953D01*
X1660065Y985234D01*
X1658383Y985435D01*
X1656693Y985556D01*
X1655000Y985596D01*
X1653306Y985556D01*
X1651616Y985435D01*
X1649934Y985234D01*
X1648262Y984953D01*
X1646607Y984592D01*
X1644970Y984153D01*
X1643357Y983638D01*
X1641769Y983045D01*
X1640213Y982379D01*
X1638689Y981639D01*
X1637201Y980826D01*
X1635754Y979944D01*
X1634351Y978996D01*
X1632996Y977979D01*
X1631689Y976902D01*
X1630435Y975761D01*
X1629237Y974564D01*
X1628098Y973310D01*
X1627020Y972004D01*
X1626004Y970648D01*
X1625055Y969245D01*
X1624173Y967797D01*
X1623361Y966311D01*
X1622620Y964787D01*
X1621953Y963229D01*
X1621361Y961642D01*
X1620846Y960028D01*
X1620406Y958391D01*
X1620047Y956736D01*
X1619765Y955066D01*
X1619565Y953384D01*
X1619444Y951694D01*
X1619404Y950000D01*
X1619444Y948305D01*
X1619565Y946615D01*
X1619765Y944933D01*
X1620047Y943263D01*
X1620406Y941608D01*
X1620846Y939971D01*
X1621361Y938357D01*
X1621953Y936770D01*
X1622620Y935212D01*
X1623361Y933688D01*
X1624173Y932202D01*
X1625055Y930754D01*
X1626004Y929351D01*
X1627020Y927995D01*
X1628098Y926689D01*
X1629237Y925435D01*
X1630435Y924238D01*
X1631689Y923098D01*
X1632996Y922020D01*
X1634351Y921003D01*
X1635754Y920055D01*
X1637201Y919173D01*
X1638689Y918360D01*
X1640213Y917620D01*
X1641769Y916954D01*
X1643357Y916361D01*
X1644970Y915846D01*
X1646607Y915407D01*
X1648262Y915046D01*
X1649934Y914765D01*
X1651616Y914564D01*
X1653306Y914443D01*
G37*
G36*
X1555000Y914403D02*
G01*
X1556693Y914443D01*
X1558383Y914564D01*
X1560065Y914765D01*
X1561737Y915046D01*
X1563392Y915407D01*
X1565029Y915846D01*
X1566642Y916361D01*
X1568230Y916954D01*
X1569786Y917620D01*
X1571310Y918360D01*
X1572798Y919173D01*
X1574245Y920055D01*
X1575648Y921003D01*
X1577003Y922020D01*
X1578310Y923098D01*
X1579564Y924238D01*
X1580762Y925435D01*
X1581902Y926689D01*
X1582979Y927995D01*
X1583995Y929351D01*
X1584944Y930754D01*
X1585826Y932202D01*
X1586638Y933688D01*
X1587379Y935212D01*
X1588046Y936770D01*
X1588638Y938357D01*
X1589153Y939971D01*
X1589593Y941608D01*
X1589952Y943263D01*
X1590234Y944933D01*
X1590434Y946615D01*
X1590555Y948305D01*
X1590595Y950000D01*
X1590555Y951694D01*
X1590434Y953384D01*
X1590234Y955066D01*
X1589952Y956736D01*
X1589593Y958391D01*
X1589153Y960028D01*
X1588638Y961642D01*
X1588046Y963229D01*
X1587379Y964787D01*
X1586638Y966311D01*
X1585826Y967797D01*
X1584944Y969245D01*
X1583995Y970648D01*
X1582979Y972004D01*
X1581902Y973310D01*
X1580762Y974564D01*
X1579564Y975761D01*
X1578310Y976902D01*
X1577003Y977979D01*
X1575648Y978996D01*
X1574245Y979944D01*
X1572798Y980826D01*
X1571310Y981639D01*
X1569786Y982379D01*
X1568230Y983045D01*
X1566642Y983638D01*
X1565029Y984153D01*
X1563392Y984592D01*
X1561737Y984953D01*
X1560065Y985234D01*
X1558383Y985435D01*
X1556693Y985556D01*
X1555000Y985596D01*
X1553306Y985556D01*
X1551616Y985435D01*
X1549934Y985234D01*
X1548262Y984953D01*
X1546607Y984592D01*
X1544970Y984153D01*
X1543357Y983638D01*
X1541769Y983045D01*
X1540213Y982379D01*
X1538689Y981639D01*
X1537201Y980826D01*
X1535754Y979944D01*
X1534351Y978996D01*
X1532996Y977979D01*
X1531689Y976902D01*
X1530435Y975761D01*
X1529237Y974564D01*
X1528098Y973310D01*
X1527020Y972004D01*
X1526004Y970648D01*
X1525055Y969245D01*
X1524173Y967797D01*
X1523361Y966311D01*
X1522620Y964787D01*
X1521953Y963229D01*
X1521361Y961642D01*
X1520846Y960028D01*
X1520406Y958391D01*
X1520047Y956736D01*
X1519765Y955066D01*
X1519565Y953384D01*
X1519444Y951694D01*
X1519404Y950000D01*
X1519444Y948305D01*
X1519565Y946615D01*
X1519765Y944933D01*
X1520047Y943263D01*
X1520406Y941608D01*
X1520846Y939971D01*
X1521361Y938357D01*
X1521953Y936770D01*
X1522620Y935212D01*
X1523361Y933688D01*
X1524173Y932202D01*
X1525055Y930754D01*
X1526004Y929351D01*
X1527020Y927995D01*
X1528098Y926689D01*
X1529237Y925435D01*
X1530435Y924238D01*
X1531689Y923098D01*
X1532996Y922020D01*
X1534351Y921003D01*
X1535754Y920055D01*
X1537201Y919173D01*
X1538689Y918360D01*
X1540213Y917620D01*
X1541769Y916954D01*
X1543357Y916361D01*
X1544970Y915846D01*
X1546607Y915407D01*
X1548262Y915046D01*
X1549934Y914765D01*
X1551616Y914564D01*
X1553306Y914443D01*
G37*
G36*
X1455000Y914403D02*
G01*
X1456693Y914443D01*
X1458383Y914564D01*
X1460065Y914765D01*
X1461737Y915046D01*
X1463392Y915407D01*
X1465029Y915846D01*
X1466642Y916361D01*
X1468230Y916954D01*
X1469786Y917620D01*
X1471310Y918360D01*
X1472798Y919173D01*
X1474245Y920055D01*
X1475648Y921003D01*
X1477003Y922020D01*
X1478310Y923098D01*
X1479564Y924238D01*
X1480762Y925435D01*
X1481902Y926689D01*
X1482979Y927995D01*
X1483995Y929351D01*
X1484944Y930754D01*
X1485826Y932202D01*
X1486638Y933688D01*
X1487379Y935212D01*
X1488046Y936770D01*
X1488638Y938357D01*
X1489153Y939971D01*
X1489593Y941608D01*
X1489952Y943263D01*
X1490234Y944933D01*
X1490434Y946615D01*
X1490555Y948305D01*
X1490595Y950000D01*
X1490555Y951694D01*
X1490434Y953384D01*
X1490234Y955066D01*
X1489952Y956736D01*
X1489593Y958391D01*
X1489153Y960028D01*
X1488638Y961642D01*
X1488046Y963229D01*
X1487379Y964787D01*
X1486638Y966311D01*
X1485826Y967797D01*
X1484944Y969245D01*
X1483995Y970648D01*
X1482979Y972004D01*
X1481902Y973310D01*
X1480762Y974564D01*
X1479564Y975761D01*
X1478310Y976902D01*
X1477003Y977979D01*
X1475648Y978996D01*
X1474245Y979944D01*
X1472798Y980826D01*
X1471310Y981639D01*
X1469786Y982379D01*
X1468230Y983045D01*
X1466642Y983638D01*
X1465029Y984153D01*
X1463392Y984592D01*
X1461737Y984953D01*
X1460065Y985234D01*
X1458383Y985435D01*
X1456693Y985556D01*
X1455000Y985596D01*
X1453306Y985556D01*
X1451616Y985435D01*
X1449934Y985234D01*
X1448262Y984953D01*
X1446607Y984592D01*
X1444970Y984153D01*
X1443357Y983638D01*
X1441769Y983045D01*
X1440213Y982379D01*
X1438689Y981639D01*
X1437201Y980826D01*
X1435754Y979944D01*
X1434351Y978996D01*
X1432996Y977979D01*
X1431689Y976902D01*
X1430435Y975761D01*
X1429237Y974564D01*
X1428098Y973310D01*
X1427020Y972004D01*
X1426004Y970648D01*
X1425055Y969245D01*
X1424173Y967797D01*
X1423361Y966311D01*
X1422620Y964787D01*
X1421953Y963229D01*
X1421361Y961642D01*
X1420846Y960028D01*
X1420406Y958391D01*
X1420047Y956736D01*
X1419765Y955066D01*
X1419565Y953384D01*
X1419444Y951694D01*
X1419404Y950000D01*
X1419444Y948305D01*
X1419565Y946615D01*
X1419765Y944933D01*
X1420047Y943263D01*
X1420406Y941608D01*
X1420846Y939971D01*
X1421361Y938357D01*
X1421953Y936770D01*
X1422620Y935212D01*
X1423361Y933688D01*
X1424173Y932202D01*
X1425055Y930754D01*
X1426004Y929351D01*
X1427020Y927995D01*
X1428098Y926689D01*
X1429237Y925435D01*
X1430435Y924238D01*
X1431689Y923098D01*
X1432996Y922020D01*
X1434351Y921003D01*
X1435754Y920055D01*
X1437201Y919173D01*
X1438689Y918360D01*
X1440213Y917620D01*
X1441769Y916954D01*
X1443357Y916361D01*
X1444970Y915846D01*
X1446607Y915407D01*
X1448262Y915046D01*
X1449934Y914765D01*
X1451616Y914564D01*
X1453306Y914443D01*
G37*
G36*
X1355000Y914403D02*
G01*
X1356693Y914443D01*
X1358383Y914564D01*
X1360065Y914765D01*
X1361737Y915046D01*
X1363392Y915407D01*
X1365029Y915846D01*
X1366642Y916361D01*
X1368230Y916954D01*
X1369786Y917620D01*
X1371310Y918360D01*
X1372798Y919173D01*
X1374245Y920055D01*
X1375648Y921003D01*
X1377003Y922020D01*
X1378310Y923098D01*
X1379564Y924238D01*
X1380762Y925435D01*
X1381902Y926689D01*
X1382979Y927995D01*
X1383995Y929351D01*
X1384944Y930754D01*
X1385826Y932202D01*
X1386638Y933688D01*
X1387379Y935212D01*
X1388046Y936770D01*
X1388638Y938357D01*
X1389153Y939971D01*
X1389593Y941608D01*
X1389952Y943263D01*
X1390234Y944933D01*
X1390434Y946615D01*
X1390555Y948305D01*
X1390595Y950000D01*
X1390555Y951694D01*
X1390434Y953384D01*
X1390234Y955066D01*
X1389952Y956736D01*
X1389593Y958391D01*
X1389153Y960028D01*
X1388638Y961642D01*
X1388046Y963229D01*
X1387379Y964787D01*
X1386638Y966311D01*
X1385826Y967797D01*
X1384944Y969245D01*
X1383995Y970648D01*
X1382979Y972004D01*
X1381902Y973310D01*
X1380762Y974564D01*
X1379564Y975761D01*
X1378310Y976902D01*
X1377003Y977979D01*
X1375648Y978996D01*
X1374245Y979944D01*
X1372798Y980826D01*
X1371310Y981639D01*
X1369786Y982379D01*
X1368230Y983045D01*
X1366642Y983638D01*
X1365029Y984153D01*
X1363392Y984592D01*
X1361737Y984953D01*
X1360065Y985234D01*
X1358383Y985435D01*
X1356693Y985556D01*
X1355000Y985596D01*
X1353306Y985556D01*
X1351616Y985435D01*
X1349934Y985234D01*
X1348262Y984953D01*
X1346607Y984592D01*
X1344970Y984153D01*
X1343357Y983638D01*
X1341769Y983045D01*
X1340213Y982379D01*
X1338689Y981639D01*
X1337201Y980826D01*
X1335754Y979944D01*
X1334351Y978996D01*
X1332996Y977979D01*
X1331689Y976902D01*
X1330435Y975761D01*
X1329237Y974564D01*
X1328098Y973310D01*
X1327020Y972004D01*
X1326004Y970648D01*
X1325055Y969245D01*
X1324173Y967797D01*
X1323361Y966311D01*
X1322620Y964787D01*
X1321953Y963229D01*
X1321361Y961642D01*
X1320846Y960028D01*
X1320406Y958391D01*
X1320047Y956736D01*
X1319765Y955066D01*
X1319565Y953384D01*
X1319444Y951694D01*
X1319404Y950000D01*
X1319444Y948305D01*
X1319565Y946615D01*
X1319765Y944933D01*
X1320047Y943263D01*
X1320406Y941608D01*
X1320846Y939971D01*
X1321361Y938357D01*
X1321953Y936770D01*
X1322620Y935212D01*
X1323361Y933688D01*
X1324173Y932202D01*
X1325055Y930754D01*
X1326004Y929351D01*
X1327020Y927995D01*
X1328098Y926689D01*
X1329237Y925435D01*
X1330435Y924238D01*
X1331689Y923098D01*
X1332996Y922020D01*
X1334351Y921003D01*
X1335754Y920055D01*
X1337201Y919173D01*
X1338689Y918360D01*
X1340213Y917620D01*
X1341769Y916954D01*
X1343357Y916361D01*
X1344970Y915846D01*
X1346607Y915407D01*
X1348262Y915046D01*
X1349934Y914765D01*
X1351616Y914564D01*
X1353306Y914443D01*
G37*
G36*
X1255000Y914403D02*
G01*
X1256693Y914443D01*
X1258383Y914564D01*
X1260065Y914765D01*
X1261737Y915046D01*
X1263392Y915407D01*
X1265029Y915846D01*
X1266642Y916361D01*
X1268230Y916954D01*
X1269786Y917620D01*
X1271310Y918360D01*
X1272798Y919173D01*
X1274245Y920055D01*
X1275648Y921003D01*
X1277003Y922020D01*
X1278310Y923098D01*
X1279564Y924238D01*
X1280762Y925435D01*
X1281902Y926689D01*
X1282979Y927995D01*
X1283995Y929351D01*
X1284944Y930754D01*
X1285826Y932202D01*
X1286638Y933688D01*
X1287379Y935212D01*
X1288046Y936770D01*
X1288638Y938357D01*
X1289153Y939971D01*
X1289593Y941608D01*
X1289952Y943263D01*
X1290234Y944933D01*
X1290434Y946615D01*
X1290555Y948305D01*
X1290595Y950000D01*
X1290555Y951694D01*
X1290434Y953384D01*
X1290234Y955066D01*
X1289952Y956736D01*
X1289593Y958391D01*
X1289153Y960028D01*
X1288638Y961642D01*
X1288046Y963229D01*
X1287379Y964787D01*
X1286638Y966311D01*
X1285826Y967797D01*
X1284944Y969245D01*
X1283995Y970648D01*
X1282979Y972004D01*
X1281902Y973310D01*
X1280762Y974564D01*
X1279564Y975761D01*
X1278310Y976902D01*
X1277003Y977979D01*
X1275648Y978996D01*
X1274245Y979944D01*
X1272798Y980826D01*
X1271310Y981639D01*
X1269786Y982379D01*
X1268230Y983045D01*
X1266642Y983638D01*
X1265029Y984153D01*
X1263392Y984592D01*
X1261737Y984953D01*
X1260065Y985234D01*
X1258383Y985435D01*
X1256693Y985556D01*
X1255000Y985596D01*
X1253306Y985556D01*
X1251616Y985435D01*
X1249934Y985234D01*
X1248262Y984953D01*
X1246607Y984592D01*
X1244970Y984153D01*
X1243357Y983638D01*
X1241769Y983045D01*
X1240213Y982379D01*
X1238689Y981639D01*
X1237201Y980826D01*
X1235754Y979944D01*
X1234351Y978996D01*
X1232996Y977979D01*
X1231689Y976902D01*
X1230435Y975761D01*
X1229237Y974564D01*
X1228098Y973310D01*
X1227020Y972004D01*
X1226004Y970648D01*
X1225055Y969245D01*
X1224173Y967797D01*
X1223361Y966311D01*
X1222620Y964787D01*
X1221953Y963229D01*
X1221361Y961642D01*
X1220846Y960028D01*
X1220406Y958391D01*
X1220047Y956736D01*
X1219765Y955066D01*
X1219565Y953384D01*
X1219444Y951694D01*
X1219404Y950000D01*
X1219444Y948305D01*
X1219565Y946615D01*
X1219765Y944933D01*
X1220047Y943263D01*
X1220406Y941608D01*
X1220846Y939971D01*
X1221361Y938357D01*
X1221953Y936770D01*
X1222620Y935212D01*
X1223361Y933688D01*
X1224173Y932202D01*
X1225055Y930754D01*
X1226004Y929351D01*
X1227020Y927995D01*
X1228098Y926689D01*
X1229237Y925435D01*
X1230435Y924238D01*
X1231689Y923098D01*
X1232996Y922020D01*
X1234351Y921003D01*
X1235754Y920055D01*
X1237201Y919173D01*
X1238689Y918360D01*
X1240213Y917620D01*
X1241769Y916954D01*
X1243357Y916361D01*
X1244970Y915846D01*
X1246607Y915407D01*
X1248262Y915046D01*
X1249934Y914765D01*
X1251616Y914564D01*
X1253306Y914443D01*
G37*
G36*
X1155000Y914403D02*
G01*
X1156693Y914443D01*
X1158383Y914564D01*
X1160065Y914765D01*
X1161737Y915046D01*
X1163392Y915407D01*
X1165029Y915846D01*
X1166642Y916361D01*
X1168230Y916954D01*
X1169786Y917620D01*
X1171310Y918360D01*
X1172798Y919173D01*
X1174245Y920055D01*
X1175648Y921003D01*
X1177003Y922020D01*
X1178310Y923098D01*
X1179564Y924238D01*
X1180762Y925435D01*
X1181902Y926689D01*
X1182979Y927995D01*
X1183995Y929351D01*
X1184944Y930754D01*
X1185826Y932202D01*
X1186638Y933688D01*
X1187379Y935212D01*
X1188046Y936770D01*
X1188638Y938357D01*
X1189153Y939971D01*
X1189593Y941608D01*
X1189952Y943263D01*
X1190234Y944933D01*
X1190434Y946615D01*
X1190555Y948305D01*
X1190595Y950000D01*
X1190555Y951694D01*
X1190434Y953384D01*
X1190234Y955066D01*
X1189952Y956736D01*
X1189593Y958391D01*
X1189153Y960028D01*
X1188638Y961642D01*
X1188046Y963229D01*
X1187379Y964787D01*
X1186638Y966311D01*
X1185826Y967797D01*
X1184944Y969245D01*
X1183995Y970648D01*
X1182979Y972004D01*
X1181902Y973310D01*
X1180762Y974564D01*
X1179564Y975761D01*
X1178310Y976902D01*
X1177003Y977979D01*
X1175648Y978996D01*
X1174245Y979944D01*
X1172798Y980826D01*
X1171310Y981639D01*
X1169786Y982379D01*
X1168230Y983045D01*
X1166642Y983638D01*
X1165029Y984153D01*
X1163392Y984592D01*
X1161737Y984953D01*
X1160065Y985234D01*
X1158383Y985435D01*
X1156693Y985556D01*
X1155000Y985596D01*
X1153306Y985556D01*
X1151616Y985435D01*
X1149934Y985234D01*
X1148262Y984953D01*
X1146607Y984592D01*
X1144970Y984153D01*
X1143357Y983638D01*
X1141769Y983045D01*
X1140213Y982379D01*
X1138689Y981639D01*
X1137201Y980826D01*
X1135754Y979944D01*
X1134351Y978996D01*
X1132996Y977979D01*
X1131689Y976902D01*
X1130435Y975761D01*
X1129237Y974564D01*
X1128098Y973310D01*
X1127020Y972004D01*
X1126004Y970648D01*
X1125055Y969245D01*
X1124173Y967797D01*
X1123361Y966311D01*
X1122620Y964787D01*
X1121953Y963229D01*
X1121361Y961642D01*
X1120846Y960028D01*
X1120406Y958391D01*
X1120047Y956736D01*
X1119765Y955066D01*
X1119565Y953384D01*
X1119444Y951694D01*
X1119404Y950000D01*
X1119444Y948305D01*
X1119565Y946615D01*
X1119765Y944933D01*
X1120047Y943263D01*
X1120406Y941608D01*
X1120846Y939971D01*
X1121361Y938357D01*
X1121953Y936770D01*
X1122620Y935212D01*
X1123361Y933688D01*
X1124173Y932202D01*
X1125055Y930754D01*
X1126004Y929351D01*
X1127020Y927995D01*
X1128098Y926689D01*
X1129237Y925435D01*
X1130435Y924238D01*
X1131689Y923098D01*
X1132996Y922020D01*
X1134351Y921003D01*
X1135754Y920055D01*
X1137201Y919173D01*
X1138689Y918360D01*
X1140213Y917620D01*
X1141769Y916954D01*
X1143357Y916361D01*
X1144970Y915846D01*
X1146607Y915407D01*
X1148262Y915046D01*
X1149934Y914765D01*
X1151616Y914564D01*
X1153306Y914443D01*
G37*
G36*
X1070748Y914504D02*
G01*
X1086495Y914504D01*
X1086769Y914513D01*
X1087040Y914540D01*
X1087309Y914587D01*
X1087574Y914652D01*
X1087835Y914735D01*
X1088090Y914834D01*
X1088335Y914951D01*
X1088573Y915086D01*
X1088802Y915235D01*
X1089020Y915401D01*
X1089225Y915581D01*
X1089418Y915774D01*
X1089598Y915979D01*
X1089763Y916197D01*
X1089913Y916426D01*
X1090047Y916664D01*
X1090164Y916909D01*
X1090264Y917163D01*
X1090348Y917424D01*
X1090411Y917689D01*
X1090459Y917959D01*
X1090487Y918231D01*
X1090496Y918503D01*
X1090496Y934252D01*
X1070748Y934252D01*
G37*
G36*
X1023504Y914504D02*
G01*
X1039251Y914504D01*
X1039251Y934252D01*
X1019503Y934252D01*
X1019503Y918503D01*
X1019512Y918231D01*
X1019540Y917959D01*
X1019588Y917689D01*
X1019651Y917424D01*
X1019735Y917163D01*
X1019835Y916909D01*
X1019952Y916664D01*
X1020086Y916426D01*
X1020236Y916197D01*
X1020401Y915979D01*
X1020581Y915774D01*
X1020774Y915581D01*
X1020979Y915401D01*
X1021197Y915235D01*
X1021426Y915086D01*
X1021664Y914951D01*
X1021909Y914834D01*
X1022164Y914735D01*
X1022425Y914652D01*
X1022690Y914587D01*
X1022959Y914540D01*
X1023230Y914513D01*
G37*
G36*
X2470748Y918087D02*
G01*
X2471310Y918360D01*
X2472798Y919173D01*
X2474245Y920055D01*
X2475648Y921003D01*
X2477003Y922020D01*
X2478310Y923098D01*
X2479564Y924238D01*
X2480762Y925435D01*
X2481902Y926689D01*
X2482979Y927995D01*
X2483995Y929351D01*
X2484944Y930754D01*
X2485826Y932202D01*
X2486638Y933688D01*
X2486912Y934252D01*
X2470748Y934252D01*
G37*
G36*
X2439251Y918087D02*
G01*
X2439251Y934252D01*
X2423087Y934252D01*
X2423361Y933688D01*
X2424173Y932202D01*
X2425055Y930754D01*
X2426004Y929351D01*
X2427020Y927995D01*
X2428098Y926689D01*
X2429237Y925435D01*
X2430435Y924238D01*
X2431689Y923098D01*
X2432996Y922020D01*
X2434351Y921003D01*
X2435754Y920055D01*
X2437201Y919173D01*
X2438689Y918360D01*
G37*
G36*
X2470748Y965747D02*
G01*
X2486912Y965747D01*
X2486638Y966311D01*
X2485826Y967797D01*
X2484944Y969245D01*
X2483995Y970648D01*
X2482979Y972004D01*
X2481902Y973310D01*
X2480762Y974564D01*
X2479564Y975761D01*
X2478310Y976902D01*
X2477003Y977979D01*
X2475648Y978996D01*
X2474245Y979944D01*
X2472798Y980826D01*
X2471310Y981639D01*
X2470748Y981912D01*
G37*
G36*
X2423087Y965747D02*
G01*
X2439251Y965747D01*
X2439251Y981912D01*
X2438689Y981639D01*
X2437201Y980826D01*
X2435754Y979944D01*
X2434351Y978996D01*
X2432996Y977979D01*
X2431689Y976902D01*
X2430435Y975761D01*
X2429237Y974564D01*
X2428098Y973310D01*
X2427020Y972004D01*
X2426004Y970648D01*
X2425055Y969245D01*
X2424173Y967797D01*
X2423361Y966311D01*
G37*
G36*
X1070748Y965747D02*
G01*
X1090496Y965747D01*
X1090496Y981496D01*
X1090487Y981768D01*
X1090459Y982040D01*
X1090411Y982310D01*
X1090348Y982575D01*
X1090264Y982836D01*
X1090164Y983090D01*
X1090047Y983335D01*
X1089913Y983573D01*
X1089763Y983802D01*
X1089598Y984020D01*
X1089418Y984225D01*
X1089225Y984418D01*
X1089020Y984598D01*
X1088802Y984764D01*
X1088573Y984913D01*
X1088335Y985048D01*
X1088090Y985165D01*
X1087835Y985264D01*
X1087574Y985347D01*
X1087309Y985412D01*
X1087040Y985459D01*
X1086769Y985486D01*
X1086495Y985495D01*
X1070748Y985495D01*
G37*
G36*
X1019503Y965747D02*
G01*
X1039251Y965747D01*
X1039251Y985495D01*
X1023504Y985495D01*
X1023230Y985486D01*
X1022959Y985459D01*
X1022690Y985412D01*
X1022425Y985347D01*
X1022164Y985264D01*
X1021909Y985165D01*
X1021664Y985048D01*
X1021426Y984913D01*
X1021197Y984764D01*
X1020979Y984598D01*
X1020774Y984418D01*
X1020581Y984225D01*
X1020401Y984020D01*
X1020236Y983802D01*
X1020086Y983573D01*
X1019952Y983335D01*
X1019835Y983090D01*
X1019735Y982836D01*
X1019651Y982575D01*
X1019588Y982310D01*
X1019540Y982040D01*
X1019512Y981768D01*
X1019503Y981496D01*
G37*

%LPD*%
D10*
G01*
X1055000Y950000D03*
D11*
G01*
X1155000Y950000D03*
G01*
X1255000Y950000D03*
G01*
X1355000Y950000D03*
G01*
X1455000Y950000D03*
G01*
X1555000Y950000D03*
G01*
X1655000Y950000D03*
G01*
X1755000Y950000D03*
G01*
X1855000Y950000D03*
G01*
X1955000Y950000D03*
G01*
X2055000Y950000D03*
G01*
X2155000Y950000D03*
G01*
X2255000Y950000D03*
G01*
X2355000Y950000D03*
G01*
X2455000Y950000D03*
G01*
X2555000Y950000D03*
G01*
X2655000Y950000D03*
D10*
G01*
X1055000Y250000D03*
D11*
G01*
X1155000Y250000D03*
G01*
X1255000Y250000D03*
G01*
X1355000Y250000D03*
G01*
X1455000Y250000D03*
G01*
X1555000Y250000D03*
G01*
X1655000Y250000D03*
G01*
X1755000Y250000D03*
G01*
X1855000Y250000D03*
G01*
X1955000Y250000D03*
G01*
X2055000Y250000D03*
G01*
X2155000Y250000D03*
G01*
X2255000Y250000D03*
G01*
X2355000Y250000D03*
G01*
X2455000Y250000D03*
G01*
X2555000Y250000D03*
G01*
X2655000Y250000D03*
D12*
G01*
X2152240Y847970D03*
G01*
X2202240Y847970D03*
G01*
X2252240Y847970D03*
D13*
G01*
X1158149Y698420D03*
G01*
X1158149Y501570D03*
D14*
G01*
X1051859Y462199D03*
G01*
X1051859Y737800D03*
D15*
G01*
X1223059Y425709D03*
D12*
G01*
X1273059Y425709D03*
D16*
G01*
X2804430Y310000D03*
G01*
X2854430Y310000D03*
G01*
X2904430Y310000D03*
G01*
X2954430Y310000D03*
G01*
X3004430Y310000D03*
G01*
X3054430Y310000D03*
G01*
X3104430Y310000D03*
G01*
X3204430Y310000D03*
G01*
X3254430Y310000D03*
G01*
X3304430Y310000D03*
G01*
X3354430Y310000D03*
G01*
X3404430Y310000D03*
G01*
X3454430Y310000D03*
G01*
X3454430Y880000D03*
G01*
X3404430Y880000D03*
G01*
X3354430Y880000D03*
G01*
X3304430Y880000D03*
G01*
X3254430Y880000D03*
G01*
X3204430Y880000D03*
G01*
X3154430Y880000D03*
G01*
X3104430Y880000D03*
G01*
X3054430Y880000D03*
G01*
X3004430Y880000D03*
G01*
X2954430Y880000D03*
G01*
X2904430Y880000D03*
G01*
X2854430Y880000D03*
G01*
X2804430Y880000D03*
G01*
X2706999Y910000D03*
G01*
X2350000Y790000D03*
G01*
X2405000Y785000D03*
D17*
G01*
X2165000Y625000D03*
G01*
X1867269Y735000D03*
D16*
G01*
X1931000Y740999D03*
D17*
G01*
X2630000Y635000D03*
G01*
X2600000Y635000D03*
D16*
G01*
X2710000Y280000D03*
G01*
X2520000Y305000D03*
D17*
G01*
X2245000Y390000D03*
G01*
X2410439Y420000D03*
D16*
G01*
X1981000Y471999D03*
D17*
G01*
X2275000Y650000D03*
G01*
X2530000Y610000D03*
G01*
X2595000Y600000D03*
G01*
X2630000Y600000D03*
D16*
G01*
X1580000Y400000D03*
G01*
X1515000Y400000D03*
D18*
G01*
X1935000Y460999D03*
G01*
X3125000Y603000D03*
D16*
G01*
X3152030Y603930D03*
G01*
X3206000Y630999D03*
G01*
X3205000Y685999D03*
G01*
X3180000Y656999D03*
G01*
X3180000Y601999D03*
G01*
X3151999Y630999D03*
G01*
X2725000Y945000D03*
D17*
G01*
X2064399Y609699D03*
G01*
X2054499Y574499D03*
G01*
X2136999Y546999D03*
G01*
X2141999Y648000D03*
G01*
X2203999Y555000D03*
D16*
G01*
X1281999Y578000D03*
G01*
X1286000Y614000D03*
D17*
G01*
X1867299Y557500D03*
G01*
X1910900Y557699D03*
D16*
G01*
X1610000Y557399D03*
D17*
G01*
X1952700Y556799D03*
D16*
G01*
X1470399Y663000D03*
G01*
X1268000Y715000D03*
G01*
X1241000Y501999D03*
G01*
X1083000Y854000D03*
G01*
X1201999Y783000D03*
G01*
X1255000Y843899D03*
G01*
X1193999Y549000D03*
G01*
X1143000Y340999D03*
G01*
X1188999Y340000D03*
G01*
X1055000Y518000D03*
G01*
X1055000Y680999D03*
G01*
X1303729Y506999D03*
G01*
X1376999Y723899D03*
G01*
X1448999Y485999D03*
G01*
X1493999Y488000D03*
G01*
X1213000Y479000D03*
G01*
X1636999Y524000D03*
G01*
X1780000Y741999D03*
G01*
X1795000Y828000D03*
G01*
X1022200Y384600D03*
G01*
X1173999Y420999D03*
G01*
X1180699Y900199D03*
D17*
G01*
X2269499Y565399D03*
M02*
