G04 Layer: BottomSilkscreenLayer*
G04 EasyEDA v6.5.42, 2024-04-08 08:38:15*
G04 e5b43dc0649c40c7af9ec927a61642e9,25835901624346e3b29966769a4e042a,10*
G04 Gerber Generator version 0.2*
G04 Scale: 100 percent, Rotated: No, Reflected: No *
G04 Dimensions in inches *
G04 leading zeros omitted , absolute positions ,3 integer and 6 decimal *
%FSLAX36Y36*%
%MOIN*%

%ADD10C,0.0060*%
%ADD11C,0.0100*%
%ADD12C,0.0075*%

%LPD*%
D10*
X1045272Y377827D02*
G01*
X1045272Y365327D01*
X1054363Y372145D01*
X1054363Y368735D01*
X1055500Y366464D01*
X1056635Y365327D01*
X1060045Y364191D01*
X1062317Y364191D01*
X1065726Y365327D01*
X1068000Y367600D01*
X1069135Y371008D01*
X1069135Y374418D01*
X1068000Y377827D01*
X1066863Y378964D01*
X1064591Y380100D01*
X1045272Y356691D02*
G01*
X1069135Y347600D01*
X1045272Y338508D02*
G01*
X1069135Y347600D01*
X1045272Y328735D02*
G01*
X1045272Y316235D01*
X1054363Y323054D01*
X1054363Y319645D01*
X1055500Y317372D01*
X1056635Y316235D01*
X1060045Y315100D01*
X1062317Y315100D01*
X1065726Y316235D01*
X1068000Y318508D01*
X1069135Y321918D01*
X1069135Y325327D01*
X1068000Y328735D01*
X1066863Y329872D01*
X1064591Y331008D01*
X1149655Y364054D02*
G01*
X1147381Y365190D01*
X1145109Y367463D01*
X1143972Y369735D01*
X1143972Y374281D01*
X1145109Y376554D01*
X1147381Y378827D01*
X1149655Y379963D01*
X1153064Y381100D01*
X1158744Y381100D01*
X1162155Y379963D01*
X1164426Y378827D01*
X1166700Y376554D01*
X1167835Y374281D01*
X1167835Y369735D01*
X1166700Y367463D01*
X1164426Y365190D01*
X1162155Y364054D01*
X1158744Y364054D01*
X1158744Y369735D02*
G01*
X1158744Y364054D01*
X1143972Y356554D02*
G01*
X1167835Y356554D01*
X1143972Y356554D02*
G01*
X1167835Y340644D01*
X1143972Y340644D02*
G01*
X1167835Y340644D01*
X1143972Y333144D02*
G01*
X1167835Y333144D01*
X1143972Y333144D02*
G01*
X1143972Y325190D01*
X1145109Y321781D01*
X1147381Y319508D01*
X1149655Y318373D01*
X1153064Y317235D01*
X1158744Y317235D01*
X1162155Y318373D01*
X1164426Y319508D01*
X1166700Y321781D01*
X1167835Y325190D01*
X1167835Y333144D01*
X1236472Y389072D02*
G01*
X1260335Y389072D01*
X1236472Y374753D02*
G01*
X1237609Y377026D01*
X1239881Y379299D01*
X1242155Y380435D01*
X1245564Y381572D01*
X1251244Y381572D01*
X1254655Y380435D01*
X1256926Y379299D01*
X1259200Y377026D01*
X1260335Y374753D01*
X1260335Y370207D01*
X1259200Y367935D01*
X1256926Y365662D01*
X1254655Y364526D01*
X1251244Y363389D01*
X1245564Y363389D01*
X1242155Y364526D01*
X1239881Y365662D01*
X1237609Y367935D01*
X1236472Y370207D01*
X1236472Y374753D01*
X1242155Y354753D02*
G01*
X1241018Y354753D01*
X1238744Y353616D01*
X1237609Y352480D01*
X1236472Y350207D01*
X1236472Y345662D01*
X1237609Y343389D01*
X1238744Y342253D01*
X1241018Y341116D01*
X1243290Y341116D01*
X1245564Y342253D01*
X1248972Y344526D01*
X1260335Y355889D01*
X1260335Y339980D01*
X1236472Y330207D02*
G01*
X1236472Y317707D01*
X1245564Y324526D01*
X1245564Y321116D01*
X1246700Y318845D01*
X1247835Y317707D01*
X1251244Y316572D01*
X1253518Y316572D01*
X1256926Y317707D01*
X1259200Y319980D01*
X1260335Y323389D01*
X1260335Y326799D01*
X1259200Y330207D01*
X1258064Y331345D01*
X1255790Y332480D01*
X1337115Y389600D02*
G01*
X1360978Y389600D01*
X1337115Y375282D02*
G01*
X1338252Y377555D01*
X1340524Y379827D01*
X1342798Y380963D01*
X1346207Y382100D01*
X1351887Y382100D01*
X1355298Y380963D01*
X1357569Y379827D01*
X1359843Y377555D01*
X1360978Y375282D01*
X1360978Y370736D01*
X1359843Y368463D01*
X1357569Y366190D01*
X1355298Y365055D01*
X1351887Y363917D01*
X1346207Y363917D01*
X1342798Y365055D01*
X1340524Y366190D01*
X1338252Y368463D01*
X1337115Y370736D01*
X1337115Y375282D01*
X1342798Y355282D02*
G01*
X1341661Y355282D01*
X1339387Y354144D01*
X1338252Y353009D01*
X1337115Y350736D01*
X1337115Y346190D01*
X1338252Y343917D01*
X1339387Y342782D01*
X1341661Y341644D01*
X1343933Y341644D01*
X1346207Y342782D01*
X1349615Y345055D01*
X1360978Y356417D01*
X1360978Y340509D01*
X1342798Y331873D02*
G01*
X1341661Y331873D01*
X1339387Y330736D01*
X1338252Y329600D01*
X1337115Y327327D01*
X1337115Y322782D01*
X1338252Y320509D01*
X1339387Y319373D01*
X1341661Y318236D01*
X1343933Y318236D01*
X1346207Y319373D01*
X1349615Y321644D01*
X1360978Y333009D01*
X1360978Y317100D01*
X1443045Y396945D02*
G01*
X1466908Y396945D01*
X1443045Y404899D02*
G01*
X1443045Y388991D01*
X1443045Y381491D02*
G01*
X1466908Y365581D01*
X1443045Y365581D02*
G01*
X1466908Y381491D01*
X1443045Y358081D02*
G01*
X1466908Y358081D01*
X1443045Y358081D02*
G01*
X1443045Y350127D01*
X1444180Y346718D01*
X1446454Y344445D01*
X1448726Y343308D01*
X1452136Y342172D01*
X1457816Y342172D01*
X1461226Y343308D01*
X1463499Y344445D01*
X1465771Y346718D01*
X1466908Y350127D01*
X1466908Y358081D01*
X1443045Y327854D02*
G01*
X1444180Y331264D01*
X1447590Y333535D01*
X1453271Y334672D01*
X1456680Y334672D01*
X1462362Y333535D01*
X1465771Y331264D01*
X1466908Y327854D01*
X1466908Y325581D01*
X1465771Y322172D01*
X1462362Y319899D01*
X1456680Y318764D01*
X1453271Y318764D01*
X1447590Y319899D01*
X1444180Y322172D01*
X1443045Y325581D01*
X1443045Y327854D01*
X1541795Y408703D02*
G01*
X1565658Y408703D01*
X1541795Y408703D02*
G01*
X1541795Y398476D01*
X1542930Y395068D01*
X1544066Y393930D01*
X1546340Y392795D01*
X1548612Y392795D01*
X1550886Y393930D01*
X1552021Y395068D01*
X1553158Y398476D01*
X1553158Y408703D01*
X1553158Y400749D02*
G01*
X1565658Y392795D01*
X1541795Y385295D02*
G01*
X1565658Y369385D01*
X1541795Y369385D02*
G01*
X1565658Y385295D01*
X1541795Y361885D02*
G01*
X1565658Y361885D01*
X1541795Y361885D02*
G01*
X1541795Y353930D01*
X1542930Y350522D01*
X1545204Y348249D01*
X1547476Y347112D01*
X1550886Y345976D01*
X1556566Y345976D01*
X1559976Y347112D01*
X1562249Y348249D01*
X1564521Y350522D01*
X1565658Y353930D01*
X1565658Y361885D01*
X1541795Y331658D02*
G01*
X1542930Y335068D01*
X1546340Y337339D01*
X1552021Y338476D01*
X1555430Y338476D01*
X1561112Y337339D01*
X1564521Y335068D01*
X1565658Y331658D01*
X1565658Y329385D01*
X1564521Y325976D01*
X1561112Y323703D01*
X1555430Y322568D01*
X1552021Y322568D01*
X1546340Y323703D01*
X1542930Y325976D01*
X1541795Y329385D01*
X1541795Y331658D01*
X1642906Y388703D02*
G01*
X1666769Y388703D01*
X1642906Y374385D02*
G01*
X1644041Y376658D01*
X1646315Y378930D01*
X1648587Y380068D01*
X1651997Y381203D01*
X1657677Y381203D01*
X1661087Y380068D01*
X1663360Y378930D01*
X1665632Y376658D01*
X1666769Y374385D01*
X1666769Y369839D01*
X1665632Y367568D01*
X1663360Y365295D01*
X1661087Y364158D01*
X1657677Y363022D01*
X1651997Y363022D01*
X1648587Y364158D01*
X1646315Y365295D01*
X1644041Y367568D01*
X1642906Y369839D01*
X1642906Y374385D01*
X1648587Y354385D02*
G01*
X1647451Y354385D01*
X1645177Y353249D01*
X1644041Y352112D01*
X1642906Y349839D01*
X1642906Y345295D01*
X1644041Y343022D01*
X1645177Y341885D01*
X1647451Y340749D01*
X1649723Y340749D01*
X1651997Y341885D01*
X1655406Y344158D01*
X1666769Y355522D01*
X1666769Y339612D01*
X1647451Y332112D02*
G01*
X1646315Y329839D01*
X1642906Y326430D01*
X1666769Y326430D01*
X1746328Y369807D02*
G01*
X1744056Y370943D01*
X1741782Y373216D01*
X1740646Y375488D01*
X1740646Y380034D01*
X1741782Y382307D01*
X1744056Y384578D01*
X1746328Y385716D01*
X1749737Y386851D01*
X1755419Y386851D01*
X1758828Y385716D01*
X1761100Y384578D01*
X1763374Y382307D01*
X1764510Y380034D01*
X1764510Y375488D01*
X1763374Y373216D01*
X1761100Y370943D01*
X1758828Y369807D01*
X1755419Y369807D01*
X1755419Y375488D02*
G01*
X1755419Y369807D01*
X1740646Y362307D02*
G01*
X1764510Y362307D01*
X1740646Y362307D02*
G01*
X1764510Y346397D01*
X1740646Y346397D02*
G01*
X1764510Y346397D01*
X1740646Y338897D02*
G01*
X1764510Y338897D01*
X1740646Y338897D02*
G01*
X1740646Y330943D01*
X1741782Y327534D01*
X1744056Y325261D01*
X1746328Y324124D01*
X1749737Y322988D01*
X1755419Y322988D01*
X1758828Y324124D01*
X1761100Y325261D01*
X1763374Y327534D01*
X1764510Y330943D01*
X1764510Y338897D01*
X1844628Y384630D02*
G01*
X1868491Y384630D01*
X1844628Y370311D02*
G01*
X1845763Y372584D01*
X1848037Y374857D01*
X1850309Y375994D01*
X1853719Y377130D01*
X1859399Y377130D01*
X1862809Y375994D01*
X1865082Y374857D01*
X1867354Y372584D01*
X1868491Y370311D01*
X1868491Y365765D01*
X1867354Y363494D01*
X1865082Y361221D01*
X1862809Y360084D01*
X1859399Y358948D01*
X1853719Y358948D01*
X1850309Y360084D01*
X1848037Y361221D01*
X1845763Y363494D01*
X1844628Y365765D01*
X1844628Y370311D01*
X1849173Y351448D02*
G01*
X1848037Y349175D01*
X1844628Y345765D01*
X1868491Y345765D01*
X1852582Y323494D02*
G01*
X1855991Y324630D01*
X1858263Y326903D01*
X1859399Y330311D01*
X1859399Y331448D01*
X1858263Y334857D01*
X1855991Y337130D01*
X1852582Y338265D01*
X1851445Y338265D01*
X1848037Y337130D01*
X1845763Y334857D01*
X1844628Y331448D01*
X1844628Y330311D01*
X1845763Y326903D01*
X1848037Y324630D01*
X1852582Y323494D01*
X1858263Y323494D01*
X1863945Y324630D01*
X1867354Y326903D01*
X1868491Y330311D01*
X1868491Y332584D01*
X1867354Y335994D01*
X1865082Y337130D01*
X1944403Y382020D02*
G01*
X1968266Y382020D01*
X1944403Y367701D02*
G01*
X1945538Y369974D01*
X1947812Y372247D01*
X1950084Y373384D01*
X1953494Y374520D01*
X1959174Y374520D01*
X1962584Y373384D01*
X1964857Y372247D01*
X1967129Y369974D01*
X1968266Y367701D01*
X1968266Y363155D01*
X1967129Y360884D01*
X1964857Y358611D01*
X1962584Y357474D01*
X1959174Y356338D01*
X1953494Y356338D01*
X1950084Y357474D01*
X1947812Y358611D01*
X1945538Y360884D01*
X1944403Y363155D01*
X1944403Y367701D01*
X1948948Y348838D02*
G01*
X1947812Y346565D01*
X1944403Y343155D01*
X1968266Y343155D01*
X1944403Y329974D02*
G01*
X1945538Y333384D01*
X1947812Y334520D01*
X1950084Y334520D01*
X1952357Y333384D01*
X1953494Y331111D01*
X1954629Y326565D01*
X1955766Y323155D01*
X1958038Y320884D01*
X1960312Y319747D01*
X1963720Y319747D01*
X1965994Y320884D01*
X1967129Y322020D01*
X1968266Y325428D01*
X1968266Y329974D01*
X1967129Y333384D01*
X1965994Y334520D01*
X1963720Y335655D01*
X1960312Y335655D01*
X1958038Y334520D01*
X1955766Y332247D01*
X1954629Y328838D01*
X1953494Y324292D01*
X1952357Y322020D01*
X1950084Y320884D01*
X1947812Y320884D01*
X1945538Y322020D01*
X1944403Y325428D01*
X1944403Y329974D01*
X2043479Y370073D02*
G01*
X2067343Y370073D01*
X2043479Y355756D02*
G01*
X2044615Y358029D01*
X2046889Y360300D01*
X2049161Y361437D01*
X2052570Y362573D01*
X2058252Y362573D01*
X2061661Y361437D01*
X2063933Y360300D01*
X2066207Y358029D01*
X2067343Y355756D01*
X2067343Y351210D01*
X2066207Y348937D01*
X2063933Y346664D01*
X2061661Y345529D01*
X2058252Y344391D01*
X2052570Y344391D01*
X2049161Y345529D01*
X2046889Y346664D01*
X2044615Y348937D01*
X2043479Y351210D01*
X2043479Y355756D01*
X2043479Y323256D02*
G01*
X2043479Y334618D01*
X2053707Y335756D01*
X2052570Y334618D01*
X2051433Y331210D01*
X2051433Y327800D01*
X2052570Y324391D01*
X2054843Y322118D01*
X2058252Y320983D01*
X2060524Y320983D01*
X2063933Y322118D01*
X2066207Y324391D01*
X2067343Y327800D01*
X2067343Y331210D01*
X2066207Y334618D01*
X2065070Y335756D01*
X2062798Y336891D01*
X2140473Y376599D02*
G01*
X2164336Y376599D01*
X2140473Y362282D02*
G01*
X2141608Y364555D01*
X2143882Y366826D01*
X2146154Y367964D01*
X2149564Y369099D01*
X2155245Y369099D01*
X2158654Y367964D01*
X2160927Y366826D01*
X2163199Y364555D01*
X2164336Y362282D01*
X2164336Y357735D01*
X2163199Y355464D01*
X2160927Y353191D01*
X2158654Y352055D01*
X2155245Y350918D01*
X2149564Y350918D01*
X2146154Y352055D01*
X2143882Y353191D01*
X2141608Y355464D01*
X2140473Y357735D01*
X2140473Y362282D01*
X2145018Y343418D02*
G01*
X2143882Y341145D01*
X2140473Y337735D01*
X2164336Y337735D01*
X2140473Y314326D02*
G01*
X2164336Y325691D01*
X2140473Y330235D02*
G01*
X2140473Y314326D01*
X2241530Y377372D02*
G01*
X2265393Y377372D01*
X2241530Y363054D02*
G01*
X2242665Y365327D01*
X2244939Y367599D01*
X2247211Y368735D01*
X2250621Y369872D01*
X2256301Y369872D01*
X2259711Y368735D01*
X2261984Y367599D01*
X2264256Y365327D01*
X2265393Y363054D01*
X2265393Y358508D01*
X2264256Y356235D01*
X2261984Y353962D01*
X2259711Y352827D01*
X2256301Y351689D01*
X2250621Y351689D01*
X2247211Y352827D01*
X2244939Y353962D01*
X2242665Y356235D01*
X2241530Y358508D01*
X2241530Y363054D01*
X2246075Y344189D02*
G01*
X2244939Y341916D01*
X2241530Y338508D01*
X2265393Y338508D01*
X2244939Y317372D02*
G01*
X2242665Y318508D01*
X2241530Y321916D01*
X2241530Y324189D01*
X2242665Y327599D01*
X2246075Y329872D01*
X2251756Y331008D01*
X2257439Y331008D01*
X2261984Y329872D01*
X2264256Y327599D01*
X2265393Y324189D01*
X2265393Y323054D01*
X2264256Y319645D01*
X2261984Y317372D01*
X2258575Y316235D01*
X2257439Y316235D01*
X2254030Y317372D01*
X2251756Y319645D01*
X2250621Y323054D01*
X2250621Y324189D01*
X2251756Y327599D01*
X2254030Y329872D01*
X2257439Y331008D01*
X2340101Y365605D02*
G01*
X2363963Y365605D01*
X2340101Y351287D02*
G01*
X2341237Y353560D01*
X2343509Y355832D01*
X2345783Y356970D01*
X2349192Y358105D01*
X2354872Y358105D01*
X2358283Y356970D01*
X2360555Y355832D01*
X2362827Y353560D01*
X2363963Y351287D01*
X2363963Y346741D01*
X2362827Y344470D01*
X2360555Y342197D01*
X2358283Y341060D01*
X2354872Y339924D01*
X2349192Y339924D01*
X2345783Y341060D01*
X2343509Y342197D01*
X2341237Y344470D01*
X2340101Y346741D01*
X2340101Y351287D01*
X2340101Y321060D02*
G01*
X2356009Y332424D01*
X2356009Y315378D01*
X2340101Y321060D02*
G01*
X2363963Y321060D01*
X2439476Y365167D02*
G01*
X2463339Y365167D01*
X2439476Y350848D02*
G01*
X2440613Y353121D01*
X2442885Y355394D01*
X2445159Y356530D01*
X2448567Y357667D01*
X2454249Y357667D01*
X2457659Y356530D01*
X2459930Y355394D01*
X2462204Y353121D01*
X2463339Y350848D01*
X2463339Y346302D01*
X2462204Y344030D01*
X2459930Y341757D01*
X2457659Y340621D01*
X2454249Y339484D01*
X2448567Y339484D01*
X2445159Y340621D01*
X2442885Y341757D01*
X2440613Y344030D01*
X2439476Y346302D01*
X2439476Y350848D01*
X2439476Y325167D02*
G01*
X2440613Y328575D01*
X2444022Y330848D01*
X2449704Y331984D01*
X2453113Y331984D01*
X2458795Y330848D01*
X2462204Y328575D01*
X2463339Y325167D01*
X2463339Y322894D01*
X2462204Y319484D01*
X2458795Y317211D01*
X2453113Y316075D01*
X2449704Y316075D01*
X2444022Y317211D01*
X2440613Y319484D01*
X2439476Y322894D01*
X2439476Y325167D01*
X2543086Y367157D02*
G01*
X2566949Y367157D01*
X2543086Y352838D02*
G01*
X2544223Y355111D01*
X2546495Y357384D01*
X2548769Y358521D01*
X2552178Y359657D01*
X2557858Y359657D01*
X2561269Y358521D01*
X2563540Y357384D01*
X2565814Y355111D01*
X2566949Y352838D01*
X2566949Y348292D01*
X2565814Y346021D01*
X2563540Y343748D01*
X2561269Y342611D01*
X2557858Y341475D01*
X2552178Y341475D01*
X2548769Y342611D01*
X2546495Y343748D01*
X2544223Y346021D01*
X2543086Y348292D01*
X2543086Y352838D01*
X2548769Y332838D02*
G01*
X2547632Y332838D01*
X2545358Y331702D01*
X2544223Y330565D01*
X2543086Y328292D01*
X2543086Y323748D01*
X2544223Y321475D01*
X2545358Y320338D01*
X2547632Y319202D01*
X2549904Y319202D01*
X2552178Y320338D01*
X2555586Y322611D01*
X2566949Y333975D01*
X2566949Y318065D01*
X2637201Y376657D02*
G01*
X2661064Y376657D01*
X2637201Y362339D02*
G01*
X2638338Y364612D01*
X2640610Y366884D01*
X2642884Y368020D01*
X2646292Y369157D01*
X2651974Y369157D01*
X2655384Y368020D01*
X2657655Y366884D01*
X2659929Y364612D01*
X2661064Y362339D01*
X2661064Y357793D01*
X2659929Y355520D01*
X2657655Y353247D01*
X2655384Y352112D01*
X2651974Y350974D01*
X2646292Y350974D01*
X2642884Y352112D01*
X2640610Y353247D01*
X2638338Y355520D01*
X2637201Y357793D01*
X2637201Y362339D01*
X2641746Y343474D02*
G01*
X2640610Y341201D01*
X2637201Y337793D01*
X2661064Y337793D01*
X2637201Y316657D02*
G01*
X2637201Y328020D01*
X2647429Y329157D01*
X2646292Y328020D01*
X2645155Y324612D01*
X2645155Y321201D01*
X2646292Y317793D01*
X2648564Y315520D01*
X2651974Y314384D01*
X2654246Y314384D01*
X2657655Y315520D01*
X2659929Y317793D01*
X2661064Y321201D01*
X2661064Y324612D01*
X2659929Y328020D01*
X2658792Y329157D01*
X2656520Y330293D01*
X2644044Y871316D02*
G01*
X2664498Y871316D01*
X2654270Y881543D02*
G01*
X2654270Y861087D01*
X2640635Y839951D02*
G01*
X2640635Y851316D01*
X2650861Y852451D01*
X2649726Y851316D01*
X2648589Y847907D01*
X2648589Y844497D01*
X2649726Y841087D01*
X2651998Y838816D01*
X2655406Y837678D01*
X2657680Y837678D01*
X2661089Y838816D01*
X2663361Y841087D01*
X2664498Y844497D01*
X2664498Y847907D01*
X2663361Y851316D01*
X2662226Y852451D01*
X2659952Y853587D01*
X2640635Y830178D02*
G01*
X2664498Y821087D01*
X2640635Y811997D02*
G01*
X2664498Y821087D01*
X2542816Y877228D02*
G01*
X2566679Y877228D01*
X2542816Y862910D02*
G01*
X2543951Y865183D01*
X2546225Y867454D01*
X2548497Y868591D01*
X2551907Y869728D01*
X2557587Y869728D01*
X2560997Y868591D01*
X2563270Y867454D01*
X2565542Y865183D01*
X2566679Y862910D01*
X2566679Y858364D01*
X2565542Y856091D01*
X2563270Y853818D01*
X2560997Y852683D01*
X2557587Y851545D01*
X2551907Y851545D01*
X2548497Y852683D01*
X2546225Y853818D01*
X2543951Y856091D01*
X2542816Y858364D01*
X2542816Y862910D01*
X2547361Y844045D02*
G01*
X2546225Y841772D01*
X2542816Y838364D01*
X2566679Y838364D01*
X2542816Y828591D02*
G01*
X2542816Y816091D01*
X2551907Y822910D01*
X2551907Y819501D01*
X2553042Y817228D01*
X2554179Y816091D01*
X2557587Y814954D01*
X2559861Y814954D01*
X2563270Y816091D01*
X2565542Y818364D01*
X2566679Y821772D01*
X2566679Y825183D01*
X2565542Y828591D01*
X2564407Y829728D01*
X2562133Y830864D01*
X2445999Y864859D02*
G01*
X2443725Y865996D01*
X2441453Y868269D01*
X2440316Y870540D01*
X2440316Y875086D01*
X2441453Y877359D01*
X2443725Y879632D01*
X2445999Y880769D01*
X2449408Y881905D01*
X2455088Y881905D01*
X2458499Y880769D01*
X2460771Y879632D01*
X2463044Y877359D01*
X2464179Y875086D01*
X2464179Y870540D01*
X2463044Y868269D01*
X2460771Y865996D01*
X2458499Y864859D01*
X2455088Y864859D01*
X2455088Y870540D02*
G01*
X2455088Y864859D01*
X2440316Y857359D02*
G01*
X2464179Y857359D01*
X2440316Y857359D02*
G01*
X2464179Y841449D01*
X2440316Y841449D02*
G01*
X2464179Y841449D01*
X2440316Y833949D02*
G01*
X2464179Y833949D01*
X2440316Y833949D02*
G01*
X2440316Y825996D01*
X2441453Y822586D01*
X2443725Y820313D01*
X2445999Y819178D01*
X2449408Y818040D01*
X2455088Y818040D01*
X2458499Y819178D01*
X2460771Y820313D01*
X2463044Y822586D01*
X2464179Y825996D01*
X2464179Y833949D01*
X2339089Y880862D02*
G01*
X2362951Y880862D01*
X2339089Y866543D02*
G01*
X2340225Y868816D01*
X2342497Y871089D01*
X2344771Y872226D01*
X2348180Y873362D01*
X2353860Y873362D01*
X2357271Y872226D01*
X2359543Y871089D01*
X2361815Y868816D01*
X2362951Y866543D01*
X2362951Y861997D01*
X2361815Y859726D01*
X2359543Y857453D01*
X2357271Y856316D01*
X2353860Y855180D01*
X2348180Y855180D01*
X2344771Y856316D01*
X2342497Y857453D01*
X2340225Y859726D01*
X2339089Y861997D01*
X2339089Y866543D01*
X2343634Y847680D02*
G01*
X2342497Y845407D01*
X2339089Y841997D01*
X2362951Y841997D01*
X2344771Y833362D02*
G01*
X2343634Y833362D01*
X2341360Y832226D01*
X2340225Y831089D01*
X2339089Y828816D01*
X2339089Y824270D01*
X2340225Y821997D01*
X2341360Y820862D01*
X2343634Y819726D01*
X2345906Y819726D01*
X2348180Y820862D01*
X2351589Y823135D01*
X2362951Y834497D01*
X2362951Y818589D01*
X2224004Y865862D02*
G01*
X2224004Y889726D01*
X2238321Y865862D02*
G01*
X2236049Y866999D01*
X2233777Y869272D01*
X2232640Y871545D01*
X2231504Y874953D01*
X2231504Y880635D01*
X2232640Y884045D01*
X2233777Y886316D01*
X2236049Y888589D01*
X2238321Y889726D01*
X2242867Y889726D01*
X2245140Y888589D01*
X2247412Y886316D01*
X2248549Y884045D01*
X2249686Y880635D01*
X2249686Y874953D01*
X2248549Y871545D01*
X2247412Y869272D01*
X2245140Y866999D01*
X2242867Y865862D01*
X2238321Y865862D01*
X2257186Y870408D02*
G01*
X2259458Y869272D01*
X2262867Y865862D01*
X2262867Y889726D01*
X2281731Y865862D02*
G01*
X2270367Y881772D01*
X2287412Y881772D01*
X2281731Y865862D02*
G01*
X2281731Y889726D01*
X2117651Y866999D02*
G01*
X2117651Y890862D01*
X2131970Y866999D02*
G01*
X2129696Y868135D01*
X2127425Y870408D01*
X2126288Y872681D01*
X2125151Y876091D01*
X2125151Y881772D01*
X2126288Y885181D01*
X2127425Y887453D01*
X2129696Y889726D01*
X2131970Y890862D01*
X2136516Y890862D01*
X2138788Y889726D01*
X2141060Y887453D01*
X2142196Y885181D01*
X2143334Y881772D01*
X2143334Y876091D01*
X2142196Y872681D01*
X2141060Y870408D01*
X2138788Y868135D01*
X2136516Y866999D01*
X2131970Y866999D01*
X2151970Y872681D02*
G01*
X2151970Y871545D01*
X2153107Y869272D01*
X2154242Y868135D01*
X2156516Y866999D01*
X2161060Y866999D01*
X2163334Y868135D01*
X2164470Y869272D01*
X2165607Y871545D01*
X2165607Y873818D01*
X2164470Y876091D01*
X2162196Y879499D01*
X2150834Y890862D01*
X2166742Y890862D01*
X2190151Y866999D02*
G01*
X2178788Y890862D01*
X2174242Y866999D02*
G01*
X2190151Y866999D01*
X2043578Y881626D02*
G01*
X2067442Y881626D01*
X2043578Y867307D02*
G01*
X2044714Y869580D01*
X2046988Y871853D01*
X2049260Y872989D01*
X2052669Y874126D01*
X2058351Y874126D01*
X2061760Y872989D01*
X2064032Y871853D01*
X2066306Y869580D01*
X2067442Y867307D01*
X2067442Y862761D01*
X2066306Y860489D01*
X2064032Y858216D01*
X2061760Y857080D01*
X2058351Y855943D01*
X2052669Y855943D01*
X2049260Y857080D01*
X2046988Y858216D01*
X2044714Y860489D01*
X2043578Y862761D01*
X2043578Y867307D01*
X2049260Y847307D02*
G01*
X2048123Y847307D01*
X2045851Y846170D01*
X2044714Y845034D01*
X2043578Y842761D01*
X2043578Y838216D01*
X2044714Y835943D01*
X2045851Y834807D01*
X2048123Y833670D01*
X2050397Y833670D01*
X2052669Y834807D01*
X2056078Y837080D01*
X2067442Y848443D01*
X2067442Y832534D01*
X2046988Y811399D02*
G01*
X2044714Y812534D01*
X2043578Y815943D01*
X2043578Y818216D01*
X2044714Y821626D01*
X2048123Y823899D01*
X2053806Y825034D01*
X2059488Y825034D01*
X2064032Y823899D01*
X2066306Y821626D01*
X2067442Y818216D01*
X2067442Y817080D01*
X2066306Y813670D01*
X2064032Y811399D01*
X2060623Y810261D01*
X2059488Y810261D01*
X2056078Y811399D01*
X2053806Y813670D01*
X2052669Y817080D01*
X2052669Y818216D01*
X2053806Y821626D01*
X2056078Y823899D01*
X2059488Y825034D01*
X1944131Y882460D02*
G01*
X1967995Y882460D01*
X1944131Y868143D02*
G01*
X1945267Y870416D01*
X1947541Y872687D01*
X1949813Y873825D01*
X1953222Y874960D01*
X1958904Y874960D01*
X1962313Y873825D01*
X1964585Y872687D01*
X1966859Y870416D01*
X1967995Y868143D01*
X1967995Y863596D01*
X1966859Y861325D01*
X1964585Y859052D01*
X1962313Y857916D01*
X1958904Y856779D01*
X1953222Y856779D01*
X1949813Y857916D01*
X1947541Y859052D01*
X1945267Y861325D01*
X1944131Y863596D01*
X1944131Y868143D01*
X1949813Y848143D02*
G01*
X1948676Y848143D01*
X1946404Y847006D01*
X1945267Y845869D01*
X1944131Y843596D01*
X1944131Y839052D01*
X1945267Y836779D01*
X1946404Y835643D01*
X1948676Y834506D01*
X1950950Y834506D01*
X1953222Y835643D01*
X1956631Y837916D01*
X1967995Y849279D01*
X1967995Y833369D01*
X1944131Y812233D02*
G01*
X1944131Y823596D01*
X1954359Y824733D01*
X1953222Y823596D01*
X1952085Y820187D01*
X1952085Y816779D01*
X1953222Y813369D01*
X1955495Y811096D01*
X1958904Y809960D01*
X1961176Y809960D01*
X1964585Y811096D01*
X1966859Y813369D01*
X1967995Y816779D01*
X1967995Y820187D01*
X1966859Y823596D01*
X1965722Y824733D01*
X1963450Y825869D01*
X1844357Y885070D02*
G01*
X1868220Y885070D01*
X1844357Y870752D02*
G01*
X1845492Y873025D01*
X1847766Y875297D01*
X1850038Y876435D01*
X1853447Y877570D01*
X1859129Y877570D01*
X1862538Y876435D01*
X1864810Y875297D01*
X1867084Y873025D01*
X1868220Y870752D01*
X1868220Y866206D01*
X1867084Y863935D01*
X1864810Y861662D01*
X1862538Y860525D01*
X1859129Y859389D01*
X1853447Y859389D01*
X1850038Y860525D01*
X1847766Y861662D01*
X1845492Y863935D01*
X1844357Y866206D01*
X1844357Y870752D01*
X1844357Y849616D02*
G01*
X1844357Y837116D01*
X1853447Y843935D01*
X1853447Y840525D01*
X1854584Y838252D01*
X1855720Y837116D01*
X1859129Y835979D01*
X1861401Y835979D01*
X1864810Y837116D01*
X1867084Y839389D01*
X1868220Y842797D01*
X1868220Y846206D01*
X1867084Y849616D01*
X1865947Y850752D01*
X1863675Y851889D01*
X1844357Y826206D02*
G01*
X1844357Y813706D01*
X1853447Y820525D01*
X1853447Y817116D01*
X1854584Y814843D01*
X1855720Y813706D01*
X1859129Y812570D01*
X1861401Y812570D01*
X1864810Y813706D01*
X1867084Y815979D01*
X1868220Y819389D01*
X1868220Y822797D01*
X1867084Y826206D01*
X1865947Y827343D01*
X1863675Y828479D01*
X1739634Y883218D02*
G01*
X1763497Y883218D01*
X1739634Y868901D02*
G01*
X1740771Y871174D01*
X1743043Y873445D01*
X1745316Y874582D01*
X1748725Y875718D01*
X1754407Y875718D01*
X1757816Y874582D01*
X1760088Y873445D01*
X1762362Y871174D01*
X1763497Y868901D01*
X1763497Y864355D01*
X1762362Y862082D01*
X1760088Y859810D01*
X1757816Y858674D01*
X1754407Y857537D01*
X1748725Y857537D01*
X1745316Y858674D01*
X1743043Y859810D01*
X1740771Y862082D01*
X1739634Y864355D01*
X1739634Y868901D01*
X1739634Y847764D02*
G01*
X1739634Y835264D01*
X1748725Y842082D01*
X1748725Y838674D01*
X1749862Y836401D01*
X1750997Y835264D01*
X1754407Y834128D01*
X1756679Y834128D01*
X1760088Y835264D01*
X1762362Y837537D01*
X1763497Y840945D01*
X1763497Y844355D01*
X1762362Y847764D01*
X1761225Y848901D01*
X1758953Y850037D01*
X1745316Y825491D02*
G01*
X1744179Y825491D01*
X1741907Y824355D01*
X1740771Y823218D01*
X1739634Y820945D01*
X1739634Y816401D01*
X1740771Y814128D01*
X1741907Y812991D01*
X1744179Y811855D01*
X1746453Y811855D01*
X1748725Y812991D01*
X1752134Y815264D01*
X1763497Y826628D01*
X1763497Y810718D01*
X1641894Y883960D02*
G01*
X1665757Y883960D01*
X1641894Y869641D02*
G01*
X1643029Y871914D01*
X1645303Y874187D01*
X1647575Y875324D01*
X1650985Y876460D01*
X1656665Y876460D01*
X1660075Y875324D01*
X1662348Y874187D01*
X1664620Y871914D01*
X1665757Y869641D01*
X1665757Y865095D01*
X1664620Y862824D01*
X1662348Y860551D01*
X1660075Y859414D01*
X1656665Y858278D01*
X1650985Y858278D01*
X1647575Y859414D01*
X1645303Y860551D01*
X1643029Y862824D01*
X1641894Y865095D01*
X1641894Y869641D01*
X1641894Y848505D02*
G01*
X1641894Y836005D01*
X1650985Y842824D01*
X1650985Y839414D01*
X1652120Y837141D01*
X1653257Y836005D01*
X1656665Y834868D01*
X1658939Y834868D01*
X1662348Y836005D01*
X1664620Y838278D01*
X1665757Y841687D01*
X1665757Y845095D01*
X1664620Y848505D01*
X1663485Y849641D01*
X1661211Y850778D01*
X1641894Y813733D02*
G01*
X1641894Y825095D01*
X1652120Y826233D01*
X1650985Y825095D01*
X1649848Y821687D01*
X1649848Y818278D01*
X1650985Y814868D01*
X1653257Y812595D01*
X1656665Y811460D01*
X1658939Y811460D01*
X1662348Y812595D01*
X1664620Y814868D01*
X1665757Y818278D01*
X1665757Y821687D01*
X1664620Y825095D01*
X1663485Y826233D01*
X1661211Y827368D01*
X1536710Y884329D02*
G01*
X1560573Y884329D01*
X1536710Y870012D02*
G01*
X1537845Y872285D01*
X1540119Y874556D01*
X1542391Y875693D01*
X1545801Y876829D01*
X1551481Y876829D01*
X1554891Y875693D01*
X1557164Y874556D01*
X1559436Y872285D01*
X1560573Y870012D01*
X1560573Y865466D01*
X1559436Y863193D01*
X1557164Y860920D01*
X1554891Y859785D01*
X1551481Y858647D01*
X1545801Y858647D01*
X1542391Y859785D01*
X1540119Y860920D01*
X1537845Y863193D01*
X1536710Y865466D01*
X1536710Y870012D01*
X1536710Y848874D02*
G01*
X1536710Y836374D01*
X1545801Y843193D01*
X1545801Y839785D01*
X1546936Y837512D01*
X1548073Y836374D01*
X1551481Y835239D01*
X1553755Y835239D01*
X1557164Y836374D01*
X1559436Y838647D01*
X1560573Y842056D01*
X1560573Y845466D01*
X1559436Y848874D01*
X1558301Y850012D01*
X1556027Y851147D01*
X1536710Y816374D02*
G01*
X1552619Y827739D01*
X1552619Y810693D01*
X1536710Y816374D02*
G01*
X1560573Y816374D01*
X1449116Y876185D02*
G01*
X1447299Y878002D01*
X1446390Y880729D01*
X1446390Y884367D01*
X1447299Y887094D01*
X1449116Y888912D01*
X1450936Y888912D01*
X1452754Y888002D01*
X1453662Y887094D01*
X1454571Y885275D01*
X1456390Y879821D01*
X1457299Y878002D01*
X1458208Y877094D01*
X1460027Y876185D01*
X1462754Y876185D01*
X1464571Y878002D01*
X1465480Y880729D01*
X1465480Y884367D01*
X1464571Y887094D01*
X1462754Y888912D01*
X1446390Y870185D02*
G01*
X1465480Y870185D01*
X1446390Y870185D02*
G01*
X1446390Y858366D01*
X1455480Y870185D02*
G01*
X1455480Y862912D01*
X1465480Y870185D02*
G01*
X1465480Y858366D01*
X1446390Y852366D02*
G01*
X1465480Y852366D01*
X1446390Y852366D02*
G01*
X1465480Y839639D01*
X1446390Y839639D02*
G01*
X1465480Y839639D01*
X1449116Y820911D02*
G01*
X1447299Y822730D01*
X1446390Y825457D01*
X1446390Y829094D01*
X1447299Y831820D01*
X1449116Y833638D01*
X1450936Y833638D01*
X1452754Y832730D01*
X1453662Y831820D01*
X1454571Y830003D01*
X1456390Y824547D01*
X1457299Y822730D01*
X1458208Y821820D01*
X1460027Y820911D01*
X1462754Y820911D01*
X1464571Y822730D01*
X1465480Y825457D01*
X1465480Y829094D01*
X1464571Y831820D01*
X1462754Y833638D01*
X1446390Y809457D02*
G01*
X1447299Y811275D01*
X1449116Y813094D01*
X1450936Y814002D01*
X1453662Y814911D01*
X1458208Y814911D01*
X1460936Y814002D01*
X1462754Y813094D01*
X1464571Y811275D01*
X1465480Y809457D01*
X1465480Y805821D01*
X1464571Y804002D01*
X1462754Y802184D01*
X1460936Y801275D01*
X1458208Y800367D01*
X1453662Y800367D01*
X1450936Y801275D01*
X1449116Y802184D01*
X1447299Y804002D01*
X1446390Y805821D01*
X1446390Y809457D01*
X1446390Y794367D02*
G01*
X1465480Y794367D01*
X1446390Y794367D02*
G01*
X1446390Y786185D01*
X1447299Y783456D01*
X1448208Y782548D01*
X1450027Y781639D01*
X1451845Y781639D01*
X1453662Y782548D01*
X1454571Y783456D01*
X1455480Y786185D01*
X1455480Y794367D01*
X1455480Y788002D02*
G01*
X1465480Y781639D01*
X1446390Y761639D02*
G01*
X1465480Y754367D01*
X1446390Y747094D02*
G01*
X1465480Y754367D01*
X1446390Y741093D02*
G01*
X1465480Y741093D01*
X1446390Y741093D02*
G01*
X1465480Y728366D01*
X1446390Y728366D02*
G01*
X1465480Y728366D01*
X1344616Y877314D02*
G01*
X1342799Y879131D01*
X1341890Y881858D01*
X1341890Y885495D01*
X1342799Y888222D01*
X1344616Y890041D01*
X1346436Y890041D01*
X1348253Y889131D01*
X1349162Y888222D01*
X1350072Y886404D01*
X1351890Y880949D01*
X1352799Y879131D01*
X1353707Y878222D01*
X1355527Y877314D01*
X1358253Y877314D01*
X1360072Y879131D01*
X1360981Y881858D01*
X1360981Y885495D01*
X1360072Y888222D01*
X1358253Y890041D01*
X1341890Y871314D02*
G01*
X1360981Y871314D01*
X1341890Y871314D02*
G01*
X1341890Y859495D01*
X1350981Y871314D02*
G01*
X1350981Y864041D01*
X1360981Y871314D02*
G01*
X1360981Y859495D01*
X1341890Y853496D02*
G01*
X1360981Y853496D01*
X1341890Y853496D02*
G01*
X1360981Y840767D01*
X1341890Y840767D02*
G01*
X1360981Y840767D01*
X1344616Y822040D02*
G01*
X1342799Y823859D01*
X1341890Y826586D01*
X1341890Y830223D01*
X1342799Y832950D01*
X1344616Y834767D01*
X1346436Y834767D01*
X1348253Y833859D01*
X1349162Y832950D01*
X1350072Y831131D01*
X1351890Y825677D01*
X1352799Y823859D01*
X1353707Y822950D01*
X1355527Y822040D01*
X1358253Y822040D01*
X1360072Y823859D01*
X1360981Y826586D01*
X1360981Y830223D01*
X1360072Y832950D01*
X1358253Y834767D01*
X1341890Y810585D02*
G01*
X1342799Y812404D01*
X1344616Y814223D01*
X1346436Y815131D01*
X1349162Y816041D01*
X1353707Y816041D01*
X1356436Y815131D01*
X1358253Y814223D01*
X1360072Y812404D01*
X1360981Y810585D01*
X1360981Y806950D01*
X1360072Y805131D01*
X1358253Y803314D01*
X1356436Y802404D01*
X1353707Y801496D01*
X1349162Y801496D01*
X1346436Y802404D01*
X1344616Y803314D01*
X1342799Y805131D01*
X1341890Y806950D01*
X1341890Y810585D01*
X1341890Y795495D02*
G01*
X1360981Y795495D01*
X1341890Y795495D02*
G01*
X1341890Y787314D01*
X1342799Y784585D01*
X1343707Y783676D01*
X1345527Y782768D01*
X1347344Y782768D01*
X1349162Y783676D01*
X1350072Y784585D01*
X1350981Y787314D01*
X1350981Y795495D01*
X1350981Y789131D02*
G01*
X1360981Y782768D01*
X1341890Y762768D02*
G01*
X1360981Y755495D01*
X1341890Y748222D02*
G01*
X1360981Y755495D01*
X1341890Y742222D02*
G01*
X1360981Y742222D01*
X1341890Y742222D02*
G01*
X1341890Y734041D01*
X1342799Y731314D01*
X1343707Y730405D01*
X1345527Y729495D01*
X1348253Y729495D01*
X1350072Y730405D01*
X1350981Y731314D01*
X1351890Y734041D01*
X1351890Y742222D01*
X1238795Y873587D02*
G01*
X1262658Y873587D01*
X1238795Y873587D02*
G01*
X1238795Y858814D01*
X1250158Y873587D02*
G01*
X1250158Y864495D01*
X1262658Y873587D02*
G01*
X1262658Y858814D01*
X1238795Y851314D02*
G01*
X1262658Y851314D01*
X1238795Y851314D02*
G01*
X1262658Y835405D01*
X1238795Y835405D02*
G01*
X1262658Y835405D01*
X1143702Y879268D02*
G01*
X1143702Y866768D01*
X1152793Y873586D01*
X1152793Y870176D01*
X1153928Y867905D01*
X1155065Y866768D01*
X1158473Y865632D01*
X1160747Y865632D01*
X1164156Y866768D01*
X1166428Y869041D01*
X1167565Y872449D01*
X1167565Y875859D01*
X1166428Y879268D01*
X1165293Y880405D01*
X1163019Y881541D01*
X1143702Y858132D02*
G01*
X1167565Y849041D01*
X1143702Y839949D02*
G01*
X1167565Y849041D01*
X1143702Y830176D02*
G01*
X1143702Y817676D01*
X1152793Y824495D01*
X1152793Y821086D01*
X1153928Y818814D01*
X1155065Y817676D01*
X1158473Y816541D01*
X1160747Y816541D01*
X1164156Y817676D01*
X1166428Y819949D01*
X1167565Y823359D01*
X1167565Y826768D01*
X1166428Y830176D01*
X1165293Y831314D01*
X1163019Y832449D01*
X1050684Y863496D02*
G01*
X1048410Y864632D01*
X1046138Y866905D01*
X1045002Y869176D01*
X1045002Y873723D01*
X1046138Y875996D01*
X1048410Y878267D01*
X1050684Y879405D01*
X1054093Y880540D01*
X1059773Y880540D01*
X1063184Y879405D01*
X1065456Y878267D01*
X1067728Y875996D01*
X1068864Y873723D01*
X1068864Y869176D01*
X1067728Y866905D01*
X1065456Y864632D01*
X1063184Y863496D01*
X1059773Y863496D01*
X1059773Y869176D02*
G01*
X1059773Y863496D01*
X1045002Y855996D02*
G01*
X1068864Y855996D01*
X1045002Y855996D02*
G01*
X1068864Y840086D01*
X1045002Y840086D02*
G01*
X1068864Y840086D01*
X1045002Y832586D02*
G01*
X1068864Y832586D01*
X1045002Y832586D02*
G01*
X1045002Y824632D01*
X1046138Y821223D01*
X1048410Y818949D01*
X1050684Y817813D01*
X1054093Y816676D01*
X1059773Y816676D01*
X1063184Y817813D01*
X1065456Y818949D01*
X1067728Y821223D01*
X1068864Y824632D01*
X1068864Y832586D01*
X3364425Y663161D02*
G01*
X3388288Y672251D01*
X3364425Y663161D02*
G01*
X3388288Y654070D01*
X3380334Y668843D02*
G01*
X3380334Y657478D01*
X3364425Y646570D02*
G01*
X3388288Y646570D01*
X3364425Y646570D02*
G01*
X3364425Y638616D01*
X3365560Y635207D01*
X3367834Y632934D01*
X3370106Y631797D01*
X3373515Y630661D01*
X3379197Y630661D01*
X3382606Y631797D01*
X3384879Y632934D01*
X3387151Y635207D01*
X3388288Y638616D01*
X3388288Y646570D01*
X3364425Y623161D02*
G01*
X3388288Y623161D01*
X3364425Y607707D02*
G01*
X3388288Y607707D01*
X3364425Y615661D02*
G01*
X3364425Y599751D01*
X3364425Y592251D02*
G01*
X3375788Y583161D01*
X3388288Y583161D01*
X3364425Y574070D02*
G01*
X3375788Y583161D01*
X3364425Y557478D02*
G01*
X3388288Y566570D01*
X3364425Y557478D02*
G01*
X3388288Y548387D01*
X3380334Y563161D02*
G01*
X3380334Y551797D01*
X3410258Y780585D02*
G01*
X3434120Y780585D01*
X3410258Y780585D02*
G01*
X3410258Y765812D01*
X3421620Y780585D02*
G01*
X3421620Y771494D01*
X3434120Y780585D02*
G01*
X3434120Y765812D01*
X3413666Y742404D02*
G01*
X3411394Y744677D01*
X3410258Y748085D01*
X3410258Y752631D01*
X3411394Y756041D01*
X3413666Y758312D01*
X3415940Y758312D01*
X3418212Y757177D01*
X3419349Y756041D01*
X3420484Y753768D01*
X3422758Y746950D01*
X3423894Y744677D01*
X3425029Y743541D01*
X3427303Y742404D01*
X3430712Y742404D01*
X3432984Y744677D01*
X3434120Y748085D01*
X3434120Y752631D01*
X3432984Y756041D01*
X3430712Y758312D01*
X3410258Y734904D02*
G01*
X3434120Y734904D01*
X3410258Y734904D02*
G01*
X3410258Y724677D01*
X3411394Y721268D01*
X3412529Y720131D01*
X3414803Y718994D01*
X3418212Y718994D01*
X3420484Y720131D01*
X3421620Y721268D01*
X3422758Y724677D01*
X3422758Y734904D01*
X3410258Y709221D02*
G01*
X3410258Y696721D01*
X3419349Y703541D01*
X3419349Y700131D01*
X3420484Y697858D01*
X3421620Y696721D01*
X3425029Y695585D01*
X3427303Y695585D01*
X3430712Y696721D01*
X3432984Y698994D01*
X3434120Y702404D01*
X3434120Y705812D01*
X3432984Y709221D01*
X3431849Y710358D01*
X3429575Y711494D01*
X3415940Y686950D02*
G01*
X3414803Y686950D01*
X3412529Y685812D01*
X3411394Y684677D01*
X3410258Y682404D01*
X3410258Y677858D01*
X3411394Y675585D01*
X3412529Y674450D01*
X3414803Y673312D01*
X3417075Y673312D01*
X3419349Y674450D01*
X3422758Y676721D01*
X3434120Y688085D01*
X3434120Y672177D01*
X3423894Y664677D02*
G01*
X3423894Y644221D01*
X3410258Y636721D02*
G01*
X3434120Y631041D01*
X3410258Y625358D02*
G01*
X3434120Y631041D01*
X3410258Y625358D02*
G01*
X3434120Y619677D01*
X3410258Y613994D02*
G01*
X3434120Y619677D01*
X3410258Y606494D02*
G01*
X3434120Y606494D01*
X3410258Y606494D02*
G01*
X3410258Y596268D01*
X3411394Y592858D01*
X3412529Y591721D01*
X3414803Y590585D01*
X3417075Y590585D01*
X3419349Y591721D01*
X3420484Y592858D01*
X3421620Y596268D01*
X3421620Y606494D01*
X3421620Y598541D02*
G01*
X3434120Y590585D01*
X3410258Y576268D02*
G01*
X3411394Y578541D01*
X3413666Y580812D01*
X3415940Y581950D01*
X3419349Y583085D01*
X3425029Y583085D01*
X3428440Y581950D01*
X3430712Y580812D01*
X3432984Y578541D01*
X3434120Y576268D01*
X3434120Y571721D01*
X3432984Y569450D01*
X3430712Y567177D01*
X3428440Y566041D01*
X3425029Y564904D01*
X3419349Y564904D01*
X3415940Y566041D01*
X3413666Y567177D01*
X3411394Y569450D01*
X3410258Y571721D01*
X3410258Y576268D01*
X3410258Y550585D02*
G01*
X3411394Y552858D01*
X3413666Y555131D01*
X3415940Y556268D01*
X3419349Y557404D01*
X3425029Y557404D01*
X3428440Y556268D01*
X3430712Y555131D01*
X3432984Y552858D01*
X3434120Y550585D01*
X3434120Y546041D01*
X3432984Y543768D01*
X3430712Y541494D01*
X3428440Y540358D01*
X3425029Y539221D01*
X3419349Y539221D01*
X3415940Y540358D01*
X3413666Y541494D01*
X3411394Y543768D01*
X3410258Y546041D01*
X3410258Y550585D01*
X3410258Y531721D02*
G01*
X3434120Y531721D01*
X3410258Y531721D02*
G01*
X3434120Y522631D01*
X3410258Y513541D02*
G01*
X3434120Y522631D01*
X3410258Y513541D02*
G01*
X3434120Y513541D01*
X3423894Y506041D02*
G01*
X3423894Y485585D01*
X3410258Y475812D02*
G01*
X3410258Y463312D01*
X3419349Y470131D01*
X3419349Y466721D01*
X3420484Y464450D01*
X3421620Y463312D01*
X3425029Y462177D01*
X3427303Y462177D01*
X3430712Y463312D01*
X3432984Y465585D01*
X3434120Y468994D01*
X3434120Y472404D01*
X3432984Y475812D01*
X3431849Y476950D01*
X3429575Y478085D01*
X3415940Y453541D02*
G01*
X3414803Y453541D01*
X3412529Y452404D01*
X3411394Y451268D01*
X3410258Y448994D01*
X3410258Y444450D01*
X3411394Y442177D01*
X3412529Y441041D01*
X3414803Y439904D01*
X3417075Y439904D01*
X3419349Y441041D01*
X3422758Y443312D01*
X3434120Y454677D01*
X3434120Y438768D01*
X3410258Y431268D02*
G01*
X3434120Y431268D01*
X3410258Y431268D02*
G01*
X3410258Y416494D01*
X3421620Y431268D02*
G01*
X3421620Y422177D01*
X3434120Y431268D02*
G01*
X3434120Y416494D01*
X1524629Y576012D02*
G01*
X1524629Y544906D01*
X1485370Y544906D02*
G01*
X1485370Y576012D01*
X1491369Y582011D02*
G01*
X1518630Y582011D01*
X1524629Y495988D02*
G01*
X1524629Y527094D01*
X1485370Y527094D02*
G01*
X1485370Y495988D01*
X1491369Y489987D02*
G01*
X1518630Y489987D01*
X1577629Y536905D02*
G01*
X1577629Y565174D01*
X1538370Y565174D01*
X1538370Y536905D01*
X1577629Y519094D02*
G01*
X1577629Y490824D01*
X1538370Y490824D01*
X1538370Y519094D01*
X1436369Y518094D02*
G01*
X1436369Y489825D01*
X1475630Y489825D01*
X1475630Y518094D01*
X1436369Y535906D02*
G01*
X1436369Y564175D01*
X1475630Y564175D01*
X1475630Y535906D01*
D11*
X2709723Y999212D02*
G01*
X2709723Y900788D01*
X1101379Y900788D02*
G01*
X1101379Y999212D01*
X1000276Y900788D02*
G01*
X2709723Y900788D01*
X1000276Y999212D02*
G01*
X1000276Y900788D01*
X1000276Y999214D02*
G01*
X2709723Y999214D01*
X2709723Y299212D02*
G01*
X2709723Y200788D01*
X1101379Y200788D02*
G01*
X1101379Y299212D01*
X1000276Y200788D02*
G01*
X2709723Y200788D01*
X1000276Y299212D02*
G01*
X1000276Y200788D01*
X1000276Y299214D02*
G01*
X2709723Y299214D01*
D12*
X1344970Y497283D02*
G01*
X1337029Y497283D01*
X1376432Y497283D02*
G01*
X1376399Y497283D01*
X1325285Y532716D02*
G01*
X1305567Y532716D01*
X1376432Y532716D02*
G01*
X1356714Y532716D01*
X1376432Y532716D02*
G01*
X1376432Y497283D01*
X1305567Y532716D02*
G01*
X1305567Y497283D01*
X1305600Y497283D02*
G01*
X1305567Y497283D01*
X1337029Y699717D02*
G01*
X1344970Y699717D01*
X1305567Y699717D02*
G01*
X1305600Y699717D01*
X1356714Y664283D02*
G01*
X1376432Y664283D01*
X1305567Y664283D02*
G01*
X1325285Y664283D01*
X1305567Y664283D02*
G01*
X1305567Y699717D01*
X1376432Y664283D02*
G01*
X1376432Y699717D01*
X1376399Y699717D02*
G01*
X1376432Y699717D01*
D10*
G75*
G01*
X1485370Y576012D02*
G02*
X1491370Y582012I6000J0D01*
G75*
G01*
X1518630Y582012D02*
G02*
X1524630Y576012I0J-6000D01*
G75*
G01*
X1485370Y495988D02*
G03*
X1491370Y489988I6000J0D01*
G75*
G01*
X1518630Y489988D02*
G03*
X1524630Y495988I0J6000D01*
D12*
G75*
G01
X1383410Y485080D02*
G03X1383410Y485080I-2640J0D01*
G75*
G01
X1303870Y711920D02*
G03X1303870Y711920I-2640J0D01*
M02*
