G04 Layer: BottomPasteMaskLayer*
G04 EasyEDA v6.5.42, 2024-04-08 08:38:15*
G04 e5b43dc0649c40c7af9ec927a61642e9,25835901624346e3b29966769a4e042a,10*
G04 Gerber Generator version 0.2*
G04 Scale: 100 percent, Rotated: No, Reflected: No *
G04 Dimensions in inches *
G04 leading zeros omitted , absolute positions ,3 integer and 6 decimal *
%FSLAX36Y36*%
%MOIN*%

%AMMACRO1*21,1,$1,$2,0,0,$3*%
%ADD10MACRO1,0.0157X0.0201X0.0000*%

%LPD*%
G36*
X1496140Y528920D02*
G01*
X1494180Y526160D01*
X1494180Y507260D01*
X1496140Y505300D01*
X1513860Y505300D01*
X1515820Y507260D01*
X1515820Y526160D01*
X1513860Y528920D01*
G37*
G36*
X1496140Y566700D02*
G01*
X1494180Y564740D01*
X1494180Y545840D01*
X1496140Y543080D01*
X1513860Y543080D01*
X1515820Y545840D01*
X1515820Y564740D01*
X1513860Y566700D01*
G37*
G36*
X1548940Y522680D02*
G01*
X1547380Y521100D01*
X1547380Y501400D01*
X1548940Y499820D01*
X1567060Y499820D01*
X1568640Y501400D01*
X1568640Y521100D01*
X1567060Y522680D01*
G37*
G36*
X1548940Y556180D02*
G01*
X1547380Y554600D01*
X1547380Y534900D01*
X1548940Y533320D01*
X1567060Y533320D01*
X1568640Y534900D01*
X1568640Y554600D01*
X1567060Y556180D01*
G37*
G36*
X1446940Y555180D02*
G01*
X1445380Y553600D01*
X1445380Y533900D01*
X1446940Y532320D01*
X1465060Y532320D01*
X1466620Y533900D01*
X1466620Y553600D01*
X1465060Y555180D01*
G37*
G36*
X1446940Y521680D02*
G01*
X1445380Y520100D01*
X1445380Y500400D01*
X1446940Y498820D01*
X1465060Y498820D01*
X1466620Y500400D01*
X1466620Y520100D01*
X1465060Y521680D01*
G37*
D10*
G01*
X1340999Y540589D03*
G01*
X1360684Y489410D03*
G01*
X1321314Y489410D03*
G01*
X1340999Y656410D03*
G01*
X1321314Y707590D03*
G01*
X1360684Y707590D03*
M02*
